SplineFontDB: 3.0
FontName: OtherLetter
FullName: Other Letter
FamilyName: OtherLetter
Weight: Regular
Copyright: Copyright (c) 2013 Pathum Egodawatta, .Copyright (c) 2014 moonaik <http://moonaik.com> \n\n Licensed under the SIL Open Font License 1.1 (see file OFL.txt)
Version: 0.1
ItalicAngle: 0
UnderlinePosition: -368
UnderlineWidth: 24
Ascent: 819
Descent: 205
InvalidEm: 0
sfntRevision: 0x0000199a
LayerCount: 2
Layer: 0 0 "Back" 1
Layer: 1 0 "Fore" 0
XUID: [1021 792 -450466945 14250590]
FSType: 0
OS2Version: 3
OS2_WeightWidthSlopeOnly: 0
OS2_UseTypoMetrics: 1
CreationTime: 1316601550
ModificationTime: 1426970721
PfmFamily: 17
TTFWeight: 400
TTFWidth: 5
LineGap: 0
VLineGap: 0
Panose: 2 0 6 0 0 0 0 0 0 0
OS2TypoAscent: 1400
OS2TypoAOffset: 0
OS2TypoDescent: -648
OS2TypoDOffset: 0
OS2TypoLinegap: 20
OS2WinAscent: 866
OS2WinAOffset: 0
OS2WinDescent: 363
OS2WinDOffset: 0
HheadAscent: 866
HheadAOffset: 0
HheadDescent: -380
HheadDOffset: 0
OS2SubXSize: 861
OS2SubYSize: 799
OS2SubXOff: 0
OS2SubYOff: 246
OS2SupXSize: 861
OS2SupYSize: 799
OS2SupXOff: 0
OS2SupYOff: 615
OS2StrikeYSize: 61
OS2StrikeYPos: 307
OS2CapHeight: 0
OS2XHeight: 0
OS2Vendor: 'ACE '
OS2CodePages: 00000001.00000000
OS2UnicodeRanges: 80108003.00002042.00000000.00000000
Lookup: 4 0 0 "'abvs' Above Base Substitutions in Tamil lookup 0" { "'abvs' Above Base Substitutions in Tamil lookup 0 subtable"  } ['abvs' ('taml' <'dflt' > ) ]
Lookup: 4 0 0 "'akhn' Akhand in Tamil lookup 1" { "'akhn' Akhand in Tamil lookup 1 subtable"  } ['akhn' ('taml' <'dflt' > ) ]
Lookup: 4 0 0 "'blws' Below Base Substitutions in Tamil lookup 2" { "'blws' Below Base Substitutions in Tamil lookup 2 subtable"  } ['blws' ('taml' <'dflt' > ) ]
Lookup: 4 0 0 "'half' Half Forms in Tamil lookup 3" { "'half' Half Forms in Tamil lookup 3 subtable"  } ['half' ('taml' <'dflt' > ) ]
Lookup: 4 0 0 "'haln' Halant Forms in Tamil lookup 4" { "'haln' Halant Forms in Tamil lookup 4 subtable"  } ['haln' ('taml' <'dflt' > ) ]

StartChar: .notdef
Encoding: 396 -1 0
Width: 614
Flags: HW
LayerCount: 2
Back
Fore
SplineSet
96 731 m 1
 517 731 l 1
 517 0 l 1
 96 0 l 1
 96 731 l 1
148 52 m 1
 465 52 l 1
 465 679 l 1
 148 679 l 1
 148 52 l 1
EndSplineSet
EndChar

StartChar: .notdef#1
Encoding: 397 -1 1
Width: 614
Flags: HW
LayerCount: 2
Back
Fore
SplineSet
96 731 m 1
 517 731 l 1
 517 0 l 1
 96 0 l 1
 96 731 l 1
148 52 m 1
 465 52 l 1
 465 679 l 1
 148 679 l 1
 148 52 l 1
EndSplineSet
EndChar

StartChar: exclam
Encoding: 6 33 8
Width: 291
Flags: HW
LayerCount: 2
Back
Fore
SplineSet
89 259 m 1
 89 734 l 1
 202 734 l 1
 202 259 l 1
 89 259 l 1
89 0 m 1
 89 140 l 1
 202 140 l 1
 202 0 l 1
 89 0 l 1
EndSplineSet
EndChar

StartChar: quotedbl
Encoding: 7 34 9
Width: 366
Flags: HW
LayerCount: 2
Back
Fore
SplineSet
66 513 m 1
 66 738 l 1
 162 738 l 1
 162 513 l 1
 66 513 l 1
204 513 m 1
 204 738 l 1
 300 738 l 1
 300 513 l 1
 204 513 l 1
EndSplineSet
EndChar

StartChar: numbersign
Encoding: 8 35 10
Width: 723
Flags: HW
LayerCount: 2
Back
Fore
SplineSet
685 446 m 1
 543 446 l 1
 504 285 l 1
 639 285 l 1
 639 199 l 1
 483 199 l 1
 435 0 l 1
 343 0 l 1
 392 199 l 1
 244 199 l 1
 196 0 l 1
 103 0 l 1
 154 199 l 1
 38 199 l 1
 38 285 l 1
 173 285 l 1
 212 446 l 1
 84 446 l 1
 84 526 l 1
 232 526 l 1
 281 727 l 1
 373 727 l 1
 324 526 l 1
 471 526 l 1
 520 727 l 1
 612 727 l 1
 562 526 l 1
 685 526 l 1
 685 446 l 1
413 285 m 1
 452 446 l 1
 303 446 l 1
 264 285 l 1
 413 285 l 1
EndSplineSet
EndChar

StartChar: dollar
Encoding: 9 36 11
Width: 643
Flags: HW
LayerCount: 2
Back
Fore
SplineSet
63 511 m 0
 63 646.42991679 166.851680668 720.713857307 298 731 c 1
 298 835 l 1
 351 835 l 1
 351 731 l 1
 433.017241379 726.103448276 507.017241379 699.103448276 573 650 c 1
 521 556 l 1
 492.094059298 588.117711892 416.593707 624.093752867 343 629 c 1
 343 417 l 1
 362 413 l 1
 446.559796438 391.860050891 505.059796438 368.526717557 537.5 343 c 0
 580.5 309.163934426 602 262.163934426 602 202 c 0
 602 63.2880920647 495.542824448 -4.22033029909 351 -7 c 1
 351 -115 l 1
 298 -115 l 1
 298 -5 l 1
 196.414402018 1.86389175553 109.081068685 33.8638917555 36 91 c 1
 88 189 l 1
 122.703688686 151.141430524 217.49498718 106.460001386 305 97 c 1
 305 309 l 1
 287.115927281 314.961357573 286.119952338 313.96657066 255.5 322.5 c 128
 211.353125592 334.803227294 148.801276974 357.832853947 117.5 385 c 0
 81.1666666667 416.534591195 63 458.534591195 63 511 c 0
343 96 m 1
 433.666666667 97.3737373737 479 128.373737374 479 189 c 256
 479 219 467.166666667 241.833333333 443.5 257.5 c 128
 419.833333333 273.166666667 386.333333333 287 343 299 c 1
 343 96 l 1
305 629 m 1
 234.118286875 625.570239688 183 597.048597841 183 529.5 c 128
 183 500.5 193.166666667 478.833333333 213.5 464.5 c 128
 233.833333333 450.166666667 264.333333333 437.666666667 305 427 c 1
 305 629 l 1
EndSplineSet
EndChar

StartChar: percent
Encoding: 10 37 12
Width: 851
Flags: HW
LayerCount: 2
Back
Fore
SplineSet
199 741 m 0
 314.50898992 741 353 639.893108809 353 513 c 0
 353 359 301.666666667 282 199 282 c 0
 86.5854097663 282 50 389.555611935 50 513 c 0
 50 665 99.6666666667 741 199 741 c 0
199 347 m 0
 253.666666667 347 281 402.166666667 281 512.5 c 128
 281 622.833333333 253.666666667 678 199 678 c 0
 171.666666667 678 152 664.166666667 140 636.5 c 128
 128 608.833333333 122 567.5 122 512.5 c 128
 122 457.5 128 416.166666667 140 388.5 c 128
 152 360.833333333 171.666666667 347 199 347 c 0
667 731 m 1
 262 0 l 1
 183 0 l 1
 589 731 l 1
 667 731 l 1
647 448 m 0
 760.758494545 448 801 344.611975183 801 220 c 0
 801 66.6666666667 749.666666667 -10 647 -10 c 0
 535.383345582 -10 497 97.0112653109 497 220 c 0
 497 372 547 448 647 448 c 0
647 54 m 0
 701.666666667 54 729 109 729 219 c 128
 729 329 701.666666667 384 647 384 c 0
 619.666666667 384 599.833333333 370.333333333 587.5 343 c 128
 575.166666667 315.666666667 569 274.333333333 569 219 c 128
 569 163.666666667 575.166666667 122.333333333 587.5 95 c 128
 599.833333333 67.6666666667 619.666666667 54 647 54 c 0
EndSplineSet
EndChar

StartChar: ampersand
Encoding: 11 38 13
Width: 713
Flags: HW
LayerCount: 2
Back
Fore
SplineSet
287 736 m 0
 388.070799656 736 472 679.3071427 472 582 c 0
 472 529.146666667 444.333333333 479.48 389 433 c 0
 372.333333333 419 354.333333333 405.333333333 335 392 c 1
 499 220 l 1
 523.666666667 272.235294118 536 327.568627451 536 386 c 1
 628 386 l 1
 626.697191102 294.803377172 605.363857769 216.803377172 564 152 c 1
 710 0 l 1
 561 0 l 1
 495 70 l 1
 433.461538462 16.6666666667 363.128205128 -10 284 -10 c 0
 154.753541437 -10 44 72.6270029888 44 199 c 0
 44 262.413333333 71.6666666667 317.913333333 127 365.5 c 0
 143.666666667 379.833333333 160.666666667 393.333333333 178 406 c 1
 133.60199005 454.258706468 107.10199005 495.592039801 98.5 530 c 0
 95.5 542 94 557.333333333 94 576 c 128
 94 621.782049334 122.456878511 665.638422215 149.5 689.5 c 0
 184.633333333 720.5 230.466666667 736 287 736 c 0
434 134 m 1
 246 334 l 1
 218 314 195.5 293.166666667 178.5 271.5 c 128
 161.5 249.833333333 153 227.666666667 153 205 c 128
 153 158.760941727 168.692547491 131.888275695 195 111.5 c 0
 222.956989247 89.8333333333 259.202646816 79 303.736972705 79 c 128
 348.271298594 79 391.692307692 97.3333333333 434 134 c 1
285.5 652 m 128
 238.637456383 652 198 617.024370349 198 571.625 c 128
 198 533.22823022 240.306735961 492.362590443 267 463 c 1
 298.333333333 483 323.166666667 502 341.5 520 c 128
 359.833333333 538 369 557.833333333 369 579.5 c 128
 369 625.080001574 332.474094018 652 285.5 652 c 128
EndSplineSet
EndChar

StartChar: quotesingle
Encoding: 12 39 14
Width: 227
Flags: HW
LayerCount: 2
Back
Fore
SplineSet
66 512 m 1
 66 738 l 1
 162 738 l 1
 162 512 l 1
 66 512 l 1
EndSplineSet
EndChar

StartChar: parenleft
Encoding: 13 40 15
Width: 303
Flags: HW
LayerCount: 2
Back
Fore
SplineSet
189 -48 m 1
 89 102 39 236 39 354 c 0
 39 446.581818182 69.1666666667 549.915151515 129.5 664 c 0
 147.833333333 698.666666667 167 733.333333333 187 768 c 1
 274 731 l 1
 245.562653563 689.923832924 221.286650287 643.488124488 201.171990172 591.692874693 c 0
 163.057330057 493.547624898 144 413.316666667 144 351 c 0
 144 250.218390805 186.333333333 131.218390805 271 -6 c 1
 189 -48 l 1
EndSplineSet
EndChar

StartChar: parenright
Encoding: 14 41 16
Width: 303
Flags: HW
LayerCount: 2
Back
Fore
SplineSet
31 -6 m 1
 116.333333333 132.298850575 159 251.298850575 159 351 c 0
 159 411.6 143 483.1 111 565.5 c 0
 85.4397562119 631.317627754 58.1064228786 686.484294421 29 731 c 1
 115 768 l 1
 164.801980198 681.676567657 198.085808581 616.929042904 214.851485149 573.757425743 c 0
 246.95049505 491.102475248 263 416.8125 263 350.8875 c 0
 263 233.9625 213.333333333 101 114 -48 c 1
 31 -6 l 1
EndSplineSet
EndChar

StartChar: asterisk
Encoding: 15 42 17
Width: 345
Flags: HW
LayerCount: 2
Back
Fore
SplineSet
82 543 m 1
 128 611 l 1
 56 634 l 1
 73 685 l 1
 145 655 l 1
 141 733 l 1
 204 733 l 1
 200 655 l 1
 272 685 l 1
 288 634 l 1
 217 611 l 1
 263 543 l 1
 218 512 l 1
 173 585 l 1
 127 512 l 1
 82 543 l 1
EndSplineSet
EndChar

StartChar: plus
Encoding: 16 43 18
Width: 585
Flags: HW
LayerCount: 2
Back
Fore
SplineSet
328 397 m 1
 532 397 l 1
 532 324 l 1
 328 324 l 1
 328 113 l 1
 255 113 l 1
 255 324 l 1
 51 324 l 1
 51 397 l 1
 255 397 l 1
 255 609 l 1
 328 609 l 1
 328 397 l 1
EndSplineSet
EndChar

StartChar: comma
Encoding: 17 44 19
Width: 226
Flags: HW
LayerCount: 2
Back
Fore
SplineSet
75 -99 m 1
 99 6 l 1
 62 6 l 1
 62 131 l 1
 164 131 l 1
 164 6 l 1
 128 -99 l 1
 75 -99 l 1
EndSplineSet
EndChar

StartChar: hyphen
Encoding: 18 45 20
Width: 431
Flags: HW
LayerCount: 2
Back
Fore
SplineSet
62 229 m 1
 62 331 l 1
 369 331 l 1
 369 229 l 1
 62 229 l 1
EndSplineSet
EndChar

StartChar: period
Encoding: 19 46 21
Width: 218
Flags: HW
LayerCount: 2
Back
Fore
SplineSet
62 0 m 1
 62 131 l 1
 156 131 l 1
 156 0 l 1
 62 0 l 1
EndSplineSet
EndChar

StartChar: slash
Encoding: 20 47 22
Width: 680
Flags: HW
LayerCount: 2
Back
Fore
SplineSet
651 727 m 1
 153 0 l 1
 28 0 l 1
 526 727 l 1
 651 727 l 1
EndSplineSet
EndChar

StartChar: zero
Encoding: 21 48 23
Width: 629
Flags: HW
LayerCount: 2
Back
Fore
SplineSet
577 300 m 256
 577 210.507042254 551.833333333 136.340375587 501.5 77.5 c 0
 451.600401606 19.1666666667 389.100401606 -10 314 -10 c 0
 238.530120482 -10 176.196787149 19.1666666667 127 77.5 c 0
 77 136.785714286 52 210.952380952 52 300 c 256
 52 389.047619048 77 463.214285714 127 522.5 c 0
 176.759036145 581.5 239.092369478 611 314 611 c 0
 388.530120482 611 451.030120482 581.5 501.5 522.5 c 0
 551.833333333 463.659624413 577 389.492957746 577 300 c 256
314 94 m 0
 411.334400674 94 462 194.613989257 462 300 c 256
 462 404.944168056 411.610885133 507 314 507 c 0
 214.389571207 507 165 407.787550068 165 300 c 256
 165 191.646855616 214.564572965 94 314 94 c 0
EndSplineSet
EndChar

StartChar: one
Encoding: 22 49 24
Width: 482
Flags: HW
LayerCount: 2
Back
Fore
SplineSet
458 101 m 1
 458 0 l 1
 67 0 l 1
 67 101 l 1
 212 101 l 1
 212 459 l 1
 201.173267327 443.361386139 182.633250825 429.11839934 156.379950495 416.271039604 c 0
 109.691867556 393.423679868 72.8985507246 382 46 382 c 1
 46 487 l 1
 70.7474747475 487 104.080808081 500.833333333 146 528.5 c 0
 162.666666667 539.5 177.333333333 550.5 190 561.5 c 128
 202.666666667 572.5 210 580.333333333 212 585 c 1
 328 585 l 1
 328 101 l 1
 458 101 l 1
EndSplineSet
EndChar

StartChar: two
Encoding: 23 50 25
Width: 562
Flags: HW
LayerCount: 2
Back
Fore
SplineSet
382 406.666666667 m 128
 382 463.375378749 334.073649769 496 272 496 c 0
 217.025641026 496 166.692307692 469 121 415 c 1
 49 498 l 1
 94.6796338576 548.247597243 187.02904191 595 294 595 c 128
 410.35043817 595 504 534.162553239 504 426 c 0
 504 310.854600569 391.493710024 259.696912194 303.5 216.5 c 128
 285.166666667 207.5 267.5 197 250.5 185 c 0
 209.489868288 156.051671733 184.656534954 128.051671733 176 101 c 1
 515 101 l 1
 515 0 l 1
 41 0 l 1
 41 61.8558558559 51.8333333333 111.522522523 73.5 149 c 0
 99.5283204604 194.021959715 143.694987127 233.355293049 206 267 c 0
 248.642599012 290.690332784 291.841964616 310.22797641 329 335 c 0
 364.333333333 358.555555556 382 382.444444444 382 406.666666667 c 128
EndSplineSet
EndChar

StartChar: three
Encoding: 24 51 26
Width: 562
Flags: HW
LayerCount: 2
Back
Fore
SplineSet
387 395 m 256
 387 462.227609096 337.028568176 490 269 490 c 0
 197.428571429 490 145.761904762 461 114 403 c 1
 43 480 l 1
 61.1077844311 512.335329341 92.6077844311 538.835329341 137.5 559.5 c 0
 181.672413793 579.833333333 224.965517241 590 267.379310345 590 c 128
 401.054620818 590 507 531.227509852 507 408 c 0
 507 368.323232323 495.166666667 331.98989899 471.5 299 c 0
 449.002057613 267.639231824 417.835390947 248.639231824 378 242 c 1
 461.687666787 226.308562478 520 157.633637602 520 59 c 0
 520 -77.5888360177 407.888971287 -151 265 -151 c 0
 160.215686275 -151 82.8823529412 -115.666666667 33 -45 c 1
 101 33 l 1
 136.526315789 -21 190.526315789 -48 263 -48 c 0
 356.333333333 -48 403 -9.66666666667 403 67 c 0
 403 155.248199834 336.763398727 194 242 194 c 2
 214 194 l 1
 214 282 l 1
 245 282 l 2
 324.738688488 282 387 320.914377389 387 395 c 256
EndSplineSet
EndChar

StartChar: four
Encoding: 25 52 27
Width: 578
Flags: HW
LayerCount: 2
Back
Fore
SplineSet
337 -130 m 1
 337 33 l 1
 23 33 l 1
 23 133 l 1
 373 585 l 1
 450 585 l 1
 450 135 l 1
 540 135 l 1
 540 33 l 1
 450 33 l 1
 450 -130 l 1
 337 -130 l 1
137 135 m 1
 349 135 l 1
 349 413 l 1
 137 135 l 1
EndSplineSet
EndChar

StartChar: five
Encoding: 26 53 28
Width: 564
Flags: HW
LayerCount: 2
Back
Fore
SplineSet
415 89 m 0
 415 167.355367166 355.37475669 226 276 226 c 0
 220 226 177.333333333 204 148 160 c 1
 49 160 l 1
 54.2388843742 180.955537497 57.61412346 207.881656235 63.5 235.5 c 128
 76.3406802721 295.752422815 82.5295219474 334.919920487 97.5 407 c 128
 106.5 450.333333333 118 509.666666667 132 585 c 1
 487 585 l 1
 487 481 l 1
 214 481 l 1
 177 283 l 1
 203.526315789 311 241.859649123 325 292 325 c 0
 359.537634409 325 416.370967742 303 462.5 259 c 0
 507.5 216.076923077 530 160.076923077 530 91 c 0
 530 19.7619047619 505 -39.0714285714 455 -85.5 c 0
 406.538461538 -130.5 344.205128205 -153 268 -153 c 0
 156.517088557 -153 72.8345886449 -96.2447066272 32 -22 c 1
 99 43 l 1
 133.967239351 -8.84797558925 192.567444095 -53 275.5 -53 c 128
 354.963463166 -53 415 7.46799912341 415 89 c 0
EndSplineSet
EndChar

StartChar: six
Encoding: 27 54 29
Width: 622
Flags: HW
LayerCount: 2
Back
Fore
SplineSet
155 386 m 1
 181.925075567 442.297885277 242.950937405 485 323 485 c 128
 402.375013727 485 462.936450181 454.707804974 505 414.5 c 128
 545.849276574 375.452897393 578 316.862131974 578 241 c 128
 578 163.857244802 544.386548234 103.116694083 502.5 63 c 0
 451.68627451 14.3333333333 389.18627451 -10 315 -10 c 0
 140.07542704 -10 49 129.546823565 49 312 c 0
 49 446.740740741 74.3333333333 551.407407407 125 626 c 0
 173 696.666666667 240.333333333 732 327 732 c 0
 430.779111582 732 505.914221484 678.973914791 548 610 c 1
 481 541 l 1
 453.802606754 591.847300416 398.806524103 634 325 634 c 0
 204.500626523 634 157.220537398 517.011706458 155 386 c 1
161 242 m 0
 161 157.666740859 231.264272902 86 315.5 86 c 0
 404.355000026 86 470 161.035377515 470 242 c 0
 470 324.571065318 398.960795162 395 315 395 c 128
 230.876660859 395 161 325.827068574 161 242 c 0
EndSplineSet
EndChar

StartChar: seven
Encoding: 28 55 30
Width: 561
Flags: HW
LayerCount: 2
Back
Fore
SplineSet
381 494 m 1
 29 494 l 1
 29 597 l 1
 559 597 l 1
 196 -130 l 1
 68 -130 l 1
 381 494 l 1
EndSplineSet
EndChar

StartChar: eight
Encoding: 29 56 31
Width: 615
Flags: HW
LayerCount: 2
Back
Fore
SplineSet
545 532 m 256
 545 462.396301465 491.51253349 411.319491542 441 389 c 1
 525 352.04 567 289.706666667 567 202 c 0
 567 137.619076916 528.595105699 82.8862116174 489.5 51.5 c 0
 440.090643275 11.8333333333 378.923976608 -8 306 -8 c 0
 169.367251821 -8 47 81.2169942813 47 215 c 0
 47 297.081340099 109.080315369 359.945597895 173 389 c 1
 123.221271859 411.518948445 72 461.733134472 72 531 c 256
 72 589.606965174 97.5 637.940298507 148.5 676 c 0
 194.06 710 246.893333333 727 307 727 c 256
 366.591836735 727 420.091836735 710.166666667 467.5 676.5 c 0
 519.166666667 639.809178744 545 591.642512077 545 532 c 256
307 342 m 256
 229.566977736 342 163 291.104198621 163 217 c 256
 163 179.601626016 178.166666667 149.43495935 208.5 126.5 c 0
 238.037634409 104.166666667 271.204301075 93 308 93 c 0
 345.104166667 93 378.604166667 104.666666667 408.5 128 c 0
 438.833333333 151.674796748 454 181.674796748 454 218 c 0
 454 260.271486052 431.996439972 289.859940022 407 309.5 c 0
 379.424242424 331.166666667 346.090909091 342 307 342 c 256
307 627 m 0
 245.43862908 627 185 588.314046376 185 526.5 c 0
 185 492.496601663 204.665420696 468.38184236 225.5 453.5 c 0
 249.3 436.5 276.466666667 428 307 428 c 0
 370.962039936 428 430 468.514170687 430 529 c 0
 430 590.138321217 369.988703098 627 307 627 c 0
EndSplineSet
EndChar

StartChar: nine
Encoding: 30 57 32
Width: 603
Flags: HW
LayerCount: 2
Back
Fore
SplineSet
458 188 m 1
 431.079040439 131.710720918 369.048526481 89 289 89 c 128
 169.626823574 89 91.3256514435 153.461974911 54.5 237.5 c 128
 41.5 267.166666667 35 299.166666667 35 333.5 c 128
 35 410.034585509 69.9558201869 471.042165613 111 511.5 c 0
 160.710144928 560.5 223.043478261 585 298 585 c 0
 473.703625478 585 563 444.70629829 563 262 c 0
 563 127.436619718 537.833333333 22.9366197183 487.5 -51.5 c 0
 439.49047619 -122.5 372.323809524 -158 286 -158 c 0
 182.291137275 -158 106.405287747 -104.614476838 65 -36 c 1
 131 34 l 1
 159.207496661 -16.538431517 213.806811086 -59 288 -59 c 0
 408.11454412 -59 455.77332409 57.7394592487 458 188 c 1
297 179 m 256
 379.709711224 179 452 250.582467145 452 333 c 256
 452 374.603174603 436.666666667 411.103174603 406 442.5 c 0
 376.372093023 472.833333333 340.03875969 488 297 488 c 256
 253.96124031 488 217.627906977 472.833333333 188 442.5 c 0
 157.333333333 411.103174603 142 374.603174603 142 333 c 256
 142 250.582327565 214.295594402 179 297 179 c 256
EndSplineSet
EndChar

StartChar: colon
Encoding: 31 58 33
Width: 228
Flags: HW
LayerCount: 2
Back
Fore
SplineSet
68 400 m 1
 68 530 l 1
 161 530 l 1
 161 400 l 1
 68 400 l 1
68 0 m 1
 68 131 l 1
 161 131 l 1
 161 0 l 1
 68 0 l 1
EndSplineSet
EndChar

StartChar: semicolon
Encoding: 32 59 34
Width: 245
Flags: HW
LayerCount: 2
Back
Fore
SplineSet
73 400 m 1
 73 530 l 1
 165 530 l 1
 165 400 l 1
 73 400 l 1
84 -99 m 1
 109 6 l 1
 72 6 l 1
 72 131 l 1
 173 131 l 1
 173 6 l 1
 137 -99 l 1
 84 -99 l 1
EndSplineSet
EndChar

StartChar: less
Encoding: 33 60 35
Width: 585
Flags: HW
LayerCount: 2
Back
Fore
SplineSet
533 119 m 1
 51 331 l 1
 51 382 l 1
 533 622 l 1
 533 542 l 1
 147 360 l 1
 533 198 l 1
 533 119 l 1
EndSplineSet
EndChar

StartChar: equal
Encoding: 34 61 36
Width: 449
Flags: HW
LayerCount: 2
Back
Fore
SplineSet
66 166 m 1
 66 241 l 1
 382 241 l 1
 382 166 l 1
 66 166 l 1
66 325 m 1
 66 399 l 1
 382 399 l 1
 382 325 l 1
 66 325 l 1
EndSplineSet
EndChar

StartChar: greater
Encoding: 35 62 37
Width: 585
Flags: HW
LayerCount: 2
Back
Fore
SplineSet
51 198 m 1
 437 359 l 1
 51 542 l 1
 51 622 l 1
 533 382 l 1
 533 331 l 1
 51 119 l 1
 51 198 l 1
EndSplineSet
EndChar

StartChar: question
Encoding: 36 63 38
Width: 494
Flags: HW
LayerCount: 2
Back
Fore
SplineSet
35 604 m 1
 67.348003333 680.676748641 145.700768539 736 249 736 c 0
 304.5 736 351.833333333 720.333333333 391 689 c 0
 435 653.8 457 603.133333333 457 537 c 0
 457 474.037037037 432.833333333 425.37037037 384.5 391 c 0
 324.470948577 348.312674543 230 324.488261359 230 226 c 1
 136 226 l 1
 136 310.333551139 163.439238609 355.758717516 221 391 c 0
 248.559942121 406.311078956 282.313879497 423.999669358 307.5 444.5 c 0
 341.166666667 471.903100775 358 504.069767442 358 541 c 0
 358 601.511129839 309.469728284 644 246 644 c 0
 188.416666667 644 142.75 614 109 554 c 1
 35 604 l 1
136 0 m 1
 136 129 l 1
 230 129 l 1
 230 0 l 1
 136 0 l 1
EndSplineSet
EndChar

StartChar: at
Encoding: 37 64 39
Width: 863
Flags: HW
LayerCount: 2
Back
Fore
SplineSet
433 470 m 0
 568.105223729 470 613 399.929331495 613 258 c 2
 613 147 l 2
 613 111.303030303 615.333333333 86.8787878788 620 73.7272727273 c 128
 628.863478057 48.7483800221 637.439074173 37 670 37 c 128
 706.821964939 37 730.798160901 78.4233168605 741.5 109 c 0
 753.833333333 144.238095238 760 185.214285714 760 231.928571429 c 128
 760 334.157176325 719.845042799 417.853421651 667 472.5 c 128
 613.391670061 527.935886642 531.886005402 570 427.5 570 c 128
 323.37713595 570 243.860703151 529.860703151 189.5 475.5 c 0
 126.5 412.5 95 332.666666667 95 236 c 0
 95 141.247058824 124.833333333 61.5803921569 184.5 -3 c 0
 245.47826087 -69 323.311594203 -102 418 -102 c 0
 469.111111111 -102 522.111111111 -89 577 -63 c 1
 593 -109 l 1
 534.233333333 -136.333333333 477.375 -150 422.425 -150 c 128
 303.545420243 -150 216.265541806 -104.265541806 154 -42 c 128
 90.5015807715 21.4984192285 45 115.150422461 45 238 c 128
 45 360.544872671 96.2766787566 455.236929417 162 516 c 128
 224.706487634 573.973922529 316.61823973 617 430 617 c 256
 534.525252525 617 623.025252525 582.833333333 695.5 514.5 c 0
 762.266063999 451.549139658 810 354.117508825 810 227 c 0
 810 142.142857143 792.833333333 77.6428571429 758.5 33.5 c 0
 732.833333333 0.5 698 -16 654 -16 c 0
 591.859668533 -16 567.623557493 15.6997613116 561 72 c 1
 523.905699353 32.4327459768 461.443973398 0 387 0 c 0
 293.791175367 0 231 52.3974287821 231 141 c 0
 231 192.481481481 251.333333333 230.648148148 292 255.5 c 0
 326.363636364 276.5 366.732323232 287 413.106060606 287 c 128
 459.47979798 287 503.111111111 279.333333333 544 264 c 1
 544 361.45344742 511.215025779 403 414.614250614 403 c 128
 363.780507781 403 320.242424242 387.666666667 284 357 c 1
 261 419 l 1
 314.833333333 453 372.166666667 470 433 470 c 0
301 150 m 128
 301 94.4904977367 336.881563491 61 393 61 c 128
 444.749050119 61 513.982634616 89.3833830137 531 122 c 128
 539 137.333333333 543 153.333333333 543 170 c 2
 543 209 l 1
 533 211 517.5 215 496.5 221 c 128
 475.5 227 449.5 230 418.5 230 c 128
 360.634597044 230 301 206.999609068 301 150 c 128
EndSplineSet
EndChar

StartChar: A
Encoding: 38 65 40
Width: 691
Flags: HW
LayerCount: 2
Back
Fore
SplineSet
296 727 m 1
 396 727 l 1
 683 0 l 1
 562 0 l 1
 485 198 l 1
 205 198 l 1
 129 0 l 1
 7 0 l 1
 296 727 l 1
463 283 m 1
 346 595 l 1
 225 283 l 1
 463 283 l 1
EndSplineSet
EndChar

StartChar: B
Encoding: 39 66 41
Width: 691
Flags: HW
LayerCount: 2
Back
Fore
SplineSet
653 179.9 m 128
 653 69.0685313074 544.67794122 0 429 0 c 2
 82 0 l 1
 82 727 l 1
 457 727 l 2
 504.807692308 727 544.974358974 707.333333333 577.5 668 c 0
 607.833333333 631.317829457 623 592.147286822 623 550.488372093 c 128
 623 462.809145557 580.694350727 400.58551432 518 373 c 1
 599.664549569 348.37100886 653 284.991720572 653 179.9 c 128
429 99 m 2
 486.710462058 99 536 149.253335671 536 208.5 c 0
 536 270.169686982 493.110630183 322 436 322 c 2
 197 322 l 1
 197 99 l 1
 429 99 l 2
508 520 m 128
 508 578.935023587 471.313625532 628 414 628 c 2
 197 628 l 1
 197 414 l 1
 408 414 l 2
 464.931021851 414 508 460.477075519 508 520 c 128
EndSplineSet
EndChar

StartChar: C
Encoding: 40 67 42
Width: 700
Flags: HW
LayerCount: 2
Back
Fore
SplineSet
387 97 m 0
 473.688972085 97 547.802536357 146.178744229 581 217 c 1
 676 163 l 1
 652.837988827 110.242085661 612.504655493 68.4087523277 555 37.5 c 0
 459.885678227 -13.6239479529 338.699403124 -22.7359149849 242.5 26.5 c 128
 159.366857582 69.0484587178 95.8710559364 141.691735383 61.5 232 c 128
 44.5 276.666666667 36 321.5 36 366.5 c 128
 36 470.252636472 76.120775507 556.138029151 128.5 616 c 128
 187.387686421 683.300213053 271.543239948 731 396 731 c 128
 524.201304627 731 620.531399717 659.701961669 665 572 c 1
 574 512 l 1
 541.503930504 583.491352892 479.954489101 628 384 628 c 0
 312.473684211 628 254.973684211 600 211.5 544 c 0
 172.5 493.762711864 153 434.096045198 153 365 c 0
 153 291.624338624 174.833333333 229.291005291 218.5 178 c 0
 264.472972973 124 320.63963964 97 387 97 c 0
EndSplineSet
EndChar

StartChar: D
Encoding: 41 68 43
Width: 733
Flags: HW
LayerCount: 2
Back
Fore
SplineSet
694 365 m 0
 694 146.37534067 557.022158882 5.72388678958e-14 340 0 c 2
 82 0 l 1
 82 727 l 1
 340 727 l 2
 452.505050505 727 540.671717172 691.5 604.5 620.5 c 0
 664.166666667 554.129213483 694 468.962546816 694 365 c 0
340 101 m 2
 489.698624429 101 578 211.40188745 578 365 c 256
 578 517.504883783 487.778784418 626 340 626 c 2
 197 626 l 1
 197 101 l 1
 340 101 l 2
EndSplineSet
EndChar

StartChar: E
Encoding: 42 69 44
Width: 617
Flags: HW
LayerCount: 2
Back
Fore
SplineSet
581 101 m 1
 581 0 l 1
 82 0 l 1
 82 727 l 1
 571 727 l 1
 571 626 l 1
 197 626 l 1
 197 419 l 1
 521 419 l 1
 521 324 l 1
 197 324 l 1
 197 101 l 1
 581 101 l 1
EndSplineSet
EndChar

StartChar: F
Encoding: 43 70 45
Width: 593
Flags: HW
LayerCount: 2
Back
Fore
SplineSet
82 0 m 1
 82 727 l 1
 566 727 l 1
 566 626 l 1
 197 626 l 1
 197 409 l 1
 506 409 l 1
 506 313 l 1
 197 313 l 1
 197 0 l 1
 82 0 l 1
EndSplineSet
EndChar

StartChar: G
Encoding: 44 71 46
Width: 736
Flags: HW
LayerCount: 2
Back
Fore
SplineSet
577 510 m 1
 543.534339393 575.815799194 475.683310683 629 385.5 629 c 128
 305.689114157 629 252.267804337 593.842495277 215 548.5 c 0
 174.333333333 499.022222222 154 437.522222222 154 364 c 0
 154 289.333333333 176.166666667 226.666666667 220.5 176 c 0
 266 124 321.833333333 98 388 98 c 0
 463.672727273 98 531.339393939 133.666666667 591 205 c 1
 591 283 l 1
 438 283 l 1
 438 368 l 1
 687 368 l 1
 687 0 l 1
 591 0 l 1
 591 90 l 1
 529.666666667 26.6666666667 459 -5 379 -5 c 0
 270.947977161 -5 189.210356948 45.8079699386 135 106.5 c 128
 80.5274696301 167.485550305 37 257.659215625 37 366.5 c 128
 37 474.818541056 80.3470872548 563.50060666 135 623.5 c 128
 190.130413811 684.023606467 273.352331279 732 383 732 c 0
 523.379987292 732 617.956435262 667.087129477 665 573 c 1
 577 510 l 1
EndSplineSet
EndChar

StartChar: H
Encoding: 45 72 47
Width: 761
Flags: HW
LayerCount: 2
Back
Fore
SplineSet
679 727 m 1
 679 0 l 1
 563 0 l 1
 563 321 l 1
 197 321 l 1
 197 0 l 1
 82 0 l 1
 82 727 l 1
 197 727 l 1
 197 423 l 1
 563 423 l 1
 563 727 l 1
 679 727 l 1
EndSplineSet
EndChar

StartChar: I
Encoding: 46 73 48
Width: 279
Flags: HW
LayerCount: 2
Back
Fore
SplineSet
82 0 m 1
 82 727 l 1
 197 727 l 1
 197 0 l 1
 82 0 l 1
EndSplineSet
EndChar

StartChar: J
Encoding: 47 74 49
Width: 500
Flags: HW
LayerCount: 2
Back
Fore
SplineSet
38 128 m 1
 65.8773811102 108.321848628 117.505039516 92 169.5 92 c 128
 231.752683808 92 266.473754791 115.891385699 286 159.5 c 0
 302 195.233333333 310 261.066666667 310 357 c 2
 310 727 l 1
 426 727 l 1
 426 357 l 2
 426 251.116793806 420.386269792 156.46447963 383 90 c 0
 345.125 22.6666666667 273.458333333 -11 168 -11 c 0
 106.666666667 -11 54 4 10 34 c 1
 38 128 l 1
EndSplineSet
EndChar

StartChar: K
Encoding: 48 75 50
Width: 676
Flags: HW
LayerCount: 2
Back
Fore
SplineSet
82 0 m 1
 82 726 l 1
 197 726 l 1
 197 352 l 1
 539 727 l 1
 666 727 l 1
 379 406 l 1
 682 0 l 1
 554 0 l 1
 308 335 l 1
 197 219 l 1
 197 0 l 1
 82 0 l 1
EndSplineSet
EndChar

StartChar: L
Encoding: 49 76 51
Width: 598
Flags: HW
LayerCount: 2
Back
Fore
SplineSet
82 0 m 1
 82 727 l 1
 197 727 l 1
 197 101 l 1
 587 101 l 1
 587 0 l 1
 82 0 l 1
EndSplineSet
EndChar

StartChar: M
Encoding: 50 77 52
Width: 891
Flags: HW
LayerCount: 2
Back
Fore
SplineSet
693 0 m 1
 693 523 l 1
 477 127 l 1
 414 127 l 1
 197 523 l 1
 197 0 l 1
 82 0 l 1
 82 727 l 1
 205 727 l 1
 445 283 l 1
 686 727 l 1
 809 727 l 1
 809 0 l 1
 693 0 l 1
EndSplineSet
EndChar

StartChar: N
Encoding: 51 78 53
Width: 785
Flags: HW
LayerCount: 2
Back
Fore
SplineSet
197 512 m 1
 197 0 l 1
 82 0 l 1
 82 727 l 1
 172 727 l 1
 588 203 l 1
 588 726 l 1
 703 726 l 1
 703 0 l 1
 608 0 l 1
 197 512 l 1
EndSplineSet
EndChar

StartChar: O
Encoding: 52 79 54
Width: 770
Flags: HW
LayerCount: 2
Back
Fore
SplineSet
634 106 m 128
 577.612033059 44.8130571491 494.043332106 -5 382.5 -5 c 128
 271.105135479 -5 187.064276218 46.7534268837 132 109 c 128
 78.2204977131 169.794219977 36 258.006398107 36 365 c 128
 36 471.619430515 81.3768275308 560.557131566 135.5 620.5 c 128
 191.459130994 682.476241854 274.955360182 732 387 732 c 128
 498.743320749 732 582.96689263 678.422816196 637.5 615.5 c 128
 690.554968621 554.282728515 733 466.984983995 733 360.5 c 128
 733 254.17922165 688.6232173 165.272001752 634 106 c 128
153 362.5 m 0
 153 215.465635328 249.522837491 98 385 98 c 0
 454.122807018 98 510.789473684 126 555 182 c 0
 595 232.666666667 615 293.333333333 615 364 c 0
 615 436.469945355 594.166666667 497.636612022 552.5 547.5 c 0
 507.655251142 601.166666667 451.821917808 628 385 628 c 0
 315.864864865 628 258.864864865 600.333333333 214 545 c 0
 173.333333333 494.844444444 153 434.011111111 153 362.5 c 0
EndSplineSet
EndChar

StartChar: P
Encoding: 53 80 55
Width: 638
Flags: HW
LayerCount: 2
Back
Fore
SplineSet
82 0 m 1
 82 727 l 1
 387 727 l 2
 450.151515152 727 504.151515152 702.333333333 549 653 c 0
 591 606.8 612 552.466666667 612 490 c 0
 612 426.183908046 592 371.517241379 552 326 c 0
 509.232323232 277.333333333 456.232323232 253 393 253 c 2
 197 253 l 1
 197 0 l 1
 82 0 l 1
496 491 m 128
 496 564.545669507 445.964977312 626 380 626 c 2
 197 626 l 1
 197 354 l 1
 386 354 l 2
 434.585034014 354 468.418367347 381.5 487.5 436.5 c 0
 493.166666667 452.833333333 496 471 496 491 c 128
EndSplineSet
EndChar

StartChar: Q
Encoding: 54 81 56
Width: 768
Flags: HW
LayerCount: 2
Back
Fore
SplineSet
733 362 m 0
 733 265.028985507 700.666666667 180.695652174 636 109 c 1
 731 0 l 1
 621 0 l 1
 573 53 l 1
 514.283950617 14.3333333333 451.283950617 -5 384 -5 c 0
 271.54110163 -5 187.573573851 47.2817597103 132 109.5 c 128
 78.13504347 169.805331767 36 258.225735104 36 365 c 128
 36 471.619430515 81.3768275308 560.557131566 135.5 620.5 c 128
 191.459130994 682.476241854 274.955360182 732 387 732 c 128
 498.743320749 732 582.96689263 678.422816196 637.5 615.5 c 128
 690.087296324 554.822350396 733 467.109886793 733 362 c 0
562 193 m 1
 597.333333333 238.802469136 615 295.802469136 615 364 c 0
 615 436.120218579 594.166666667 497.453551913 552.5 548 c 0
 507.986486486 602 452.153153153 629 385 629 c 0
 315.533333333 629 258.533333333 601.166666667 214 545.5 c 0
 173.333333333 494.666666667 153 434.166666667 153 364 c 0
 153 291.213114754 173.833333333 229.546448087 215.5 179 c 0
 260.013513514 125 316.513513514 98 385 98 c 0
 427.208333333 98 466.541666667 109.666666667 503 133 c 1
 399 253 l 1
 510 253 l 1
 562 193 l 1
EndSplineSet
EndChar

StartChar: R
Encoding: 55 82 57
Width: 677
Flags: HW
LayerCount: 2
Back
Fore
SplineSet
82 0 m 1
 82 727 l 1
 398 727 l 2
 461.151515152 727 515.151515152 702.333333333 560 653 c 0
 602.666666667 606.066666667 624 551.733333333 624 490 c 0
 624 442.234234234 610.833333333 398.067567568 584.5 357.5 c 0
 558.919430722 318.092095977 524.419430722 290.925429311 481 276 c 1
 652 0 l 1
 522 0 l 1
 365 253 l 1
 197 253 l 1
 197 0 l 1
 82 0 l 1
507 490 m 0
 507 555.519333859 456.405454058 626 391 626 c 2
 197 626 l 1
 197 354 l 1
 397 354 l 2
 464.029279885 354 507 423.079781632 507 490 c 0
EndSplineSet
EndChar

StartChar: S
Encoding: 56 83 58
Width: 626
Flags: HW
LayerCount: 2
Back
Fore
SplineSet
54 511 m 0
 54 652.957023633 170.352686657 732 318 732 c 0
 408.59047619 732 490.59047619 704.666666667 564 650 c 1
 512 556 l 1
 478.401093709 592.95879692 398.879530928 630 315 630 c 0
 232.857992823 630 174 603.465244992 174 529 c 0
 174 497.474074074 188.833333333 473.140740741 218.5 456 c 0
 256.674801995 433.943447736 408.011639357 399.355365624 453.5 383 c 128
 483.166666667 372.333333333 508.166666667 359 528.5 343 c 0
 571.5 309.163934426 593 262.163934426 593 202 c 0
 593 58.2260837414 479.372763728 -7 327 -7 c 0
 211.388888889 -7 111.388888889 25.6666666667 27 91 c 1
 79 189 l 1
 126.540585501 141.459414499 227.577631168 96 341.5 96 c 128
 408.461901682 96 470 124.003897612 470 189 c 0
 470 222.08496732 452.166666667 248.418300654 416.5 268 c 0
 392.448863636 281.204545455 353.019412879 295.005681818 298.211647727 309.403409091 c 128
 243.403882576 323.801136364 202.5 336.166666667 175.5 346.5 c 128
 105.787296255 373.180170569 54 425.108985647 54 511 c 0
EndSplineSet
EndChar

StartChar: T
Encoding: 57 84 59
Width: 631
Flags: HW
LayerCount: 2
Back
Fore
SplineSet
615 626 m 1
 374 626 l 1
 374 0 l 1
 258 0 l 1
 258 626 l 1
 15 626 l 1
 15 727 l 1
 615 727 l 1
 615 626 l 1
EndSplineSet
EndChar

StartChar: U
Encoding: 58 85 60
Width: 770
Flags: HW
LayerCount: 2
Back
Fore
SplineSet
290.5 120 m 0
 316.166666667 105.333333333 347.833333333 98 385.5 98 c 128
 462.250481666 98 511.07335205 132.007710861 541 179.5 c 0
 569.666666667 224.992753623 584 284.492753623 584 358 c 2
 584 727 l 1
 699 727 l 1
 699 358 l 2
 699 188.833333333 642.333333333 77.3333333333 529 23.5 c 0
 489 4.5 440.5 -5 383.5 -5 c 128
 268.309155993 -5 189.650034358 38.9418445341 141 106 c 0
 95 169.405405405 72 253.405405405 72 358 c 2
 72 727 l 1
 186 727 l 1
 186 358 l 2
 186 239.142857143 220.833333333 159.80952381 290.5 120 c 0
EndSplineSet
EndChar

StartChar: V
Encoding: 59 86 61
Width: 694
Flags: HW
LayerCount: 2
Back
Fore
SplineSet
128 727 m 1
 347 144 l 1
 565 727 l 1
 687 727 l 1
 396 0 l 1
 298 0 l 1
 6 727 l 1
 128 727 l 1
EndSplineSet
EndChar

StartChar: W
Encoding: 60 87 62
Width: 1076
Flags: HW
LayerCount: 2
Back
Fore
SplineSet
340 724 m 1
 449 724 l 1
 538 477 l 1
 628 724 l 1
 735 724 l 1
 611 400 l 1
 720 133 l 1
 946 727 l 1
 1072 727 l 1
 772 0 l 1
 674 0 l 1
 539 326 l 1
 402 0 l 1
 304 0 l 1
 4 727 l 1
 129 727 l 1
 356 133 l 1
 465 400 l 1
 340 724 l 1
EndSplineSet
EndChar

StartChar: X
Encoding: 61 88 63
Width: 656
Flags: HW
LayerCount: 2
Back
Fore
SplineSet
127 727 m 1
 329 440 l 1
 530 727 l 1
 656 727 l 1
 390 358 l 1
 648 0 l 1
 522 0 l 1
 329 276 l 1
 135 0 l 1
 8 0 l 1
 267 358 l 1
 0 727 l 1
 127 727 l 1
EndSplineSet
EndChar

StartChar: Y
Encoding: 62 89 64
Width: 673
Flags: HW
LayerCount: 2
Back
Fore
SplineSet
135 727 m 1
 336 362 l 1
 539 727 l 1
 665 727 l 1
 393 260 l 1
 393 0 l 1
 279 0 l 1
 279 262 l 1
 9 727 l 1
 135 727 l 1
EndSplineSet
EndChar

StartChar: Z
Encoding: 63 90 65
Width: 644
Flags: HW
LayerCount: 2
Back
Fore
SplineSet
32 88 m 1
 473 626 l 1
 42 626 l 1
 42 727 l 1
 607 727 l 1
 607 639 l 1
 176 101 l 1
 608 101 l 1
 608 0 l 1
 32 0 l 1
 32 88 l 1
EndSplineSet
EndChar

StartChar: bracketleft
Encoding: 64 91 66
Width: 299
Flags: HW
LayerCount: 2
Back
Fore
SplineSet
85 -41 m 1
 85 758 l 1
 252 758 l 1
 252 667 l 1
 189 667 l 1
 189 50 l 1
 252 50 l 1
 252 -41 l 1
 85 -41 l 1
EndSplineSet
EndChar

StartChar: backslash
Encoding: 65 92 67
Width: 627
Flags: HW
LayerCount: 2
Back
Fore
SplineSet
154 727 m 1
 599 0 l 1
 474 0 l 1
 28 727 l 1
 154 727 l 1
EndSplineSet
EndChar

StartChar: bracketright
Encoding: 66 93 68
Width: 299
Flags: HW
LayerCount: 2
Back
Fore
SplineSet
47 -41 m 1
 47 50 l 1
 110 50 l 1
 110 667 l 1
 47 667 l 1
 47 758 l 1
 214 758 l 1
 214 -41 l 1
 47 -41 l 1
EndSplineSet
EndChar

StartChar: asciicircum
Encoding: 67 94 69
Width: 583
Flags: HW
LayerCount: 2
Back
Fore
SplineSet
42 310 m 1
 245 727 l 1
 339 727 l 1
 541 310 l 1
 446 310 l 1
 292 630 l 1
 134 310 l 1
 42 310 l 1
EndSplineSet
EndChar

StartChar: underscore
Encoding: 68 95 70
Width: 502
Flags: HW
LayerCount: 2
Back
Fore
SplineSet
60 -101 m 1
 60 0 l 1
 441 0 l 1
 441 -101 l 1
 60 -101 l 1
EndSplineSet
EndChar

StartChar: grave
Encoding: 69 96 71
Width: 249
Flags: HW
LayerCount: 2
Back
Fore
SplineSet
48 748 m 1
 156 748 l 1
 214 635 l 1
 142 612 l 1
 48 748 l 1
EndSplineSet
EndChar

StartChar: a
Encoding: 70 97 72
Width: 578
Flags: HW
LayerCount: 2
Back
Fore
SplineSet
275 545 m 256
 419.478730855 545 509 469.790695719 509 327 c 2
 509 133 l 2
 509 109 519 96.6666666667 539 96 c 1
 539 0 l 1
 500.845609604 -6.73312771691 460.608767913 -10.1413705865 437 11.5 c 128
 425 22.5 417.666666667 36.3333333333 415 53 c 1
 412 87 l 1
 373.005228161 36.0901589877 301.477518909 -10 220.5 -10 c 128
 107.282929056 -10 29 53.4718135627 29 158 c 0
 29 208.262295082 49.8333333333 248.762295082 91.5 279.5 c 0
 134.425925926 311.166666667 184.922558923 327 242.98989899 327 c 128
 301.057239057 327 352.060606061 318.666666667 396 302 c 1
 396 339 l 2
 396 423.690123892 346.317556065 465 257.466666667 465 c 128
 209.777777778 465 155.622222222 444.333333333 95 403 c 1
 60 475 l 1
 129.333333333 521.666666667 201 545 275 545 c 256
135 168.5 m 128
 135 112.480211209 182.038108572 73 238.5 73 c 0
 300.462962963 73 345.962962963 91.6666666667 375 129 c 1
 389 141 396 154 396 168 c 2
 396 239 l 1
 356.96969697 254.333333333 316.545454545 262 274.727272727 262 c 128
 204.578455043 262 135 232.736580998 135 168.5 c 128
EndSplineSet
EndChar

StartChar: b
Encoding: 71 98 73
Width: 643
Flags: HW
LayerCount: 2
Back
Fore
SplineSet
356 -10 m 0
 267.189373526 -10 201.682906026 38.3978484387 167 97 c 1
 167 0 l 1
 68 0 l 1
 68 748 l 1
 180 748 l 1
 180 434 l 1
 226.431372549 508 290.431372549 545 372 545 c 0
 441.307359307 545 498.640692641 516.833333333 544 460.5 c 0
 587.333333333 406.682795699 609 341.516129032 609 265 c 0
 609 189.437810945 584.833333333 124.604477612 536.5 70.5 c 0
 488.557777778 16.8333333333 428.391111111 -10 356 -10 c 0
180 191 m 1
 194.516658758 135.352808095 260.712696844 86 334.5 86 c 0
 380.920909851 86 422.950020838 113.717068661 447 140.5 c 0
 478.333333333 175.393939394 494 216.893939394 494 265 c 256
 494 360.005411736 426.467036992 449 335 449 c 0
 258.634749453 449 205.362788871 388.3369939 180 333 c 1
 180 191 l 1
EndSplineSet
EndChar

StartChar: c
Encoding: 72 99 74
Width: 572
Flags: HW
LayerCount: 2
Back
Fore
SplineSet
547 127 m 1
 513.82236772 53.2719282662 425.191920835 -10 321.5 -10 c 128
 222.802233484 -10 156.802883806 22.3774714848 109 73.5 c 128
 66.1633796095 119.311385695 33 184.962969994 33 268.5 c 128
 33 351.844211317 65.0543660151 417.66849746 108 463 c 0
 159.789473684 517.666666667 227.122807018 545 310 545 c 0
 423.666506207 545 504.565658042 488.868683917 543 412 c 1
 433 377 l 1
 411.201071079 416.008609648 367.508124356 449 311 449 c 128
 257.782175969 449 220.820038202 427.38050776 194.5 398 c 0
 163.5 363.395348837 148 320.062015504 148 268 c 0
 148 173.489890588 216.480659605 86 309 86 c 0
 351 86 387 101 417 131 c 0
 425.666666667 139.666666667 432 149.333333333 436 160 c 1
 547 127 l 1
EndSplineSet
EndChar

StartChar: d
Encoding: 73 100 75
Width: 652
Flags: HW
LayerCount: 2
Back
Fore
SplineSet
577 133 m 2
 577 108.110322904 583.774278317 97.3662189225 607 96 c 1
 607 0 l 1
 565.962068068 -7.24198798796 532.796682027 -9.71822955706 505.5 12.5 c 128
 491.166666667 24.1666666667 483.333333333 39 482 57 c 2
 480 97 l 1
 445.995946749 38.372321981 376.758057551 -10 289.5 -10 c 128
 205.672272498 -10 146.499363667 25.4932591234 105.5 72 c 0
 57.8333333333 126.069651741 34 191.736318408 34 269 c 0
 34 344.5 56.6666666667 409.166666667 102 463 c 0
 148.035087719 517.666666667 205.035087719 545 273 545 c 0
 364.258465529 545 429.3965267 493.320239942 464 434 c 1
 464 748 l 1
 577 748 l 1
 577 133 l 2
309 86 m 128
 387.382127372 86 448.897754859 135.108060292 464 193 c 1
 464 333 l 1
 452.007537688 366.31239531 430.507537688 394.145728643 399.5 416.5 c 0
 369.446236559 438.166666667 340.516129032 449 312.709677419 449 c 128
 255.010066085 449 220.762357246 425.167810233 194.5 392.5 c 0
 165.5 356.426829268 151 314.260162602 151 266 c 0
 151 190.258689497 193.257289721 128.636247426 250.5 100.5 c 128
 270.166666667 90.8333333333 289.666666667 86 309 86 c 128
EndSplineSet
EndChar

StartChar: e
Encoding: 74 101 76
Width: 609
Flags: HW
LayerCount: 2
Back
Fore
SplineSet
551 127 m 1
 516.775763719 53.6623508256 425.620881087 -10 321.5 -10 c 128
 223.028430724 -10 156.950050746 21.3860575459 109 72 c 0
 58.3333333333 125.481481481 33 190.148148148 33 266 c 0
 33 342.814814815 58.3333333333 408.314814815 109 462.5 c 0
 160.428571429 517.5 227.761904762 545 311 545 c 256
 391.533333333 545 458.2 517.5 511 462.5 c 0
 560.333333333 411.111111111 585 347.277777778 585 271 c 0
 585 259.666666667 584 246 582 230 c 1
 153 230 l 1
 160.398457636 143.684660912 222.951720271 73 314 73 c 0
 381.112104777 73 431.067248625 104.475302652 455 155 c 1
 551 127 l 1
473 308 m 1
 465.517698204 392.799420351 399.933292269 462 310 462 c 0
 220.580922555 462 157.650988517 394.711203198 150 308 c 1
 473 308 l 1
EndSplineSet
EndChar

StartChar: f
Encoding: 75 102 77
Width: 365
Flags: HW
LayerCount: 2
Back
Fore
SplineSet
98 544 m 2
 98 664.098111374 154.529883096 758 269 758 c 0
 311.266666667 758 352.933333333 747 394 725 c 1
 370 641 l 1
 343.925925926 655.666666667 317.907407407 663 291.944444444 663 c 128
 232.740801311 663 211 611.338153998 211 547 c 2
 211 522 l 1
 348 522 l 1
 348 435 l 1
 211 435 l 1
 211 0 l 1
 98 0 l 1
 98 435 l 1
 27 435 l 1
 27 522 l 1
 98 522 l 1
 98 544 l 2
EndSplineSet
EndChar

StartChar: g
Encoding: 76 103 78
Width: 644
Flags: HW
LayerCount: 2
Back
Fore
SplineSet
464 97 m 1
 430.518253625 40.4273940558 363.873241201 -5 280 -5 c 256
 208.035087719 -5 149.035087719 22.3333333333 103 77 c 0
 57.6666666667 130.833333333 35 194.166666667 35 267 c 0
 35 344.538461538 58.1666666667 410.038461538 104.5 463.5 c 0
 151.588888889 517.833333333 211.422222222 545 284 545 c 0
 376.467948846 545 438.661510819 492.705811558 477 434 c 1
 477 536 l 1
 577 536 l 1
 577 15 l 2
 577 -139.948652238 452.982293822 -228 292 -228 c 0
 170.616643941 -228 97.2669867905 -184.560432167 45 -114 c 1
 109 -54 l 1
 141.938245291 -101.211484917 209.067353407 -142 282 -142 c 128
 341.370618876 -142 380.307146415 -131.213218932 412.5 -104.5 c 0
 446.833333333 -76.0106382979 464 -36.1773049645 464 15 c 2
 464 97 l 1
464 333 m 1
 442.582163897 386.544590257 380.130041082 449 312.806451613 449 c 128
 254.874376049 449 218.61113157 424.116557113 192.5 391 c 0
 164.166666667 355.06504065 150 312.731707317 150 264 c 0
 150 187.974526419 192.459395614 128.093074216 250.5 100.5 c 128
 270.833333333 90.8333333333 291.166666667 86 311.5 86 c 128
 388.585443268 86 448.785654158 137.214065246 464 193 c 1
 464 333 l 1
EndSplineSet
EndChar

StartChar: h
Encoding: 77 104 79
Width: 611
Flags: HW
LayerCount: 2
Back
Fore
SplineSet
180 428 m 1
 214.689651564 489.546156 284.17416807 545 372.5 545 c 128
 444.337774323 545 485.868324795 521.625495713 513 479.5 c 0
 536.333333333 443.271929825 548 392.438596491 548 327 c 2
 548 0 l 1
 435 0 l 1
 435 300 l 2
 435 396 401.333333333 444 334 444 c 0
 259.491143985 444 197.008147555 377.528516442 180 318 c 1
 180 0 l 1
 68 0 l 1
 68 748 l 1
 180 748 l 1
 180 428 l 1
EndSplineSet
EndChar

StartChar: i
Encoding: 78 105 80
Width: 248
Flags: HW
LayerCount: 2
Back
Fore
SplineSet
68 0 m 1
 68 536 l 1
 180 536 l 1
 180 0 l 1
 68 0 l 1
68 624 m 1
 68 748 l 1
 180 748 l 1
 180 624 l 1
 68 624 l 1
EndSplineSet
EndChar

StartChar: j
Encoding: 79 106 81
Width: 254
Flags: HW
LayerCount: 2
Back
Fore
SplineSet
186 -11 m 2
 186 -114.53127812 112.640624614 -196 11 -196 c 0
 -39 -196 -82 -180.666666667 -118 -150 c 1
 -68 -74 l 1
 -50.1111111111 -89.3333333333 -29.6388888889 -97 -6.58333333333 -97 c 128
 38.9175091953 -97 74 -64.3753688324 74 -19 c 2
 74 536 l 1
 186 536 l 1
 186 -11 l 2
74 624 m 1
 74 748 l 1
 186 748 l 1
 186 624 l 1
 74 624 l 1
EndSplineSet
EndChar

StartChar: k
Encoding: 80 107 82
Width: 561
Flags: HW
LayerCount: 2
Back
Fore
SplineSet
440 0 m 1
 269 247 l 1
 180 163 l 1
 180 0 l 1
 68 0 l 1
 68 748 l 1
 180 748 l 1
 180 273 l 1
 426 535 l 1
 549 535 l 1
 341 310 l 1
 560 0 l 1
 440 0 l 1
EndSplineSet
EndChar

StartChar: l
Encoding: 81 108 83
Width: 308
Flags: HW
LayerCount: 2
Back
Fore
SplineSet
181 155 m 2
 181 118.373637203 201.247994159 91 236.1 91 c 128
 252.166666667 91 271.466666667 95.3333333333 294 104 c 1
 310 16 l 1
 248.517551544 -12.1794555423 146.907148452 -21.689849257 101 23.5 c 128
 79.6666666667 44.5 69 74.6666666667 69 114 c 2
 69 748 l 1
 181 748 l 1
 181 155 l 2
EndSplineSet
EndChar

StartChar: m
Encoding: 82 109 84
Width: 949
Flags: HW
LayerCount: 2
Back
Fore
SplineSet
371.5 545 m 128
 457.361741461 545 511.629562651 494.473638019 524 423 c 1
 570.870056497 504.333333333 638.203389831 545 726 545 c 0
 833.333333333 545 887 472.333333333 887 327 c 2
 887 0 l 1
 774 0 l 1
 774 300 l 2
 774 396 742 444 678 444 c 0
 603.181758797 444 552.763373951 379.912489131 534 317 c 1
 534 0 l 1
 421 0 l 1
 421 300 l 2
 421 396 389.333333333 444 326 444 c 0
 250.759055266 444 199.78065458 380.638739502 180 318 c 1
 180 0 l 1
 68 0 l 1
 68 536 l 1
 170 536 l 1
 170 428 l 1
 208.010244609 494.517928065 273.131658564 545 371.5 545 c 128
EndSplineSet
EndChar

StartChar: n
Encoding: 83 110 85
Width: 611
Flags: HW
LayerCount: 2
Back
Fore
SplineSet
170 428 m 1
 205.448327532 489.748699571 285.664909348 545 376.5 545 c 128
 450.907225723 545 489.508760051 524.152066582 516 480 c 0
 537.333333333 444.444444444 548 393.444444444 548 327 c 2
 548 0 l 1
 435 0 l 1
 435 300 l 2
 435 384.338201958 414.715427003 444 340 444 c 0
 287.623188406 444 242.956521739 419 206 369 c 0
 194.666666667 353.666666667 186 336.666666667 180 318 c 1
 180 0 l 1
 68 0 l 1
 68 536 l 1
 170 536 l 1
 170 428 l 1
EndSplineSet
EndChar

StartChar: o
Encoding: 84 111 86
Width: 616
Flags: HW
LayerCount: 2
Back
Fore
SplineSet
308 -10 m 256
 226.026315789 -10 159.192982456 17.6666666667 107.5 73 c 0
 57.8333333333 126.164319249 33 190.830985915 33 267 c 0
 33 344.222222222 58 409.222222222 108 462 c 0
 160.421052632 517.333333333 227.087719298 545 308 545 c 0
 388.51754386 545 455.350877193 517.333333333 508.5 462 c 0
 558.833333333 409.598173516 584 344.598173516 584 267 c 0
 584 190.068493151 558.833333333 125.401826484 508.5 73 c 0
 455.350877193 17.6666666667 388.51754386 -10 308 -10 c 256
308 449 m 0
 215.991440671 449 148 359.706174362 148 265.5 c 0
 148 165.337294667 216.352573388 86 308 86 c 256
 401.453043926 86 468 171.859437926 468 267 c 0
 468 362.958617175 401.954485435 449 308 449 c 0
EndSplineSet
EndChar

StartChar: p
Encoding: 85 112 87
Width: 643
Flags: HW
LayerCount: 2
Back
Fore
SplineSet
167 439 m 1
 203.230567052 495.098942532 266.69211681 545 353.5 545 c 128
 437.262596588 545 496.545788869 508.455523074 537.5 462 c 0
 585.166666667 407.930348259 609 343.263681592 609 268 c 0
 609 189.777777778 586.833333333 124.277777778 542.5 71.5 c 0
 496.86 17.1666666667 437.86 -10 365.5 -10 c 0
 279.215490608 -10 213.944908437 42.6448098827 180 100 c 1
 180 -218 l 1
 68 -218 l 1
 68 536 l 1
 167 536 l 1
 167 439 l 1
180 203 m 1
 203.759623478 143.600941304 261.447042973 86 340.5 86 c 0
 387.814895432 86 426.688824166 114.193572202 450 142.5 c 0
 479.333333333 178.119047619 494 219.952380952 494 268 c 0
 494 364.179337692 422.514897414 449 327 449 c 0
 297.022988506 449 267.189655172 438.5 237.5 417.5 c 0
 206.381231036 395.489163416 187.214564369 370.655830082 180 343 c 1
 180 203 l 1
EndSplineSet
EndChar

StartChar: q
Encoding: 86 113 88
Width: 643
Flags: HW
LayerCount: 2
Back
Fore
SplineSet
545.5 -217 m 128
 501.276053332 -217 463 -180.03164673 463 -135 c 2
 463 100 l 1
 419 26.6666666667 355 -10 271 -10 c 0
 202.807017544 -10 146.140350877 17.6666666667 101 73 c 0
 57 126.935483871 35 191.935483871 35 268 c 0
 35 344.597014925 58.8333333333 409.930348259 106.5 464 c 128
 154.105263158 518 214.271929825 545 287 545 c 0
 375.078341172 545 440.094975209 494.251205506 476 438 c 1
 476 536 l 1
 575 536 l 1
 575 -80 l 2
 575 -105.468252085 585.280516851 -114.327119629 608 -117 c 1
 608 -213 l 1
 588 -215.666666667 567.166666667 -217 545.5 -217 c 128
150 265 m 0
 150 168.034629766 218.268689968 86 312 86 c 0
 374.03030303 86 424.363636364 120 463 188 c 1
 463 330 l 1
 456.466981132 361.358490566 437.466981132 389.025157233 406 413 c 128
 374.5 437 344.958333333 449 317.375 449 c 128
 259.608811675 449 222.655147919 424.707268462 195.5 392.5 c 0
 165.166666667 356.523255814 150 314.023255814 150 265 c 0
EndSplineSet
EndChar

StartChar: r
Encoding: 87 114 89
Width: 383
Flags: HW
LayerCount: 2
Back
Fore
SplineSet
172 416 m 1
 203.132523967 477.153172079 260.359707235 536.315276896 340 541 c 1
 357 541 l 2
 361.666666667 541 365.666666667 540.666666667 369 540 c 1
 369 438 l 1
 278.384575531 435.254078046 208.265340505 394.808986648 180 328 c 1
 180 0 l 1
 68 0 l 1
 68 536 l 1
 172 536 l 1
 172 416 l 1
EndSplineSet
EndChar

StartChar: s
Encoding: 88 115 90
Width: 508
Flags: HW
LayerCount: 2
Back
Fore
SplineSet
477 150.423076923 m 128
 477 43.0013813728 377.240492437 -10 262 -10 c 0
 167.140685362 -10 78.1913421887 25.0551664052 24 71 c 1
 69 142 l 1
 134.882352941 95.3333333333 198.549019608 72 260 72 c 0
 316.922392495 72 369 92.9946849798 369 145.5 c 128
 369 168.5 358 185.166666667 336 195.5 c 128
 269.415820835 226.774387183 143.420774658 243.958098584 89.5 283.5 c 0
 60.5 304.766666667 46 334.933333333 46 374 c 0
 46 483.5087867 139.593387549 545 254 545 c 0
 335.104761905 545 403.771428571 521 460 473 c 1
 412 406 l 1
 362 445.333333333 309 465 253 465 c 0
 198.478768826 465 152 443.816066625 152 390 c 0
 152 368.740740741 160.5 353.074074074 177.5 343 c 0
 187.23605948 337.230483271 217.402726146 327.230483271 268 313 c 0
 343.59380838 295.132372565 396.59380838 275.965705898 427 255.5 c 0
 460.333333333 233.064102564 477 198.038461538 477 150.423076923 c 128
EndSplineSet
EndChar

StartChar: t
Encoding: 89 116 91
Width: 376
Flags: HW
LayerCount: 2
Back
Fore
SplineSet
225 -8 m 0
 146.401338193 -8 95 32.313103694 95 114 c 2
 95 449 l 1
 25 449 l 1
 25 536 l 1
 95 536 l 1
 95 712 l 1
 208 712 l 1
 208 536 l 1
 325 536 l 1
 325 449 l 1
 208 449 l 1
 208 150 l 1
 210.528735632 113.333333333 229.528735632 95 265 95 c 0
 287 95 312.666666667 102.333333333 342 117 c 1
 366 28 l 1
 318 4 271 -8 225 -8 c 0
EndSplineSet
EndChar

StartChar: u
Encoding: 90 117 92
Width: 624
Flags: HW
LayerCount: 2
Back
Fore
SplineSet
548 133 m 2
 548 107.582756005 554.861817508 97.3410101385 579 96 c 1
 579 0 l 1
 559 -3.33333333333 540.5 -5 523.5 -5 c 128
 489.0939931 -5 455.295794338 21.3093472192 454 55 c 2
 452 109 l 1
 409.722689313 39.7121852622 336.08903105 -10 232 -10 c 0
 118.666666667 -10 62 62.6666666667 62 208 c 2
 62 536 l 1
 175 536 l 1
 175 230 l 2
 175 134 209.333333333 86 278 86 c 0
 356.004486475 86 409.96426966 139.954929156 435 202 c 1
 435 536 l 1
 548 536 l 1
 548 133 l 2
EndSplineSet
EndChar

StartChar: v
Encoding: 91 118 93
Width: 556
Flags: HW
LayerCount: 2
Back
Fore
SplineSet
218 0 m 1
 13 536 l 1
 129 536 l 1
 283 95 l 1
 437 536 l 1
 544 536 l 1
 339 0 l 1
 218 0 l 1
EndSplineSet
EndChar

StartChar: w
Encoding: 92 119 94
Width: 850
Flags: HW
LayerCount: 2
Back
Fore
SplineSet
735 536 m 1
 843 536 l 1
 617 0 l 1
 524 0 l 1
 425 249 l 1
 326 0 l 1
 232 0 l 1
 6 536 l 1
 114 536 l 1
 287 109 l 1
 365 307 l 1
 271 535 l 1
 364 535 l 1
 425 367 l 1
 485 535 l 1
 578 535 l 1
 485 307 l 1
 563 109 l 1
 735 536 l 1
EndSplineSet
EndChar

StartChar: x
Encoding: 93 120 95
Width: 535
Flags: HW
LayerCount: 2
Back
Fore
SplineSet
127 536 m 1
 258 352 l 1
 267 335 l 1
 276 352 l 1
 407 536 l 1
 524 536 l 1
 329 267 l 1
 526 0 l 1
 409 0 l 1
 276 182 l 1
 267 199 l 1
 258 182 l 1
 126 0 l 1
 8 0 l 1
 206 267 l 1
 10 536 l 1
 127 536 l 1
EndSplineSet
EndChar

StartChar: y
Encoding: 94 121 96
Width: 560
Flags: HW
LayerCount: 2
Back
Fore
SplineSet
141 -232 m 0
 121.4 -232 103.066666667 -229.333333333 86 -224 c 1
 86 -126 l 1
 109.333333333 -130.666666667 126.5 -133 137.5 -133 c 128
 163.270908915 -133 171.281284559 -124.373464181 183.5 -107.5 c 0
 194.592307692 -92.1820512821 209.758974359 -56.3487179487 229 0 c 1
 9 536 l 1
 125 536 l 1
 291 99 l 1
 438 536 l 1
 545 536 l 1
 302 -124 l 1
 280.51305662 -185.774962218 225.245447815 -232 141 -232 c 0
EndSplineSet
EndChar

StartChar: z
Encoding: 95 122 97
Width: 505
Flags: HW
LayerCount: 2
Back
Fore
SplineSet
29 71 m 1
 350 456 l 1
 40 456 l 1
 40 536 l 1
 469 536 l 1
 469 465 l 1
 150 80 l 1
 472 80 l 1
 472 0 l 1
 29 0 l 1
 29 71 l 1
EndSplineSet
EndChar

StartChar: braceleft
Encoding: 96 123 98
Width: 300
Flags: HW
LayerCount: 2
Back
Fore
SplineSet
92 727 m 2
 92 745.337299751 101.850970741 758 116 758 c 2
 251 758 l 1
 251 667 l 1
 195 667 l 1
 195 437 l 2
 195 410.916666667 184 388.25 162 369 c 1
 184 347 195 324 195 300 c 2
 195 59 l 1
 251 59 l 1
 251 -32 l 1
 116 -32 l 2
 101.715849834 -32 92 -18.3303601083 92 -1 c 2
 92 265 l 2
 92 298.123995306 72.8110688251 324.702653557 45 330 c 1
 45 410 l 1
 67.7969905304 410 92 436.994629814 92 472 c 2
 92 727 l 2
EndSplineSet
EndChar

StartChar: bar
Encoding: 97 124 99
Width: 262
Flags: HW
LayerCount: 2
Back
Fore
SplineSet
83 -133 m 1
 83 794 l 1
 179 794 l 1
 179 -133 l 1
 83 -133 l 1
EndSplineSet
EndChar

StartChar: braceright
Encoding: 98 125 100
Width: 300
Flags: HW
LayerCount: 2
Back
Fore
SplineSet
208 -1 m 2
 208 -18.348207995 198.315495939 -32 184 -32 c 2
 50 -32 l 1
 50 59 l 1
 106 59 l 1
 106 300 l 2
 106 326 116.666666667 349 138 369 c 1
 116.666666667 387.666666667 106 410.333333333 106 437 c 2
 106 667 l 1
 50 667 l 1
 50 758 l 1
 184 758 l 2
 198.089463376 758 208 745.319805899 208 727 c 2
 208 472 l 2
 208 439.515614258 230.455291906 410 255 410 c 1
 255 330 l 1
 227.188173432 324.702509225 208 298.123172169 208 265 c 2
 208 -1 l 2
EndSplineSet
EndChar

StartChar: asciitilde
Encoding: 99 126 101
Width: 562
Flags: HW
LayerCount: 2
Back
Fore
SplineSet
69 265.5 m 128
 73.6666666667 279.166666667 81 293.166666667 91 307.5 c 0
 116.348837209 343.833333333 150.348837209 362 193 362 c 0
 217.53968254 362 247.706349206 352.833333333 283.5 334.5 c 0
 307.062599999 322.43135122 333.071835023 306 365.5 306 c 128
 392.197614855 306 411.077622309 317.587325098 423 331 c 0
 432.333333333 341.5 437 350.5 437 358 c 1
 502 358 l 1
 502 355.333333333 499.666666667 347.5 495 334.5 c 128
 490.333333333 321.5 482.833333333 307.833333333 472.5 293.5 c 0
 445.825581395 256.5 410.325581395 238 366 238 c 0
 339.46031746 238 308.293650794 247.166666667 272.5 265.5 c 0
 249.421563274 277.320662713 222.910126123 294 191.5 294 c 128
 165.369313222 294 149.250566773 280.33408903 138.5 266 c 0
 130.166666667 254.888888889 126 245.555555556 126 238 c 1
 62 238 l 1
 62 242.666666667 64.3333333333 251.833333333 69 265.5 c 128
EndSplineSet
EndChar

StartChar: exclamdown
Encoding: 101 161 103
Width: 289
Flags: HW
LayerCount: 2
Back
Fore
SplineSet
201 471 m 1
 201 -4 l 1
 88 -4 l 1
 88 471 l 1
 201 471 l 1
201 730 m 1
 201 590 l 1
 88 590 l 1
 88 730 l 1
 201 730 l 1
EndSplineSet
EndChar

StartChar: cent
Encoding: 102 162 104
Width: 594
Flags: HW
LayerCount: 2
Back
Fore
SplineSet
283 -123 m 1
 283 -9 l 1
 213.934579439 -3.88404292143 156.101246106 26.7826237452 109.5 83 c 0
 64.5 137.285714286 42 197.619047619 42 264 c 0
 42 334.950819672 63.1666666667 396.450819672 105.5 448.5 c 0
 150.038448466 503.260387459 209.205115133 535.093720792 283 544 c 1
 283 660 l 1
 336 660 l 1
 336 544 l 1
 442.201793057 541.129681269 512.829734109 486.668319355 552 412 c 1
 443 377 l 1
 419.505882353 418.767320261 383.839215686 441.100653595 336 444 c 1
 336 89 l 1
 375.23566879 94.2314225053 406.402335456 108.898089172 429.5 133 c 0
 437.166666667 141 442.666666667 150 446 160 c 1
 556 127 l 1
 538.534313725 84.5833333333 505.867647059 50.25 458 24 c 0
 416.666666667 1.33333333333 376 -10 336 -10 c 1
 336 -123 l 1
 283 -123 l 1
283 440 m 1
 209.603763103 427.76729385 158 353.545592947 158 264.5 c 0
 158 175.889692551 214.735917212 108.62801774 283 94 c 1
 283 440 l 1
EndSplineSet
EndChar

StartChar: sterling
Encoding: 103 163 105
Width: 541
Flags: HW
LayerCount: 2
Back
Fore
SplineSet
254.1 99 m 128
 300.249936649 99 342.935195451 81 388.5 81 c 128
 410.833333333 81 439 86.6666666667 473 98 c 1
 501 14 l 1
 465.095238095 -5.33333333333 426.428571429 -15 385 -15 c 0
 361.484848485 -15 336.772727273 -11.8333333333 310.863636364 -5.5 c 0
 213.272603664 18.3555857711 173.011684486 19.9035053457 80 -8 c 1
 53 73 l 1
 94.3333333333 109 124 143 142 175 c 128
 160 207 169 239.333333333 169 272 c 0
 169 282 168.333333333 291.666666667 167 301 c 1
 56 301 l 1
 56 387 l 1
 138 387 l 1
 124.666666667 414.333333333 111.333333333 441.333333333 98 468 c 128
 84.6666666667 494.666666667 78 521.666666667 78 549 c 128
 78 608.758846474 104.427698789 649.934271627 137.5 680 c 0
 175.633333333 714.666666667 223.466666667 732 281 732 c 0
 371.361662894 732 441.083408907 681.828598741 482 625 c 1
 422 555 l 1
 394.571447455 597.78854197 340.581517937 640 276.5 640 c 128
 222.110005795 640 180 597.864599995 180 543 c 0
 180 504.136666137 208.015335112 452.400822179 221.5 428 c 128
 228.5 415.333333333 235.333333333 401.666666667 242 387 c 1
 428 387 l 1
 428 301 l 1
 265 301 l 1
 266.333333333 293 267 285.333333333 267 278 c 0
 267 245.333333333 259.833333333 214.5 245.5 185.5 c 128
 231.166666667 156.5 207 124 173 88 c 1
 203.8 95.3333333333 230.833333333 99 254.1 99 c 128
EndSplineSet
EndChar

StartChar: currency
Encoding: 104 164 106
Width: 558
Flags: HW
LayerCount: 2
Back
Fore
SplineSet
121 236 m 1
 98.3333333333 266.666666667 87 303 87 345 c 128
 87 387 98 423.666666667 120 455 c 1
 48 527 l 1
 96 575 l 1
 169 503 l 1
 201.266666667 525 237.566666667 536 277.9 536 c 128
 318.233333333 536 355.266666667 525 389 503 c 1
 461 575 l 1
 510 527 l 1
 437 456 l 1
 459.666666667 424 471 387.333333333 471 346 c 128
 471 304.666666667 459.333333333 267.333333333 436 234 c 1
 510 163 l 1
 466 120 l 1
 391 189 l 1
 358.733333333 167 321.6 156 279.6 156 c 128
 237.6 156 199.733333333 167 166 189 c 1
 91 120 l 1
 48 163 l 1
 121 236 l 1
175 345.357142857 m 128
 175 282.537923294 218.223465716 229 279.629032258 229 c 128
 341.198279244 229 384 282.928444296 384 346 c 256
 384 408.967614526 341.286844946 461 280 461 c 256
 218.920234068 461 175 407.990768566 175 345.357142857 c 128
EndSplineSet
EndChar

StartChar: yen
Encoding: 105 165 107
Width: 716
Flags: HW
LayerCount: 2
Back
Fore
SplineSet
489 398 m 1
 568 398 l 1
 568 324 l 1
 450 324 l 1
 414 260 l 1
 414 230 l 1
 569 230 l 1
 569 156 l 1
 414 156 l 1
 414 0 l 1
 298 0 l 1
 298 156 l 1
 144 156 l 1
 144 230 l 1
 298 230 l 1
 298 262 l 1
 264 324 l 1
 144 324 l 1
 144 398 l 1
 225 398 l 1
 30 727 l 1
 156 727 l 1
 356 362 l 1
 559 727 l 1
 685 727 l 1
 489 398 l 1
EndSplineSet
EndChar

StartChar: brokenbar
Encoding: 106 166 108
Width: 264
Flags: HW
LayerCount: 2
Back
Fore
SplineSet
180 275 m 1
 180 -133 l 1
 84 -133 l 1
 84 275 l 1
 180 275 l 1
180 794 m 1
 180 385 l 1
 84 385 l 1
 84 794 l 1
 180 794 l 1
EndSplineSet
EndChar

StartChar: section
Encoding: 107 167 109
Width: 537
Flags: HW
LayerCount: 2
Back
Fore
SplineSet
263 632 m 0
 207.037222779 632 160 599.728242295 160 543.431034483 c 128
 160 515.143678161 169.833333333 495.666666667 189.5 485 c 128
 228.890428266 463.635699924 289.544628115 469.529108079 339.5 458.5 c 128
 392.625609018 446.770969438 433.447680429 419.111498783 458.5 378 c 128
 471.5 356.666666667 478 328.722222222 478 294.166666667 c 128
 478 259.611111111 470 232.555555556 454 213 c 1
 480.666666667 192.259259259 494 157.259259259 494 108 c 0
 494 43.8358974359 468.833333333 -6.83076923077 418.5 -44 c 0
 376.972222222 -74.6666666667 328.472222222 -90 273 -90 c 0
 192.511111111 -90 120.844444444 -56.3333333333 58 11 c 1
 131 81 l 1
 172.411764706 38.3333333333 218.078431373 17 268 17 c 0
 323.310651135 17 377 49.3725727492 377 103 c 0
 377 139.628571429 355.5 161.628571429 312.5 169 c 0
 300.833333333 171 289.333333333 172.333333333 278 173 c 0
 162.41518851 180.149575968 70 233.068745791 70 349 c 0
 70 382.166666667 77.3333333333 408.833333333 92 429 c 1
 66.8151933073 449.740429041 46 495.573175868 46 544 c 128
 46 603.408127282 74.9862834735 647.677830581 109 677 c 0
 151.533333333 713.666666667 200.533333333 732 256 732 c 0
 329.219512195 732 388.219512195 706.5 433 655.5 c 0
 445 641.833333333 455.333333333 628.666666667 464 616 c 1
 377 575 l 1
 354.724137931 613 316.724137931 632 263 632 c 0
348 242 m 1
 362.658449676 252.660690673 372 275.973764399 372 301.5 c 128
 372 329.470594251 353.901040939 348.162674072 336 359.5 c 0
 317.578947368 371.166666667 294.340350877 377 266.284210526 377 c 128
 238.228070175 377 216.133333333 380.666666667 200 388 c 1
 186 376.8 179 359 179 334.6 c 128
 179 266.735192504 238.185670105 255.263057234 300 251 c 128
 319.333333333 249.666666667 335.333333333 246.666666667 348 242 c 1
EndSplineSet
EndChar

StartChar: dieresis
Encoding: 108 168 110
Width: 421
Flags: HW
LayerCount: 2
Back
Fore
SplineSet
73 630 m 1
 73 742 l 1
 167 742 l 1
 167 630 l 1
 73 630 l 1
254 630 m 1
 254 742 l 1
 348 742 l 1
 348 630 l 1
 254 630 l 1
EndSplineSet
EndChar

StartChar: copyright
Encoding: 109 169 111
Width: 858
Flags: HW
LayerCount: 2
Back
Fore
SplineSet
703 98.5 m 128
 639.552475536 38.1028372887 546.086488095 -7 427.5 -7 c 128
 309.418245555 -7 216.419738637 37.916136029 154 98.5 c 128
 92.5285572349 158.163459154 46 247.84946152 46 363 c 128
 46 477.852876372 92.4755702603 567.888292995 154 627 c 128
 216.567822446 687.11418235 309.618151003 732 427.5 732 c 128
 545.764885372 732 639.507873109 686.82911957 703 627 c 128
 765.54541666 568.062972762 813 478.370937405 813 363 c 128
 813 247.486901105 765.385151033 157.885864926 703 98.5 c 128
188.5 131.5 m 128
 242.736478331 78.4823189347 323.775717179 38 426.5 38 c 128
 625.585999209 38 764 175.085219866 764 361 c 0
 764 453.755555556 732 531.422222222 668 594 c 0
 604.590909091 656 524.257575758 687 427 687 c 0
 330.704545455 687 251.204545455 656 188.5 594 c 0
 125.5 531.707865169 94 454.374531835 94 362 c 0
 94 262.328597756 135.308699974 183.495989913 188.5 131.5 c 128
652 250 m 1
 621.920348189 177.808835654 535.497930044 122 435 122 c 0
 363.833333333 122 304.166666667 144.666666667 256 190 c 0
 208 235.176470588 184 293.176470588 184 364 c 0
 184 428.961748634 204.5 484.295081967 245.5 530 c 0
 290.950980392 580.666666667 352.784313725 606 431 606 c 0
 537.264978941 606 613.847050274 556.231693609 647 481 c 1
 539 446 l 1
 516.894736842 488 480.894736842 509 431 509 c 0
 353.330129984 509 299 445.050186903 299 364 c 0
 299 319.157894737 313.333333333 283.157894737 342 256 c 0
 368.740740741 230.666666667 399.074074074 218 433 218 c 0
 482.208536054 218 525.791720554 247.436222479 543 283 c 1
 652 250 l 1
EndSplineSet
EndChar

StartChar: ordfeminine
Encoding: 110 170 112
Width: 452
Flags: HW
LayerCount: 2
Back
Fore
SplineSet
212.5 729 m 128
 313.223926346 729 375 678.46297987 375 579 c 2
 375 458 l 2
 375 440.666666667 382.666666667 431.666666667 398 431 c 1
 398 356 l 1
 384.666666667 353.333333333 370.833333333 352 356.5 352 c 128
 327.1779199 352 307.878560968 369.142926883 304 395 c 1
 303 417 l 1
 269.161616162 372.333333333 223.828282828 350 167 350 c 0
 100.716737088 350 44 396.551865482 44 465 c 256
 44 538.823506764 111.604110912 583 206.5 583 c 128
 235.5 583 263 577.333333333 289 566 c 1
 289 589 l 2
 289 643.915723841 258.130228867 669 200.275 669 c 128
 169.125 669 132.366666667 655.333333333 90 628 c 1
 63 682 l 1
 111 713.333333333 160.833333333 729 212.5 729 c 128
125 473 m 128
 125 438.015431577 154.84666312 414 190 414 c 0
 227.6 414 255.933333333 425 275 447 c 0
 284.333333333 454.333333333 289 463.333333333 289 474 c 2
 289 518 l 1
 268 527.333333333 243.416666667 532 215.25 532 c 128
 169.065747446 532 125 514.427128881 125 473 c 128
EndSplineSet
EndChar

StartChar: guillemotleft
Encoding: 111 171 113
Width: 636
Flags: HW
LayerCount: 2
Back
Fore
SplineSet
39 291 m 1
 303 480 l 1
 303 387 l 1
 129 265 l 1
 303 147 l 1
 303 55 l 1
 39 234 l 1
 39 291 l 1
310 291 m 1
 575 480 l 1
 575 387 l 1
 400 265 l 1
 575 147 l 1
 575 55 l 1
 310 234 l 1
 310 291 l 1
EndSplineSet
EndChar

StartChar: logicalnot
Encoding: 112 172 114
Width: 615
Flags: HW
LayerCount: 2
Back
Fore
SplineSet
546 396 m 1
 546 116 l 1
 450 116 l 1
 450 295 l 1
 65 295 l 1
 65 396 l 1
 546 396 l 1
EndSplineSet
EndChar

StartChar: uni00AD
Encoding: 113 173 115
Width: 606
Flags: HW
LayerCount: 2
Back
Fore
SplineSet
62 229 m 1
 62 331 l 1
 544 331 l 1
 544 229 l 1
 62 229 l 1
EndSplineSet
EndChar

StartChar: registered
Encoding: 114 174 116
Width: 858
Flags: HW
LayerCount: 2
Back
Fore
SplineSet
428 -7 m 256
 318.841750842 -7 227.675084175 28.1666666667 154.5 98.5 c 0
 82.1666666667 168.024271845 46 256.524271845 46 364 c 0
 46 478.207738288 92.798394624 568.293618186 154.5 627 c 0
 228.071428571 697 319.238095238 732 428 732 c 256
 537.047619048 732 628.714285714 697 703 627 c 0
 765.54541666 568.062972762 813 478.370937405 813 363 c 128
 813 247.486901105 765.385151033 157.885864926 703 98.5 c 0
 629.114478114 28.1666666667 537.447811448 -7 428 -7 c 256
427 37 m 0
 530.63787081 37 610.827385256 74.3863201325 666.5 127 c 0
 730.833333333 187.798534799 763 266.131868132 763 362 c 0
 763 455.111111111 731.333333333 532.277777778 668 593.5 c 0
 603.517241379 655.833333333 523.517241379 687 428 687 c 0
 332.766283525 687 253.266283525 655.833333333 189.5 593.5 c 0
 127.166666667 532.56741573 96 456.06741573 96 364 c 0
 96 270.299625468 127.166666667 192.632958801 189.5 131 c 0
 252.878787879 68.3333333333 332.045454545 37 427 37 c 0
605 447.581081081 m 128
 605 377.401472263 566.896116736 327.062088642 514 309 c 1
 624 136 l 1
 532 136 l 1
 432 295 l 1
 347 295 l 1
 347 136 l 1
 266 136 l 1
 266 591 l 1
 464 591 l 2
 504.063492063 591 537.896825397 575.333333333 565.5 544 c 0
 591.833333333 514.108108108 605 481.968468468 605 447.581081081 c 128
525 443 m 128
 525 486.307790972 497.453218078 518 456 518 c 2
 347 518 l 1
 347 366 l 1
 459 366 l 2
 502.150129264 366 525 398.767797779 525 443 c 128
EndSplineSet
EndChar

StartChar: macron
Encoding: 115 175 117
Width: 421
Flags: HW
LayerCount: 2
Back
Fore
SplineSet
59 659 m 1
 59 731 l 1
 362 731 l 1
 362 659 l 1
 59 659 l 1
EndSplineSet
EndChar

StartChar: degree
Encoding: 116 176 118
Width: 285
Flags: HW
LayerCount: 2
Back
Fore
SplineSet
142.5 546 m 128
 86.4200716865 546 45 589.124314924 45 645 c 128
 45 700.948390501 86.4264504776 741 142.5 741 c 128
 199.104933719 741 240 700.783059642 240 644 c 128
 240 587.242721647 199.103590739 546 142.5 546 c 128
101 643 m 128
 101 622.964886771 119.652146149 603 142.315789474 603 c 128
 164.890592422 603 183 621.468603154 183 643 c 128
 183 664.607969296 166.157379547 684 143.416666667 684 c 128
 120.828640932 684 101 664.551204835 101 643 c 128
EndSplineSet
EndChar

StartChar: acute
Encoding: 118 180 120
Width: 249
Flags: HW
LayerCount: 2
Back
Fore
SplineSet
122 612 m 1
 48 635 l 1
 106 748 l 1
 214 748 l 1
 122 612 l 1
EndSplineSet
EndChar

StartChar: paragraph
Encoding: 119 182 121
Width: 652
Flags: HW
LayerCount: 2
Back
Fore
SplineSet
36 476.833333333 m 128
 36 641.84096581 153.424495097 727 325 727 c 2
 606 727 l 1
 606 641 l 1
 535 641 l 1
 535 -82 l 1
 438 -82 l 1
 438 221 l 1
 378 221 l 1
 378 -82 l 1
 281 -82 l 1
 281 221 l 1
 129.107707105 223.712362373 36 323.355080476 36 476.833333333 c 128
281 641 m 1
 183.813138622 638.337346264 130 573.657087668 130 474 c 0
 130 399.555555556 161 348.555555556 223 321 c 0
 241 313 260.333333333 308.333333333 281 307 c 1
 281 641 l 1
438 641 m 1
 378 641 l 1
 378 307 l 1
 438 307 l 1
 438 641 l 1
EndSplineSet
EndChar

StartChar: periodcentered
Encoding: 120 183 122
Width: 218
Flags: HW
LayerCount: 2
Back
Fore
SplineSet
62 249 m 1
 62 389 l 1
 156 389 l 1
 156 249 l 1
 62 249 l 1
EndSplineSet
EndChar

StartChar: cedilla
Encoding: 121 184 123
Width: 317
Flags: HW
LayerCount: 2
Back
Fore
SplineSet
195 -115 m 0
 195 -86.2303876549 171.350629814 -80 142.5 -80 c 0
 114.833333333 -80 87 -84 59 -92 c 1
 121 25 l 1
 167 9 l 1
 131 -46 l 1
 141.666666667 -43.3333333333 156.166666667 -42 174.5 -42 c 128
 215.669728418 -42 250 -66.9737305253 250 -111 c 256
 250 -169.664709912 194.409447931 -194 128 -194 c 0
 93 -194 58 -187 23 -173 c 1
 46 -129 l 1
 63.7731257253 -139.367656673 106.033063197 -150 136 -150 c 0
 175.333333333 -150 195 -138.333333333 195 -115 c 0
EndSplineSet
EndChar

StartChar: ordmasculine
Encoding: 122 186 124
Width: 457
Flags: HW
LayerCount: 2
Back
Fore
SplineSet
228 729 m 256
 335.397877723 729 417 646.394491827 417 539 c 0
 417 487.43537415 399.833333333 443.43537415 365.5 407 c 0
 329.692307692 369 283.858974359 350 228 350 c 256
 172.807692308 350 127.307692308 369 91.5 407 c 0
 57.1666666667 443.43537415 40 487.43537415 40 539 c 0
 40 645.86599459 121.443076289 729 228 729 c 256
228 654 m 0
 167.593973746 654 127 601.530190783 127 538.5 c 0
 127 474.007823716 168.628896089 424 228 424 c 0
 289.740726619 424 330 477.857198515 330 540 c 0
 330 600.568677672 288.778793323 654 228 654 c 0
EndSplineSet
EndChar

StartChar: guillemotright
Encoding: 123 187 125
Width: 636
Flags: HW
LayerCount: 2
Back
Fore
SplineSet
597 234 m 1
 333 55 l 1
 333 147 l 1
 508 265 l 1
 333 387 l 1
 333 480 l 1
 597 291 l 1
 597 234 l 1
326 234 m 1
 61 55 l 1
 61 147 l 1
 236 265 l 1
 61 387 l 1
 61 480 l 1
 326 291 l 1
 326 234 l 1
EndSplineSet
EndChar

StartChar: questiondown
Encoding: 124 191 126
Width: 487
Flags: HW
LayerCount: 2
Back
Fore
SplineSet
241 -218 m 0
 118.250463542 -218 33 -139.157608236 33 -18 c 0
 33 45.9393939394 57 94.2727272727 105 127 c 0
 132.240390096 145.572993248 163.709856373 163.110940938 191.5 179.5 c 128
 229.070903357 201.657199416 259 238.718383656 259 292 c 1
 353 292 l 1
 353 208.518663171 325.174848748 162.005009438 268 127 c 0
 241.532660244 111.430976614 207.337824557 93.7168339419 182.5 73.5 c 0
 148.166666667 45.5542635659 131 13.3875968992 131 -23 c 0
 131 -82.4478221073 179.494148429 -126 244 -126 c 0
 286.75 -126 324.75 -107 358 -69 c 0
 367.333333333 -58.3333333333 375 -47.3333333333 381 -36 c 1
 455 -86 l 1
 421.789476026 -161.909769082 343.844202227 -218 241 -218 c 0
353 518 m 1
 353 389 l 1
 259 389 l 1
 259 518 l 1
 353 518 l 1
EndSplineSet
EndChar

StartChar: multiply
Encoding: 147 215 149
Width: 585
Flags: HW
LayerCount: 2
Back
Fore
SplineSet
292 412 m 1
 467 588 l 1
 518 535 l 1
 344 361 l 1
 517 187 l 1
 466 135 l 1
 291 308 l 1
 120 135 l 1
 66 187 l 1
 239 361 l 1
 65 534 l 1
 119 588 l 1
 292 412 l 1
EndSplineSet
EndChar

StartChar: divide
Encoding: 173 247 175
Width: 585
Flags: HW
LayerCount: 2
Back
Fore
SplineSet
292 473 m 256
 254.43497929 473 234 495.419128327 234 535 c 0
 234 576.333333333 253 597 291 597 c 128
 329 597 348 576.333333333 348 535 c 0
 348 497.208216514 328.550527526 473 292 473 c 256
51 324 m 1
 51 397 l 1
 533 397 l 1
 533 324 l 1
 51 324 l 1
292 124 m 256
 254.43497929 124 234 146.419128327 234 186 c 0
 234 227.333333333 253 248 291 248 c 128
 329 248 348 227.333333333 348 186 c 0
 348 148.208216514 328.550527526 124 292 124 c 256
EndSplineSet
EndChar

StartChar: dotlessi
Encoding: 180 305 182
Width: 248
Flags: HW
LayerCount: 2
Back
Fore
SplineSet
68 0 m 1
 68 536 l 1
 180 536 l 1
 180 0 l 1
 68 0 l 1
EndSplineSet
EndChar

StartChar: florin
Encoding: 184 402 186
Width: 554
Flags: HW
LayerCount: 2
Back
Fore
SplineSet
222 544 m 2
 222 660.68538643 279.815554982 758 393 758 c 0
 435.266666667 758 476.933333333 747 518 725 c 1
 494 641 l 1
 467.925925926 655.666666667 441.907407407 663 415.944444444 663 c 128
 356.740801311 663 335 611.338153998 335 547 c 2
 335 473 l 1
 472 473 l 1
 472 386 l 1
 335 386 l 1
 335 -16 l 2
 335 -67.7361111111 317.333333333 -110.902777778 282 -145.5 c 0
 247.617021277 -179.166666667 206.95035461 -196 160 -196 c 0
 108.666666667 -196 65.6666666667 -180.666666667 31 -150 c 1
 81 -74 l 1
 97.6111111111 -89.3333333333 117.597222222 -97 140.958333333 -97 c 128
 186.835849798 -97 222 -64.6124051909 222 -19 c 2
 222 386 l 1
 152 386 l 1
 152 473 l 1
 222 473 l 1
 222 544 l 2
EndSplineSet
EndChar

StartChar: uni0237
Encoding: 185 567 187
Width: 248
Flags: HW
LayerCount: 2
Back
Fore
SplineSet
180 -11 m 2
 180 -112.699756682 105.641749143 -196 5 -196 c 0
 -45.6666666667 -196 -89 -180.666666667 -125 -150 c 1
 -75 -74 l 1
 -55.8333333333 -89.3333333333 -34.875 -97 -12.125 -97 c 128
 32.9986618226 -97 68 -64.1370936952 68 -19 c 2
 68 536 l 1
 180 536 l 1
 180 -11 l 2
EndSplineSet
EndChar

StartChar: afii57929
Encoding: 186 700 188
Width: 551
Flags: HW
LayerCount: 2
Back
Fore
SplineSet
274 612 m 1
 203 635 l 1
 239 705 l 1
 234 748 l 1
 368 748 l 1
 274 612 l 1
EndSplineSet
EndChar

StartChar: circumflex
Encoding: 187 710 189
Width: 364
Flags: HW
LayerCount: 2
Back
Fore
SplineSet
35 650 m 1
 141 748 l 1
 222 748 l 1
 329 650 l 1
 268 622 l 1
 181 686 l 1
 94 622 l 1
 35 650 l 1
EndSplineSet
EndChar

StartChar: caron
Encoding: 188 711 190
Width: 364
Flags: HW
LayerCount: 2
Back
Fore
SplineSet
94 748 m 1
 181 683 l 1
 268 748 l 1
 329 719 l 1
 222 622 l 1
 141 622 l 1
 35 719 l 1
 94 748 l 1
EndSplineSet
EndChar

StartChar: uni02C9
Encoding: 189 713 191
Width: 421
Flags: HW
LayerCount: 2
Back
Fore
SplineSet
59 659 m 1
 59 731 l 1
 362 731 l 1
 362 659 l 1
 59 659 l 1
EndSplineSet
EndChar

StartChar: breve
Encoding: 190 728 192
Width: 319
Flags: HW
LayerCount: 2
Back
Fore
SplineSet
100 748 m 1
 100 712.461864974 125.157378375 675 159 675 c 128
 194.69753113 675 215.669499284 712.47465903 219 748 c 1
 282 748 l 1
 282 678.33797461 230.672559591 623 160 623 c 0
 88.3268885434 623 38 676.520755863 38 748 c 1
 100 748 l 1
EndSplineSet
EndChar

StartChar: dotaccent
Encoding: 191 729 193
Width: 204
Flags: HW
LayerCount: 2
Back
Fore
SplineSet
51 630 m 1
 51 748 l 1
 153 748 l 1
 153 630 l 1
 51 630 l 1
EndSplineSet
EndChar

StartChar: ring
Encoding: 192 730 194
Width: 263
Flags: HW
LayerCount: 2
Back
Fore
SplineSet
131.5 598 m 128
 80.5923908866 598 41 623.909707869 41 673.5 c 128
 41 723.084913397 80.623978512 748 131.5 748 c 128
 182.390425666 748 222 723.092438407 222 673.5 c 128
 222 623.917460773 182.393294741 598 131.5 598 c 128
173 673 m 256
 173 695.562457336 153.457514493 711 131 711 c 256
 108.793012359 711 90 695.634583574 90 673.5 c 128
 90 651.38738662 108.791502047 635 131 635 c 256
 153.458248006 635 173 650.43790942 173 673 c 256
EndSplineSet
EndChar

StartChar: ogonek
Encoding: 193 731 195
Width: 279
Flags: HW
LayerCount: 2
Back
Fore
SplineSet
212 0 m 1
 157.333333333 -34.3255813953 130 -64.4069767442 130 -90.2441860465 c 128
 130 -116.081395349 149.666666667 -130.333333333 189 -133 c 1
 164 -193 l 1
 130.666666667 -187 105.333333333 -176.333333333 88 -161 c 128
 70.6666666667 -145.666666667 62 -128.333333333 62 -109 c 0
 62 -65 100.666666667 -22 178 20 c 1
 212 0 l 1
EndSplineSet
EndChar

StartChar: tilde
Encoding: 194 732 196
Width: 436
Flags: HW
LayerCount: 2
Back
Fore
SplineSet
280.5 697 m 128
 312.545197247 697 336 719.087995641 336 748 c 1
 400 748 l 1
 400 726.358227721 387.14235844 699.247938429 375.5 682 c 128
 359.035683396 657.608419846 328.316907068 630 288.5 630 c 128
 252.39270931 630 232.186277909 638.787354329 210.5 651.5 c 0
 184.911764706 666.5 165.598039216 674 152.558823529 674 c 128
 128.593853787 674 117.204654456 663.952647796 108.5 650.5 c 0
 102.833333333 641.742424242 100 633.242424242 100 625 c 1
 37 625 l 1
 37 668.508022612 68.2260269072 708.590019219 94 727 c 128
 108 737 124 742 142 742 c 128
 190.664158136 742 214.662358482 720.668820759 247 704.5 c 128
 257 699.5 268.166666667 697 280.5 697 c 128
EndSplineSet
EndChar

StartChar: hungarumlaut
Encoding: 195 733 197
Width: 359
Flags: HW
LayerCount: 2
Back
Fore
SplineSet
94 612 m 1
 38 635 l 1
 90 748 l 1
 181 748 l 1
 94 612 l 1
246 612 m 1
 188 635 l 1
 241 748 l 1
 333 748 l 1
 246 612 l 1
EndSplineSet
EndChar

StartChar: uni030F
Encoding: 196 783 198
Width: 359
Flags: HW
LayerCount: 2
Back
Fore
SplineSet
178 748 m 1
 269 748 l 1
 322 635 l 1
 265 612 l 1
 178 748 l 1
27 748 m 1
 119 748 l 1
 171 635 l 1
 114 612 l 1
 27 748 l 1
EndSplineSet
EndChar

StartChar: uni0311
Encoding: 197 785 199
Width: 319
Flags: HW
LayerCount: 2
Back
Fore
SplineSet
219 623 m 1
 215.634939913 657.772287563 194.304089375 695 159 695 c 128
 125.755383454 695 100 657.774144609 100 623 c 1
 38 623 l 1
 38 693.50145494 90.0688311184 748 160 748 c 0
 228.930985996 748 282 691.678156327 282 623 c 1
 219 623 l 1
EndSplineSet
EndChar

StartChar: uni0964
Encoding: 198 2404 200
Width: 294
Flags: HW
LayerCount: 2
Back
Fore
SplineSet
109 627 m 1
 183 627 l 1
 183 0 l 1
 109 0 l 1
 109 627 l 1
EndSplineSet
EndChar

StartChar: uni0965
Encoding: 199 2405 201
Width: 490
Flags: HW
LayerCount: 2
Back
Fore
SplineSet
109 627 m 1
 183 627 l 1
 183 0 l 1
 109 0 l 1
 109 627 l 1
306 627 m 1
 380 627 l 1
 380 0 l 1
 306 0 l 1
 306 627 l 1
EndSplineSet
EndChar

StartChar: uni0B82
Encoding: 200 2946 202
Width: 0
GlyphClass: 4
Flags: HW
LayerCount: 2
Back
Fore
SplineSet
-250 676 m 128
 -250 742.067463018 -193.065354167 799 -127 799 c 256
 -60.6653309715 799 -4 743.004616771 -4 676.5 c 128
 -4 609.752844149 -59.7287631337 553 -126.5 553 c 128
 -192.980346933 553 -250 609.66723013 -250 676 c 128
-200 676 m 128
 -200 635.245250707 -167.105925312 602 -126.5 602 c 128
 -85.8941755422 602 -53 635.247615862 -53 676 c 256
 -53 717.020705343 -85.9803949273 750 -127 750 c 256
 -168.046757675 750 -200 717.019605073 -200 676 c 128
EndSplineSet
EndChar

StartChar: uni0B83
Encoding: 201 2947 203
Width: 803
GlyphClass: 2
Flags: HW
LayerCount: 2
Back
Fore
SplineSet
279 676 m 128
 279 742.067463018 335.934645833 799 402 799 c 256
 468.334669028 799 525 743.004616771 525 676.5 c 128
 525 610.019653067 468.33276987 553 402 553 c 256
 335.932536982 553 279 609.934645833 279 676 c 128
328 676 m 128
 328 634.979294657 360.980394927 602 402 602 c 256
 443.020705343 602 476 634.980394927 476 676 c 256
 476 717.020705343 443.019605073 750 402 750 c 256
 360.979294657 750 328 717.019605073 328 676 c 128
33 110.5 m 128
 33 176.980346933 89.6672301299 234 156 234 c 256
 222.067463018 234 279 177.065354167 279 111 c 256
 279 44.6653309715 223.004616771 -12 156.5 -12 c 128
 89.7528441493 -12 33 43.7287631337 33 110.5 c 128
82 110.5 m 128
 82 69.8941755422 115.247615862 37 156 37 c 256
 197.020705343 37 230 69.9803949273 230 111 c 256
 230 152.046757675 197.019605073 184 156 184 c 256
 115.245250707 184 82 151.105925312 82 110.5 c 128
525 110.5 m 128
 525 177.247155851 580.728763134 234 647.5 234 c 128
 713.980346933 234 771 177.33276987 771 111 c 256
 771 44.9325369822 714.065354167 -12 648 -12 c 256
 581.665330972 -12 525 43.9953832288 525 110.5 c 128
574 110.5 m 128
 574 69.8941755422 607.247615862 37 648 37 c 256
 689.020705343 37 722 69.9803949273 722 111 c 256
 722 152.046757675 689.019605073 184 648 184 c 256
 607.245250707 184 574 151.105925312 574 110.5 c 128
EndSplineSet
EndChar

StartChar: uni0B99
Encoding: 215 2969 217
Width: 897
GlyphClass: 2
Flags: HW
LayerCount: 2
Back
Fore
SplineSet
547 155 m 128
 547 210.307050351 501.872557281 246 446.239130435 246 c 128
 417.731884058 246 389.985507246 229.666666667 363 197 c 1
 363 98 l 1
 301 98 l 1
 301 443 l 1
 154 443 l 1
 154 0 l 1
 92 0 l 1
 92 492 l 1
 535 492 l 1
 535 443 l 1
 363 443 l 1
 363 264 l 1
 397.126984127 292.666666667 432.158730159 307 468.095238095 307 c 128
 504.031746032 307 536.333333333 292.666666667 565 264 c 128
 593.666666667 235.333333333 608 199.138888889 608 155.416666667 c 128
 608 111.694444444 591.666666667 76.2222222222 559 49 c 1
 744 49 l 1
 744 492 l 1
 805 492 l 1
 805 0 l 1
 301 0 l 1
 301 49 l 1
 436 49 l 2
 493.273969811 49 547 98.8448935894 547 155 c 128
EndSplineSet
EndChar

StartChar: uni0B9A
Encoding: 216 2970 218
Width: 567
GlyphClass: 2
Flags: HW
LayerCount: 2
Back
Fore
SplineSet
342 270 m 1
 342 443 l 1
 219 443 l 1
 219 270 l 1
 342 270 l 1
96 160 m 0
 96 93.6727401927 159.188599299 37 225.5 37 c 128
 286.451785515 37 342 76.9764916953 342 135 c 2
 342 221 l 1
 157 221 l 2
 122.567804326 221 96 194.431370471 96 160 c 0
34 160 m 0
 34 221.999172355 93.7580337666 270 157 270 c 1
 157 492 l 1
 551 492 l 1
 551 443 l 1
 403 443 l 1
 403 270 l 1
 551 270 l 1
 551 221 l 1
 403 221 l 1
 403 135 l 2
 403 47.0499239054 318.026006412 -12 226 -12 c 128
 175.333333333 -12 130.666666667 4.83333333333 92 38.5 c 128
 53.3333333333 72.1666666667 34 112.666666667 34 160 c 0
EndSplineSet
EndChar

StartChar: uni0B9E
Encoding: 218 2974 220
Width: 1100
GlyphClass: 2
Flags: HW
LayerCount: 2
Back
Fore
SplineSet
380 135 m 128
 380 83.5672313223 415.868966436 37 466 37 c 256
 515.866259015 37 552 84.5211812689 552 135.5 c 128
 552 186.493761757 515.874627296 234 466 234 c 256
 415.891816451 234 380 186.371559731 380 135 c 128
601 135.5 m 128
 601 57.1804172998 542.876409892 -12 466 -12 c 0
 398 -12 340 9.5 292 52.5 c 128
 244 95.5 220 147.666666667 220 209 c 0
 220 287 250 353.666666667 310 409 c 128
 370 464.333333333 442.333333333 492 527 492 c 2
 1007 492 l 1
 1007 443 l 1
 810 443 l 1
 810 246 l 1
 831.764705882 270.666666667 856.431372549 283 884 283 c 0
 980.964921812 283 1056 196.543866003 1056 98 c 0
 1056 -17.3333333333 1012.83333333 -115.833333333 926.5 -197.5 c 128
 840.166666667 -279.166666667 735.666666667 -320 613 -320 c 0
 463.666666667 -320 336.333333333 -269.5 231 -168.5 c 128
 125.666666667 -67.5 73 54.3333333333 73 197 c 0
 73 321.42962963 103.666666667 419.762962963 165 492 c 1
 208 461 l 1
 154.666666667 395.035087719 128 307.035087719 128 197 c 0
 128 68.3333333333 175.333333333 -41.6666666667 270 -133 c 128
 364.666666667 -224.333333333 479 -270 613 -270 c 0
 717.666666667 -270 807.333333333 -234 882 -162 c 128
 956.666666667 -90 994 -3.33333333333 994 98 c 0
 994 165.381104556 949.630425797 234 885.653846154 234 c 128
 856.756410256 234 831.538461538 215.333333333 810 178 c 1
 810 0 l 1
 749 0 l 1
 749 443 l 1
 527 443 l 2
 457.666666667 443 398.333333333 420.166666667 349 374.5 c 128
 299.666666667 328.833333333 275 273.666666667 275 209 c 0
 275 151.444444444 299.666666667 102.111111111 349 61 c 1
 337 82.3333333333 331 107 331 135 c 0
 331 213.433972402 388.516075926 283 466 283 c 256
 543.734373314 283 601 214.357096806 601 135.5 c 128
EndSplineSet
EndChar

StartChar: uni0BA3
Encoding: 220 2979 222
Width: 1303
GlyphClass: 2
Flags: HW
LayerCount: 2
Back
Fore
SplineSet
189 135 m 128
 189 86.7795489914 217.250646971 37 263 37 c 256
 308.481692777 37 337 87.7558721023 337 135.5 c 128
 337 183.272403049 308.503062093 234 263 234 c 256
 217.299847918 234 189 183.122980353 189 135 c 128
546 37 m 256
 589.91207878 37 607 134.979390838 607 186 c 0
 607 253.517241379 586.666666667 312.517241379 546 363 c 1
 504.666666667 313.4 484 258.066666667 484 197 c 0
 484 153 490 115.333333333 502 84 c 128
 514 52.6666666667 528.666666667 37 546 37 c 256
841 37 m 256
 885.320040152 37 902 135.544790307 902 187.5 c 0
 902 258.017241379 881.666666667 318.517241379 841 369 c 1
 799.666666667 319.4 779 262.066666667 779 197 c 0
 779 153 785 115.333333333 797 84 c 128
 809 52.6666666667 823.666666667 37 841 37 c 256
546 -12 m 256
 465.284849799 -12 423 107.168877904 423 197 c 0
 423 274.368421053 449.666666667 346.035087719 503 412 c 1
 468.873015873 440.666666667 418.841269841 455 352.904761905 455 c 128
 286.968253968 455 228.833333333 431 178.5 383 c 128
 128.166666667 335 103 277 103 209 c 0
 103 134.058807336 129.852700859 71.7180336499 171 37 c 1
 150.333333333 72.8222222222 140 108.277777778 140 143.366666667 c 128
 140 211.138125298 195.611831828 283 263 283 c 256
 334.669725571 283 386 210.196136126 386 135.5 c 128
 386 50.2456586781 318.519351701 -12 231 -12 c 128
 185 -12 144 9.5 108 52.5 c 128
 72 95.5 54 147.666666667 54 209 c 0
 54 290.333333333 84 359.833333333 144 417.5 c 128
 204 475.166666667 275.135802469 504 357.407407407 504 c 128
 439.679012346 504 502.543209877 485.666666667 546 449 c 1
 589.456790123 485.666666667 639.62345679 504 696.5 504 c 128
 753.37654321 504 803.543209877 485.666666667 847 449 c 1
 881.126984127 477.666666667 924.126984127 492 976 492 c 2
 1296 492 l 1
 1296 443 l 1
 1148 443 l 1
 1148 0 l 1
 1087 0 l 1
 1087 443 l 1
 976 443 l 2
 946.488888889 443 913.822222222 432.666666667 878 412 c 1
 935.333333333 345.111111111 964 273.444444444 964 197 c 0
 964 107.03729623 921.775619464 -12 841 -12 c 256
 763.251465244 -12 718 104.789353341 718 189 c 0
 718 292.754385965 744.666666667 367.087719298 798 412 c 1
 763.873015873 440.666666667 728.873015873 455 693 455 c 256
 659.434782609 455 622.768115942 438.666666667 583 406 c 1
 637.719122905 360.623166371 669 286.841576465 669 186.5 c 128
 669 103.954011304 622.843313219 -12 546 -12 c 256
EndSplineSet
EndChar

StartChar: uni0BA9
Encoding: 223 2985 225
Width: 993
GlyphClass: 2
Flags: HW
LayerCount: 2
Back
Fore
SplineSet
187 135 m 128
 187 83.5672313223 222.868966436 37 273 37 c 256
 322.866259015 37 359 84.5211812689 359 135.5 c 128
 359 186.493761757 322.874627296 234 273 234 c 256
 222.891816451 234 187 186.371559731 187 135 c 128
580 37 m 256
 624.44470968 37 642 135.435735336 642 187.5 c 0
 642 258.9 621.333333333 319.4 580 369 c 1
 539.333333333 320.2 519 262.866666667 519 197 c 0
 519 153 524.833333333 115.333333333 536.5 84 c 128
 548.166666667 52.6666666667 562.666666667 37 580 37 c 256
408 135.5 m 128
 408 57.1804172998 349.876409892 -12 273 -12 c 0
 211.666666667 -12 159.5 9.5 116.5 52.5 c 128
 73.5 95.5 52 147.666666667 52 209 c 0
 52 290.333333333 83 359.833333333 145 417.5 c 128
 207 475.166666667 282.729885057 504 372.189655172 504 c 128
 461.649425287 504 530.91954023 483.666666667 580 443 c 1
 619.768115942 475.666666667 669.101449275 492 728 492 c 2
 986 492 l 1
 986 443 l 1
 888 443 l 1
 888 0 l 1
 826 0 l 1
 826 443 l 1
 728 443 l 2
 682.777777778 443 645.777777778 430.666666667 617 406 c 1
 671.719122905 360.623166371 703 286.841576465 703 186.5 c 128
 703 103.656497469 657.774459089 -12 580.5 -12 c 128
 503.611039982 -12 457 103.404967673 457 185.5 c 0
 457 278.333333333 485.666666667 349.833333333 543 400 c 1
 499.543209877 436.666666667 441.345679012 455 368.407407407 455 c 128
 295.469135802 455 232.666666667 431 180 383 c 128
 127.333333333 335 101 277 101 209 c 0
 101 155.405797101 117.333333333 114.405797101 150 86 c 1
 142 100.666666667 138 117 138 135 c 0
 138 213.433972402 195.516075926 283 273 283 c 256
 350.734373314 283 408 214.357096806 408 135.5 c 128
EndSplineSet
EndChar

StartChar: uni0BB1
Encoding: 228 2993 230
Width: 697
GlyphClass: 2
Flags: HW
LayerCount: 2
Back
Fore
SplineSet
328 443 m 1
 346.692824265 480.38564853 394.547195789 504 451 504 c 0
 500.333333333 504 542.333333333 477.5 577 424.5 c 128
 611.666666667 371.5 629 308 629 234 c 0
 629 135.333333333 603.833333333 51.1666666667 553.5 -18.5 c 128
 503.166666667 -88.1666666667 442.333333333 -123 371 -123 c 2
 175 -123 l 2
 147.666666667 -123 128.666666667 -136.666666667 118 -164 c 128
 107.333333333 -191.333333333 109.666666667 -218.666666667 125 -246 c 1
 76 -270 l 1
 60 -242 52 -217.666666667 52 -197 c 0
 52 -130.399098145 108.082673515 -74 175 -74 c 2
 371 -74 l 2
 425 -74 471.333333333 -44 510 16 c 128
 548.666666667 76 568 148.666666667 568 234 c 0
 568 295.333333333 557.166666667 347.5 535.5 390.5 c 128
 513.833333333 433.5 488.5 455 459.5 455 c 128
 406.65609629 455 359 419.46574727 359 369 c 2
 359 0 l 1
 297 0 l 1
 297 369 l 2
 297 413.500951164 266.55432865 455 223.5 455 c 128
 180.948985624 455 150 412.655013335 150 369 c 2
 150 0 l 1
 89 0 l 1
 89 369 l 2
 89 444.452901016 148.549024456 504 224 504 c 0
 272.419265763 504 312.081752587 477.285455966 328 443 c 1
EndSplineSet
EndChar

StartChar: uni0BB3
Encoding: 230 2995 232
Width: 924
GlyphClass: 2
Flags: HW
LayerCount: 2
Back
Fore
SplineSet
204 145 m 128
 204 99.0724673019 233.720470277 49 278 49 c 256
 322.490259196 49 352 99.22459744 352 145.5 c 128
 352 192.253952113 322.675469034 234 278 234 c 256
 233.592461454 234 204 191.284696593 204 145 c 128
290 504 m 0
 379.081439573 504 453.867401284 463.344882393 487 406 c 1
 487 492 l 1
 917 492 l 1
 917 443 l 1
 782 443 l 1
 782 0 l 1
 720 0 l 1
 720 443 l 1
 536 443 l 1
 536 0 l 1
 475 0 l 1
 475 246 l 2
 475 303.333333333 456.833333333 352.5 420.5 393.5 c 128
 384.166666667 434.5 340.666666667 455 290 455 c 256
 239.333333333 455 196 433.5 160 390.5 c 128
 124 347.5 106 295.333333333 106 234 c 0
 106 163.641095946 137.973275757 107.993571516 179 74 c 1
 163 102 155 126.666666667 155 148 c 0
 155 219.853552552 207.415906726 283 277.5 283 c 128
 349.51251454 283 401 217.985558951 401 143 c 128
 401 102.333333333 386.666666667 66.3333333333 358 35 c 128
 329.333333333 3.66666666667 294.333333333 -12 253 -12 c 0
 199 -12 152.833333333 12 114.5 60 c 128
 76.1666666667 108 57 167.666666667 57 239 c 128
 57 310.333333333 79.6666666667 372.333333333 125 425 c 128
 170.333333333 477.666666667 225.333333333 504 290 504 c 0
EndSplineSet
EndChar

StartChar: uni0BB4
Encoding: 231 2996 233
Width: 824
GlyphClass: 2
Flags: HW
LayerCount: 2
Back
Fore
SplineSet
522 455 m 0
 479.004894751 455 449 412.935322932 449 369 c 2
 449 49 l 1
 621 49 l 2
 677.12450148 49 707 122.827930596 707 184 c 0
 707 258.666666667 689 322.5 653 375.5 c 128
 617 428.5 573.333333333 455 522 455 c 0
387 369 m 2
 387 443.923578215 447.400666085 504 522 504 c 0
 590 504 648 472.833333333 696 410.5 c 128
 744 348.166666667 768 272.666666667 768 184 c 0
 768 92.3256984206 708.822220309 0 621 0 c 2
 449 0 l 1
 457.456519278 -51.9471898527 501.24206917 -98 559 -98 c 2
 707 -98 l 1
 707 -148 l 1
 608 -148 l 2
 535.909713409 -148 486.796020192 -189.146530988 457.5 -240 c 128
 426.370798432 -294.035595174 357.931303663 -344 277 -344 c 0
 226.333333333 -344 182.833333333 -329.666666667 146.5 -301 c 128
 110.166666667 -272.333333333 92 -239.5 92 -202.5 c 128
 92 -131.912206824 146.046384078 -74 215 -74 c 2
 313 -74 l 1
 313 -123 l 1
 215 -123 l 2
 175.832893627 -123 154 -160.030848396 154 -202 c 128
 154 -252.596035241 216.500877829 -295 268.5 -295 c 0
 324.261904762 -295 363.761904762 -274.666666667 387 -234 c 0
 410.375 -191.375 443.375 -158.375 486 -135 c 1
 434.876486256 -116.409631366 387 -65.7008503217 387 0 c 1
 92 0 l 1
 92 492 l 1
 154 492 l 1
 154 49 l 1
 387 49 l 1
 387 369 l 2
EndSplineSet
EndChar

StartChar: uni0BB8
Encoding: 235 3000 237
Width: 1100
GlyphClass: 2
Flags: HW
LayerCount: 2
Back
Fore
SplineSet
215 135 m 128
 215 86.7795489914 243.250646971 37 289 37 c 256
 334.481692777 37 363 87.7558721023 363 135.5 c 128
 363 183.272403049 334.503062093 234 289 234 c 256
 243.299847918 234 215 183.122980353 215 135 c 128
486 307 m 2
 486 394.253596032 390.579969713 449 298.5 449 c 128
 246.166666667 449 200.666666667 426.833333333 162 382.5 c 128
 123.333333333 338.166666667 104 284.333333333 104 221 c 0
 104 149.496994443 133.084850105 87.4206764089 178 61 c 1
 170 83.6666666667 166 108.333333333 166 135 c 0
 166 209.569097451 216.627671178 283 288.5 283 c 128
 360.611038108 283 412 210.496565659 412 135.5 c 128
 412 57.1804172998 353.876409892 -12 277 -12 c 0
 215.666666667 -12 163.333333333 10.6666666667 120 56 c 128
 76.6666666667 101.333333333 55 156.333333333 55 221 c 0
 55 299 79 365.666666667 127 421 c 128
 175 476.333333333 233 504 301 504 c 0
 392.588273184 504 470.244903865 464.422281772 504 406 c 1
 517.543857101 458.944168667 561.148419957 504 625.5 504 c 128
 655.833333333 504 683.166666667 490.833333333 707.5 464.5 c 128
 731.833333333 438.166666667 744 406.333333333 744 369 c 2
 744 135 l 2
 744 83.5672313223 779.868966436 37 830 37 c 0
 919.65739178 37 977 146.488364968 977 240.5 c 128
 977 351.988121271 926.125835978 437.242937065 854 479 c 1
 897 529 l 1
 982.025413514 479.292835176 1039 373.221301219 1039 239 c 128
 1039 172.333333333 1018.5 113.833333333 977.5 63.5 c 128
 936.5 13.1666666667 887.333333333 -12 830 -12 c 0
 749.344027313 -12 682 54.3202672098 682 135 c 2
 682 369 l 2
 682 409.975614226 658.429964697 449 618.5 449 c 128
 574.389762768 449 547 391.688830727 547 344 c 2
 547 0 l 1
 486 0 l 1
 486 307 l 2
EndSplineSet
EndChar

StartChar: uni0BB9
Encoding: 236 3001 238
Width: 1255
GlyphClass: 2
Flags: HW
LayerCount: 2
Back
Fore
SplineSet
205 135 m 128
 205 83.8396934401 241.805853397 37 291.5 37 c 128
 340.931151055 37 377 84.8130972326 377 135.5 c 128
 377 186.493761757 340.874627296 234 291 234 c 256
 240.891816451 234 205 186.371559731 205 135 c 128
660 381 m 2
 660 449.045743443 717.609035232 504 786.760869565 504 c 128
 822.601449275 504 854.014492754 487.666666667 881 455 c 1
 909.405797101 487.666666667 949.673913043 504 1001.80434783 504 c 128
 1053.93478261 504 1098.16666667 478.833333333 1134.5 428.5 c 128
 1170.83333333 378.166666667 1189 317.333333333 1189 246 c 0
 1189 144.666666667 1162.5 57.8333333333 1109.5 -14.5 c 128
 1056.5 -86.8333333333 992.666666667 -123 918 -123 c 2
 205 -123 l 2
 167.224714331 -123 132 -154.970895167 132 -191 c 128
 132 -207.666666667 140 -230 156 -258 c 1
 107 -295 l 1
 82.3333333333 -266.222222222 70 -234.361111111 70 -199.416666667 c 128
 70 -128.230150382 132.91539086 -74 205 -74 c 2
 918 -74 l 2
 975.333333333 -74 1024.5 -42.8333333333 1065.5 19.5 c 128
 1106.5 81.8333333333 1127 157.333333333 1127 246 c 0
 1127 303.333333333 1115 352.5 1091 393.5 c 128
 1067 434.5 1039.66666667 455 1009 455 c 128
 956.978622725 455 906 428.890646385 906 381 c 2
 906 0 l 1
 845 0 l 1
 845 381 l 2
 845 419.146345926 819.84230794 455 783 455 c 256
 746.16923054 455 722 419.108624635 722 381 c 2
 722 0 l 1
 451 0 l 1
 451 37 l 1
 492.333333333 86.6 513 146.333333333 513 216.2 c 128
 513 347.268998687 442.479756269 455 315 455 c 128
 184.227543269 455 113 345.730517735 113 209 c 0
 113 150 135.666666667 100.666666667 181 61 c 1
 164.333333333 90.1666666667 156 114.833333333 156 135 c 0
 156 213.161080312 214.457595757 283 291.5 283 c 128
 368.79332992 283 427 214.084392338 427 135.5 c 128
 427 51.8432743 351.768812302 -12 267 -12 c 0
 209.666666667 -12 160.5 9.5 119.5 52.5 c 128
 78.5 95.5 58 147.666666667 58 209 c 0
 58 377.528332237 152.281807264 504 316 504 c 256
 479.689616016 504 574 377.482251827 574 209 c 0
 574 159.5 557.666666667 106.166666667 525 49 c 1
 660 49 l 1
 660 381 l 2
EndSplineSet
EndChar

StartChar: uni0BC0
Encoding: 239 3008 241
Width: 553
GlyphClass: 2
Flags: HW
LayerCount: 2
Back
Fore
SplineSet
203 492 m 1
 144.364713834 525.828049711 92 590.848089591 92 676 c 0
 92 723.333333333 111.333333333 763.833333333 150 797.5 c 128
 188.666666667 831.166666667 233.333333333 848 284 848 c 128
 371.170430643 848 461 797.794513951 461 716.5 c 128
 461 647.550638049 405.916740931 590 338 590 c 256
 271.932536982 590 215 646.934645833 215 713 c 0
 215 753.045442587 236.888078574 783.675870498 264 799 c 1
 205.647456607 788.058898114 154 740.085301122 154 673.5 c 128
 154 642.5 166 610.333333333 190 577 c 128
 214 543.666666667 247 515.333333333 289 492 c 1
 203 492 l 1
277 713 m 128
 277 674.874864088 301.160402355 639 338 639 c 256
 374.833199246 639 400 674.870038766 400 713 c 256
 400 751.146345926 374.84230794 787 338 787 c 256
 301.16923054 787 277 751.108624635 277 713 c 128
EndSplineSet
EndChar

StartChar: uni0BC1
Encoding: 240 3009 242
Width: 532
GlyphClass: 4
Flags: HW
LayerCount: 2
Back
Fore
SplineSet
333.5 172 m 128
 245.815833757 172 173 244.465230246 173 332 c 2
 173 443 l 1
 -208 443 l 1
 -208 492 l 1
 333 492 l 2
 420.270534688 492 493 419.267967392 493 332 c 256
 493 244.463100085 421.207662284 172 333.5 172 c 128
235 332 m 2
 235 275.085369829 277.690531158 221 333.5 221 c 128
 389.566359041 221 431 274.176948014 431 331.5 c 128
 431 389.085912736 389.496569196 443 333 443 c 2
 235 443 l 1
 235 332 l 2
EndSplineSet
EndChar

StartChar: uni0BC2
Encoding: 241 3010 243
Width: 776
GlyphClass: 4
Flags: HW
LayerCount: 2
Back
Fore
SplineSet
345 246 m 0
 230.384009795 246 147.956720807 341.245248761 130 443 c 1
 -208 443 l 1
 -208 492 l 1
 124 492 l 1
 124 541 l 2
 124 622.333333333 152.833333333 691.833333333 210.5 749.5 c 128
 268.166666667 807.166666667 339.5 836 424.5 836 c 128
 509.5 836 583.166666667 798.666666667 645.5 724 c 128
 707.833333333 649.333333333 739 557.833333333 739 449.5 c 128
 739 341.166666667 699.5 247.333333333 620.5 168 c 128
 541.5 88.6666666667 445.666666667 49 333 49 c 0
 208.66871557 49 110.017396579 101.179472037 50 172 c 1
 87 209 l 1
 127.273551387 139.192510929 221.922007255 98 333 98 c 0
 428.333333333 98 509.5 132.833333333 576.5 202.5 c 128
 643.5 272.166666667 677 354.666666667 677 450 c 128
 677 545.333333333 651.833333333 625.333333333 601.5 690 c 128
 551.166666667 754.666666667 492 787 424 787 c 128
 356 787 299.333333333 763 254 715 c 128
 208.666666667 667 186 609 186 541 c 2
 186 492 l 1
 345 492 l 2
 416.539840213 492 481 438.63659558 481 369 c 256
 481 299.3771793 416.517821218 246 345 246 c 0
192 443 m 1
 204.775860862 368.667718623 262.886755428 295 345 295 c 0
 386.020705343 295 419 327.980394927 419 369 c 256
 419 410.020705343 386.019605073 443 345 443 c 2
 192 443 l 1
EndSplineSet
EndChar

StartChar: uni0BD0
Encoding: 249 3024 251
Width: 1023
GlyphClass: 2
Flags: HW
LayerCount: 2
Back
Fore
SplineSet
329.75 22 m 128
 346.268699342 22 356 10.6982734491 356 -4 c 2
 356 -6 l 2
 356 -18.522570611 346.909107675 -30 332 -30 c 128
 318.161524331 -30 308 -17.9468867694 308 -4 c 128
 308 8.31382936901 319.264753914 22 329.75 22 c 128
369 -164 m 1
 385 -140 385.666666667 -118.666666667 371 -100 c 0
 355.666666667 -83.3333333333 340.833333333 -82.5 326.5 -97.5 c 128
 312.166666667 -112.5 311 -134.333333333 323 -163 c 1
 369 -164 l 1
554 -49 m 1
 491.543369546 -26.2884980168 431 31.7713951381 431 111 c 0
 431 158.333333333 450.333333333 198.833333333 489 232.5 c 128
 527.666666667 266.166666667 574 283 628 283 c 1
 595.333333333 243.231884058 579 202.231884058 579 160 c 256
 579 116.518109772 620.222293363 86 665 86 c 256
 714.62316802 86 751 133.414332651 751 184 c 0
 751 262 718.666666667 328.666666667 654 384 c 128
 589.333333333 439.333333333 511.833333333 467 421.5 467 c 128
 331.166666667 467 255 441.833333333 193 391.5 c 128
 131 341.166666667 100 280.333333333 100 209 c 0
 100 182.333333333 104 157.666666667 112 135 c 1
 112 208.210405356 163.508411365 277 234.5 277 c 128
 303.314352003 277 358 215.378936891 358 145.5 c 128
 358 75.9628774916 303.381489759 12 235 12 c 0
 184.333333333 12 140.833333333 31.3333333333 104.5 70 c 128
 68.1666666667 108.666666667 50 155 50 209 c 0
 50 294.333333333 86.1666666667 366.833333333 158.5 426.5 c 128
 230.833333333 486.166666667 319.5 516 424.5 516 c 128
 529.5 516 620.5 483.666666667 697.5 419 c 128
 774.5 354.333333333 813 276 813 184 c 0
 813 104.118475211 746.939611292 37 667.5 37 c 128
 593.36132002 37 530 88.2507385981 530 160 c 0
 530 173.511111111 540.333333333 198.177777778 561 234 c 1
 521.11018784 211.359836341 481 167.328443858 481 111 c 0
 481 28.5101281656 566.621419041 -25 653 -25 c 2
 788 -25 l 1
 788 -74 l 1
 607 -74 l 2
 593.666666667 -74 577.666666667 -82 559 -98 c 128
 540.333333333 -114 525.666666667 -135.666666667 515 -163 c 0
 471 -278.333333333 389 -333.666666667 269 -329 c 0
 114.333333333 -323 35.3333333333 -265.333333333 32 -156 c 0
 29.421712153 -94.1210916728 62.0285305543 -33 123 -33 c 0
 141 -33 156 -39.6666666667 168 -53 c 0
 183.333333333 -72.3333333333 191 -109.666666667 191 -165 c 1
 223 -165.666666667 253.333333333 -165.666666667 282 -165 c 1
 274.666666667 -122.333333333 282.166666667 -90.6666666667 304.5 -70 c 128
 326.833333333 -49.3333333333 353.666666667 -48 385 -66 c 0
 408.333333333 -79.3333333333 418.333333333 -102.833333333 415 -136.5 c 128
 411.666666667 -170.166666667 405 -191 395 -199 c 1
 148 -199 l 1
 158 -143 154.166666667 -106 136.5 -88 c 128
 118.833333333 -70 103 -69.3333333333 89 -86 c 128
 75 -102.666666667 69.6666666667 -132 73 -174 c 0
 78.3333333333 -244.666666667 143 -283.333333333 267 -290 c 0
 357.666666667 -294.666666667 424 -251.666666667 466 -161 c 1
 486 -105 515.333333333 -67.6666666667 554 -49 c 1
235 221 m 256
 196.892699978 221 173 185.626950375 173 145.5 c 128
 173 105.940491904 197.100250867 61 235 61 c 256
 272.85936703 61 296 105.995536852 296 145.5 c 128
 296 185.614687478 273.099631831 221 235 221 c 256
EndSplineSet
EndChar

StartChar: uni0BD7
Encoding: 250 3031 252
Width: 924
GlyphClass: 2
Flags: HW
LayerCount: 2
Back
Fore
SplineSet
204 145 m 128
 204 99.0724673019 233.720470277 49 278 49 c 256
 322.490259196 49 352 99.22459744 352 145.5 c 128
 352 192.253952113 322.675469034 234 278 234 c 256
 233.592461454 234 204 191.284696593 204 145 c 128
290 504 m 0
 379.081439573 504 453.867401284 463.344882393 487 406 c 1
 487 492 l 1
 917 492 l 1
 917 443 l 1
 782 443 l 1
 782 0 l 1
 720 0 l 1
 720 443 l 1
 536 443 l 1
 536 0 l 1
 475 0 l 1
 475 246 l 2
 475 303.333333333 456.833333333 352.5 420.5 393.5 c 128
 384.166666667 434.5 340.666666667 455 290 455 c 256
 239.333333333 455 196 433.5 160 390.5 c 128
 124 347.5 106 295.333333333 106 234 c 0
 106 163.641095946 137.973275757 107.993571516 179 74 c 1
 163 102 155 126.666666667 155 148 c 0
 155 219.853552552 207.415906726 283 277.5 283 c 128
 349.51251454 283 401 217.985558951 401 143 c 128
 401 102.333333333 386.666666667 66.3333333333 358 35 c 128
 329.333333333 3.66666666667 294.333333333 -12 253 -12 c 0
 199 -12 152.833333333 12 114.5 60 c 128
 76.1666666667 108 57 167.666666667 57 239 c 128
 57 310.333333333 79.6666666667 372.333333333 125 425 c 128
 170.333333333 477.666666667 225.333333333 504 290 504 c 0
EndSplineSet
EndChar

StartChar: uni0BE6
Encoding: 251 3046 253
Width: 585
GlyphClass: 2
Flags: HW
LayerCount: 2
Back
Fore
SplineSet
123 544.5 m 128
 165 607.5 221.666666667 639 293 639 c 256
 364.333333333 639 420.833333333 607.5 462.5 544.5 c 128
 504.166666667 481.5 525 407.166666667 525 321.5 c 128
 525 235.833333333 504.333333333 160.833333333 463 96.5 c 128
 421.666666667 32.1666666667 365 0 293 0 c 256
 221 0 164.166666667 32.1666666667 122.5 96.5 c 128
 80.8333333333 160.833333333 60 235.833333333 60 321.5 c 128
 60 407.166666667 81 481.5 123 544.5 c 128
167.5 142 m 128
 195.833333333 90.6666666667 237.5 65 292.5 65 c 128
 347.5 65 389.333333333 90.6666666667 418 142 c 128
 446.666666667 193.333333333 461 253.166666667 461 321.5 c 128
 461 389.833333333 446.5 449 417.5 499 c 128
 388.5 549 347 574 293 574 c 256
 239 574 197.5 549 168.5 499 c 128
 139.5 449 125 389.833333333 125 321.5 c 128
 125 253.166666667 139.166666667 193.333333333 167.5 142 c 128
EndSplineSet
EndChar

StartChar: uni0BE7
Encoding: 252 3047 254
Width: 700
GlyphClass: 2
Flags: HW
LayerCount: 2
Back
Fore
SplineSet
369 270 m 1
 369 443 l 1
 246 443 l 1
 246 270 l 1
 369 270 l 1
123 160 m 0
 123 93.6727401927 186.188599299 37 252.5 37 c 128
 313.451785515 37 369 76.9764916953 369 135 c 2
 369 221 l 1
 184 221 l 2
 149.567804326 221 123 194.431370471 123 160 c 0
639 133 m 128
 639 59.6377685505 587.382137409 -12 516 -12 c 0
 498 -12 477.666666667 -8 455 0 c 1
 467 49 l 1
 502.654200566 29.5522542366 538.862762466 31.9455617507 560 66 c 128
 572 85.3333333333 578 107.666666667 578 133 c 128
 578 179.362789911 548.441230192 221 504 221 c 2
 430 221 l 1
 430 135 l 2
 430 47.0499239054 345.026006412 -12 253 -12 c 128
 202.333333333 -12 157.666666667 4.83333333333 119 38.5 c 128
 80.3333333333 72.1666666667 61 112.666666667 61 160 c 0
 61 221.999172355 120.758033767 270 184 270 c 1
 184 492 l 1
 565 492 l 1
 565 443 l 1
 430 443 l 1
 430 270 l 1
 504 270 l 2
 580.505030148 270 639 210.102991891 639 133 c 128
EndSplineSet
EndChar

StartChar: uni0BE8
Encoding: 253 3048 255
Width: 725
GlyphClass: 2
Flags: HW
LayerCount: 2
Back
Fore
SplineSet
111 346.5 m 128
 111 310.000814579 136.26520886 283 172 283 c 256
 207.718681793 283 234 309.996819045 234 346.5 c 128
 234 382.692089621 207.644376201 418 172 418 c 256
 136.348463258 418 111 382.672297357 111 346.5 c 128
172.5 234 m 128
 107.373021362 234 61 293.551590122 61 361.5 c 128
 61 398.5 81.5 431.5 122.5 460.5 c 128
 163.5 489.5 215.333333333 504 278 504 c 128
 340.666666667 504 396 484.666666667 444 446 c 128
 492 407.333333333 516 361.833333333 516 309.5 c 128
 516 201.84629868 416.46868244 123 307 123 c 2
 172 123 l 2
 147.765295889 123 123 108.674550242 123 86 c 256
 123 63.3390139977 147.782334576 49 172 49 c 2
 664 49 l 1
 664 0 l 1
 172 0 l 2
 117.932685278 0 61 34.1600664138 61 86 c 256
 61 137.82440903 117.965318067 172 172 172 c 2
 307 172 l 2
 386.278613141 172 455 230.755704267 455 309.5 c 128
 455 348.5 437 382.5 401 411.5 c 128
 365 440.5 321.333333333 455 270 455 c 2
 197 455 l 1
 243.197639312 438.416232042 283 398.976200659 283 339.5 c 128
 283 283.502048359 229.927800128 234 172.5 234 c 128
EndSplineSet
EndChar

StartChar: uni0BE9
Encoding: 254 3049 256
Width: 780
GlyphClass: 2
Flags: HW
LayerCount: 2
Back
Fore
SplineSet
516 155 m 128
 516 210.030914927 472.01602506 246 416.804347826 246 c 128
 388.673913043 246 360.405797101 229.666666667 332 197 c 1
 332 98 l 1
 270 98 l 1
 270 443 l 1
 123 443 l 1
 123 0 l 1
 61 0 l 1
 61 492 l 1
 504 492 l 1
 504 443 l 1
 332 443 l 1
 332 264 l 1
 356.666666667 288.666666667 388.166666667 301 426.5 301 c 128
 464.833333333 301 499.666666667 287.333333333 531 260 c 128
 562.333333333 232.666666667 578 197.768115942 578 155.304347826 c 128
 578 112.84057971 561.666666667 77.4057971014 529 49 c 1
 719 49 l 1
 719 0 l 1
 270 0 l 1
 270 49 l 1
 406 49 l 2
 463.313223081 49 516 98.8350823316 516 155 c 128
EndSplineSet
EndChar

StartChar: uni0BEA
Encoding: 255 3050 257
Width: 663
GlyphClass: 2
Flags: HW
LayerCount: 2
Back
Fore
SplineSet
369 270 m 1
 369 443 l 1
 246 443 l 1
 246 270 l 1
 369 270 l 1
123 160 m 0
 123 93.6727401927 186.188599299 37 252.5 37 c 128
 313.451785515 37 369 76.9764916953 369 135 c 2
 369 221 l 1
 184 221 l 2
 149.567804326 221 123 194.431370471 123 160 c 0
61 160 m 0
 61 221.999172355 120.758033767 270 184 270 c 1
 184 492 l 1
 578 492 l 1
 578 443 l 1
 430 443 l 1
 430 270 l 1
 541 270 l 1
 541 332 l 1
 602 332 l 1
 602 221 l 1
 430 221 l 1
 430 135 l 2
 430 47.0499239054 345.026006412 -12 253 -12 c 128
 202.333333333 -12 157.666666667 4.83333333333 119 38.5 c 128
 80.3333333333 72.1666666667 61 112.666666667 61 160 c 0
EndSplineSet
EndChar

StartChar: uni0BEB
Encoding: 256 3051 258
Width: 897
GlyphClass: 2
Flags: HW
LayerCount: 2
Back
Fore
SplineSet
774 123 m 0
 774 190.791518349 726.68135381 258 662.239130435 258 c 128
 633.065217391 258 604.985507246 241.666666667 578 209 c 1
 578 0 l 1
 516 0 l 1
 516 443 l 1
 369 443 l 1
 369 0 l 1
 307 0 l 1
 307 492 l 1
 676 492 l 1
 676 443 l 1
 578 443 l 1
 578 270 l 1
 591.789497051 293.442144986 625.887576648 307 664 307 c 0
 760.458054228 307 836 220.73895892 836 123 c 0
 836 14.3333333333 797.666666667 -78.3333333333 721 -155 c 128
 644.333333333 -231.666666667 552.666666667 -270 446 -270 c 128
 339.333333333 -270 248.5 -222.666666667 173.5 -128 c 128
 98.5 -33.3333333333 61 83.5 61 222.5 c 128
 61 361.5 101.833333333 482.166666667 183.5 584.5 c 128
 265.166666667 686.833333333 363.666666667 738 479 738 c 0
 574.333333333 738 655.666666667 706.833333333 723 644.5 c 128
 790.333333333 582.166666667 824 506.666666667 824 418 c 1
 762 418 l 1
 762 492.666666667 734.333333333 556.333333333 679 609 c 128
 623.666666667 661.666666667 557 688 479 688 c 0
 379 688 293.666666667 641.833333333 223 549.5 c 128
 152.333333333 457.166666667 117 348.166666667 117 222.5 c 128
 117 96.8333333333 148.666666667 -8.5 212 -93.5 c 128
 275.333333333 -178.5 352.666666667 -221 444 -221 c 128
 535.333333333 -221 613.166666667 -187.5 677.5 -120.5 c 128
 741.833333333 -53.5 774 27.6666666667 774 123 c 0
EndSplineSet
EndChar

StartChar: uni0BEC
Encoding: 257 3052 259
Width: 829
GlyphClass: 2
Flags: HW
LayerCount: 2
Back
Fore
SplineSet
246 270 m 1
 369 270 l 1
 369 443 l 1
 246 443 l 1
 246 270 l 1
123 160 m 0
 123 93.6727401927 186.188599299 37 252.5 37 c 128
 313.451785515 37 369 76.9764916953 369 135 c 2
 369 221 l 1
 184 221 l 2
 149.567804326 221 123 194.431370471 123 160 c 0
61 160 m 0
 61 221.999172355 120.758033767 270 184 270 c 1
 184 492 l 1
 602 492 l 1
 602 443 l 1
 430 443 l 1
 430 270 l 1
 768 270 l 1
 768 221 l 1
 701 221 l 1
 701 0 l 1
 639 0 l 1
 639 221 l 1
 565 221 l 1
 565 0 l 1
 504 0 l 1
 504 221 l 1
 430 221 l 1
 430 135 l 2
 430 47.0499239054 345.026006412 -12 253 -12 c 128
 202.333333333 -12 157.666666667 4.83333333333 119 38.5 c 128
 80.3333333333 72.1666666667 61 112.666666667 61 160 c 0
EndSplineSet
EndChar

StartChar: uni0BED
Encoding: 258 3053 260
Width: 768
GlyphClass: 2
Flags: HW
LayerCount: 2
Back
Fore
SplineSet
221 132.5 m 128
 221 86.1416074382 250.47620519 37 295 37 c 256
 339.26740673 37 369 87.0986719942 369 133 c 128
 369 179.362789911 339.441230192 221 295 221 c 256
 250.337999565 221 221 179.23060143 221 132.5 c 128
430 133 m 128
 430 50.9701894392 354.191666826 -12 270 -12 c 0
 212.666666667 -12 163.5 10.6666666667 122.5 56 c 128
 81.5 101.333333333 61 158.833333333 61 228.5 c 128
 61 298.166666667 86.3333333333 359.5 137 412.5 c 128
 187.666666667 465.5 248.666666667 492 320 492 c 2
 707 492 l 1
 707 443 l 1
 627 443 l 1
 627 0 l 1
 565 0 l 1
 565 443 l 1
 320 443 l 2
 262.666666667 443 213.5 421.333333333 172.5 378 c 128
 131.5 334.666666667 111 282.333333333 111 221 c 0
 111 140.909114825 154.776157148 79.6482590035 209 49 c 1
 184.333333333 77.7777777778 172 108.805555556 172 142.083333333 c 128
 172 209.845025003 229.569130137 270 298.5 270 c 128
 372.073455763 270 430 208.201223107 430 133 c 128
EndSplineSet
EndChar

StartChar: uni0BEE
Encoding: 259 3054 261
Width: 1020
GlyphClass: 2
Flags: HW
LayerCount: 2
Back
Fore
SplineSet
338 186 m 1
 294.401270521 201.854083447 264 253.450413328 264 313 c 0
 264 365.666666667 288.666666667 410.666666667 338 448 c 128
 387.333333333 485.333333333 448.833333333 504 522.5 504 c 128
 596.166666667 504 660.666666667 480 716 432 c 128
 771.333333333 384 799 326 799 258 c 0
 799 232.666666667 795 208 787 184 c 1
 897 184 l 1
 897 492 l 1
 959 492 l 1
 959 -61 l 1
 897 -61 l 1
 897 135 l 1
 774 135 l 1
 727.313346666 8.81985585392 593.092733716 -86 424 -86 c 0
 308.916666667 -86 212.583333333 -53.3333333333 135 12 c 0
 85.6666666667 53.1111111111 61 90.1111111111 61 123 c 0
 61 159.83076946 96.8913753647 184 135 184 c 2
 338 186 l 1
320 313 m 128
 320 240.375295355 386.068368406 184 460 184 c 128
 534.352357607 184 596 237.366108045 596 310.5 c 128
 596 383.544174984 534.3937224 443 460 443 c 128
 386.041940032 443 320 385.622010557 320 313 c 128
148 135 m 2
 136.207659983 135 123 123.687805929 123 112.5 c 0
 123 102.217948718 131.333333333 89.3846153846 148 74 c 0
 209.633293694 12.3667063055 303.086750434 -37 418 -37 c 0
 556.132106577 -37 676.15065153 33.664291707 713 135 c 1
 148 135 l 2
559 467 m 1
 604.070766727 434.507121662 652 379.064102673 652 310.5 c 0
 652 253.722222222 631.333333333 211.555555556 590 184 c 1
 725 184 l 1
 733.666666667 208.555555556 738 233.222222222 738 258 c 0
 738 366.747698371 655.324588015 450.945901997 559 467 c 1
EndSplineSet
EndChar

StartChar: uni0BEF
Encoding: 260 3055 262
Width: 946
GlyphClass: 2
Flags: HW
LayerCount: 2
Back
Fore
SplineSet
369 270 m 1
 369 443 l 1
 246 443 l 1
 246 270 l 1
 369 270 l 1
123 160 m 0
 123 97.8321606962 189.103448936 49 252.5 49 c 128
 310.125897169 49 369 81.4791151858 369 135 c 2
 369 221 l 1
 184 221 l 2
 149.567804326 221 123 194.431370471 123 160 c 0
602 37 m 256
 635.077683709 37 652 84.7183643274 652 121 c 128
 652 171.103415491 616.795736901 206.892459309 578 221 c 1
 561.333333333 191.833333333 553 162.208333333 553 132.125 c 128
 553 87.9506921209 565.146168947 37 602 37 c 256
602 -12 m 256
 540.267507711 -12 504 57.4240806407 504 123.307692308 c 128
 504 161.512820513 512.333333333 194.076923077 529 221 c 1
 430 221 l 1
 430 135 l 2
 430 47.0499239054 345.026006412 -12 253 -12 c 128
 202.333333333 -12 157.666666667 4.83333333333 119 38.5 c 128
 80.3333333333 72.1666666667 61 112.666666667 61 160 c 0
 61 221.999172355 120.758033767 270 184 270 c 1
 184 492 l 1
 547 492 l 1
 547 443 l 1
 430 443 l 1
 430 270 l 1
 553 270 l 1
 583.379095603 311.315570021 638.169454819 344 707 344 c 0
 803.266095317 344 885 267.458971185 885 172 c 0
 885 107.816091954 864.666666667 50.4827586207 824 0 c 1
 756 0 l 1
 801.333333333 53.5757575758 824 110.909090909 824 172 c 0
 824 236.975317947 771.494830124 295 707 295 c 0
 662.764705882 295 629.764705882 282.666666667 608 258 c 1
 661.13311555 239.023887304 701 187.607694631 701 117 c 128
 701 55.7405506568 660.87874681 -12 602 -12 c 256
EndSplineSet
EndChar

StartChar: uni0BF0
Encoding: 261 3056 263
Width: 661
GlyphClass: 2
Flags: HW
LayerCount: 2
Back
Fore
SplineSet
434 -12 m 0
 377.54256575 -12 329.693348952 11.6133020964 311 49 c 1
 277.111111111 8.33333333333 240.638888889 -12 201.583333333 -12 c 128
 124.818354952 -12 65 46.7111496346 65 123 c 2
 65 369 l 1
 127 369 l 1
 127 123 l 2
 127 78.499048836 157.44567135 37 200.5 37 c 128
 243.544042405 37 274 78.5168907471 274 123 c 2
 274 369 l 1
 336 369 l 1
 336 123 l 1
 350.815948093 81.7270017417 383.904900567 37 434 37 c 0
 504.663668127 37 545 131.807012617 545 209 c 0
 545 273.666666667 525.666666667 328.833333333 487 374.5 c 128
 448.333333333 420.166666667 402 443 348 443 c 2
 188 443 l 1
 188 492 l 1
 348 492 l 2
 419.333333333 492 480.166666667 464.333333333 530.5 409 c 128
 580.833333333 353.666666667 606 287 606 209 c 0
 606 147.666666667 589.166666667 95.5 555.5 52.5 c 128
 521.833333333 9.5 481.333333333 -12 434 -12 c 0
EndSplineSet
EndChar

StartChar: uni0BF1
Encoding: 262 3057 264
Width: 684
GlyphClass: 2
Flags: HW
LayerCount: 2
Back
Fore
SplineSet
89 369 m 2
 89 445.116628652 148.767333291 504 225.25862069 504 c 128
 264.097701149 504 300.344827586 483.666666667 334 443 c 1
 352.692824265 480.38564853 400.547195789 504 457 504 c 2
 679 504 l 1
 679 449 l 1
 580 449 l 1
 580 0 l 1
 519 0 l 1
 519 449 l 1
 457 449 l 2
 408.725893269 449 373.245088754 407.35216203 359 369 c 1
 359 0 l 1
 297 0 l 1
 297 369 l 2
 297 413.500951164 266.55432865 455 223.5 455 c 128
 180.948985624 455 150 412.655013335 150 369 c 2
 150 0 l 1
 89 0 l 1
 89 369 l 2
EndSplineSet
EndChar

StartChar: uni0BF2
Encoding: 263 3058 265
Width: 759
GlyphClass: 2
Flags: HW
LayerCount: 2
Back
Fore
SplineSet
219 270 m 1
 342 270 l 1
 342 443 l 1
 219 443 l 1
 219 270 l 1
96 160 m 0
 96 93.6727401927 159.188599299 37 225.5 37 c 128
 286.451785515 37 342 76.9764916953 342 135 c 2
 342 221 l 1
 157 221 l 2
 122.567804326 221 96 194.431370471 96 160 c 0
34 160 m 0
 34 221.999172355 93.7580337666 270 157 270 c 1
 157 492 l 1
 575 492 l 1
 575 443 l 1
 403 443 l 1
 403 270 l 1
 649 270 l 1
 649 221 l 1
 514 221 l 1
 514 135 l 1
 535.764705882 159.666666667 565.039215686 172 601.823529412 172 c 128
 681.460511891 172 735 93.3479248269 735 10 c 128
 735 -36 712.333333333 -75.8333333333 667 -109.5 c 128
 621.666666667 -143.166666667 566.666666667 -160 502 -160 c 2
 157 -160 l 2
 98.0218639555 -160 59 -221.468094633 59 -283 c 1
 10 -283 l 1
 10 -194.830426381 71.3864079003 -111 157 -111 c 2
 502 -111 l 2
 549.333333333 -111 589.833333333 -98.8333333333 623.5 -74.5 c 128
 657.166666667 -50.1666666667 674 -22.1666666667 674 9.5 c 128
 674 61.5389417304 648.1763257 123 600.5 123 c 128
 556.572844282 123 523.651267013 91.1922512979 514 55 c 1
 514 0 l 1
 452 0 l 1
 452 221 l 1
 403 221 l 1
 403 135 l 2
 403 47.0499239054 318.026006412 -12 226 -12 c 128
 175.333333333 -12 130.666666667 4.83333333333 92 38.5 c 128
 53.3333333333 72.1666666667 34 112.666666667 34 160 c 0
EndSplineSet
EndChar

StartChar: uni0BF3
Encoding: 264 3059 266
Width: 910
GlyphClass: 2
Flags: HW
LayerCount: 2
Back
Fore
SplineSet
200 135 m 128
 200 82.4152276682 237.154980747 37 289 37 c 128
 340.469409991 37 385 83.3098909537 385 135.5 c 128
 385 187.970078209 340.388754595 234 288.5 234 c 128
 236.221746522 234 200 187.814223169 200 135 c 128
434 135.5 m 128
 434 53.8732986043 367.772400042 -12 286 -12 c 0
 221.333333333 -12 166.333333333 12 121 60 c 128
 75.6666666667 108 53 167.666666667 53 239 c 128
 53 310.333333333 79.3333333333 372.333333333 132 425 c 128
 184.666666667 477.666666667 249.166666667 504 325.5 504 c 128
 401.833333333 504 467.666666667 477.5 523 424.5 c 128
 578.333333333 371.5 606 309.958333333 606 239.875 c 128
 606 169.791666667 589.666666667 106.166666667 557 49 c 1
 901 49 l 1
 901 0 l 1
 483 0 l 1
 483 37 l 1
 524.333333333 86.6 545 152.266666667 545 234 c 0
 545 295.333333333 523.5 347.5 480.5 390.5 c 128
 437.5 433.5 385.166666667 455 323.5 455 c 128
 261.833333333 455 209.5 433.5 166.5 390.5 c 128
 123.5 347.5 102 295.333333333 102 234 c 0
 102 176.413793103 122.333333333 123.08045977 163 74 c 1
 155 96.6666666667 151 117 151 135 c 0
 151 214.278613141 209.755704267 283 288.5 283 c 128
 367.35101163 283 434 215.250193869 434 135.5 c 128
EndSplineSet
EndChar

StartChar: uni0BF4
Encoding: 265 3060 267
Width: 1062
GlyphClass: 2
Flags: HW
LayerCount: 2
Back
Fore
SplineSet
522 455 m 0
 479.004894751 455 449 412.935322932 449 369 c 2
 449 49 l 1
 621 49 l 2
 677.12450148 49 707 122.827930596 707 184 c 0
 707 258.666666667 689 322.5 653 375.5 c 128
 617 428.5 573.333333333 455 522 455 c 0
944 612 m 256
 902.29761534 612 872 647.110436806 872 689.941176471 c 128
 872 712.568627451 884 736.588235294 908 762 c 1
 882.363636364 793.333333333 851.696969697 809 816 809 c 128
 780.41025641 809 751.076923077 800.666666667 728 784 c 1
 760.527790332 761.637144147 797 723.600127342 797 676 c 0
 797 615.525229404 736.834552101 565 676 565 c 128
 618.741937182 565 572 606.11114684 572 660.5 c 128
 572 713.349029409 598.314682407 754.179818518 633 774 c 1
 608 774 l 2
 572 774 541.166666667 762 515.5 738 c 128
 489.833333333 714 477 687.166666667 477 657.5 c 128
 477 627.833333333 488.666666667 598.666666667 512 570 c 128
 535.333333333 541.333333333 567.333333333 515.333333333 608 492 c 1
 709.306685156 455.918166931 768 324.913716954 768 184 c 0
 768 92.3256984206 708.822220309 0 621 0 c 2
 92 0 l 1
 92 492 l 1
 154 492 l 1
 154 49 l 1
 387 49 l 1
 387 369 l 2
 387 440.584959931 440.349527083 504 510 504 c 1
 464.412738555 530.884795211 424 583.686709501 424 652 c 0
 424 748.458054228 510.26104108 824 608 824 c 0
 638.666666667 824 663 821 681 815 c 1
 726.047619048 843.666666667 771.047619048 858 816 858 c 0
 870.582958333 858 916.017357823 830.869156893 939 797 c 1
 964.701557739 830.523770964 1008.06134128 858 1062 858 c 1
 1062 809 l 1
 1026.04688116 809 997.932951118 784.430525048 982 760 c 1
 1003.33333333 732 1014 707.666666667 1014 687 c 128
 1014 646.55489361 984.251058535 612 944 612 c 256
621 667.5 m 128
 621 634.155435199 641.171689296 615 675 615 c 128
 708.936075528 615 744 641.499656065 744 675.5 c 128
 744 714.843657284 717.246607648 742.501565701 688 756 c 1
 656.209220641 740.617364826 621 708.839427515 621 667.5 c 128
944 664 m 256
 956.165857628 664 965 676.267844319 965 688.5 c 0
 965 703.033333333 958 715.2 944 725 c 1
 929.333333333 714.733333333 922 702.4 922 688 c 0
 922 675.323522873 931.591639183 664 944 664 c 256
EndSplineSet
EndChar

StartChar: uni0BF5
Encoding: 266 3061 268
Width: 1800
GlyphClass: 2
Flags: HW
LayerCount: 2
Back
Fore
SplineSet
386 135 m 128
 386 85.3749883218 419.498066724 37 467 37 c 256
 514.233370122 37 548 86.3428806155 548 135.5 c 128
 548 184.682864613 514.247333625 234 467 234 c 256
 419.534590849 234 386 184.541385623 386 135 c 128
461 -12 m 0
 320.544583929 -12 236 90.7031803363 236 234 c 256
 236 308.666666667 262.666666667 372.333333333 316 425 c 128
 369.333333333 477.666666667 433.666666667 504 509 504 c 256
 584.333333333 504 648.666666667 477.5 702 424.5 c 128
 755.333333333 371.5 782 310 782 240 c 128
 782 170 767.666666667 106.333333333 739 49 c 1
 929 49 l 1
 929 492 l 1
 1302 492 l 1
 1302 443 l 1
 1175 443 l 1
 1175 240 l 1
 1197.66666667 260 1224.5 270 1255.5 270 c 128
 1286.5 270 1314 253.333333333 1338 220 c 128
 1362 186.666666667 1374 146 1374 98 c 0
 1374 -17.3333333333 1310.16666667 -115.833333333 1182.5 -197.5 c 128
 1054.83333333 -279.166666667 900.666666667 -320 720 -320 c 128
 539.333333333 -320 385 -269.5 257 -168.5 c 128
 129 -67.5 65 56 65 202 c 128
 65 348 135.833333333 473.833333333 277.5 579.5 c 128
 419.166666667 685.166666667 590.5 738 791.5 738 c 128
 992.5 738 1163.83333333 701.833333333 1305.5 629.5 c 128
 1447.16666667 557.166666667 1518 470.333333333 1518 369 c 2
 1518 184 l 2
 1518 118.50968152 1549.56455004 49 1611 49 c 128
 1638.33333333 49 1662.83333333 68.3333333333 1684.5 107 c 128
 1706.16666667 145.666666667 1717 192 1717 246 c 256
 1717 326.020332574 1687.8537277 443 1618 443 c 1
 1637 492 l 1
 1672.33333333 492 1702.66666667 468 1728 420 c 128
 1753.33333333 372 1766 314 1766 246 c 256
 1766 178 1750.5 120 1719.5 72 c 128
 1688.5 24 1651.83333333 0 1609.5 0 c 128
 1519.46340131 0 1459 90.8261872239 1459 184 c 2
 1459 369 l 2
 1459 457.666666667 1393.66666667 533 1263 595 c 128
 1132.33333333 657 974.333333333 688 789 688 c 256
 603.666666667 688 445.666666667 640.166666667 315 544.5 c 128
 184.333333333 448.833333333 119 334.833333333 119 202.5 c 128
 119 70.1666666667 177.5 -41.6666666667 294.5 -133 c 128
 411.5 -224.333333333 552.5 -270 717.5 -270 c 128
 882.5 -270 1023.33333333 -234 1140 -162 c 128
 1256.66666667 -90 1315 -3.33333333333 1315 98 c 0
 1315 148.908215691 1292.09054519 215 1246 215 c 128
 1206.62702118 215 1175 180.933310616 1175 141 c 2
 1175 0 l 1
 1116 0 l 1
 1116 443 l 1
 990 443 l 1
 990 0 l 1
 668 0 l 1
 668 37 l 1
 704 84.0769230769 722 149.743589744 722 234 c 0
 722 295.333333333 701.166666667 347.5 659.5 390.5 c 128
 617.833333333 433.5 567.833333333 455 509.5 455 c 128
 451.166666667 455 401.166666667 433.5 359.5 390.5 c 128
 317.833333333 347.5 297 295.333333333 297 234 c 0
 297 170.853333333 314 117.52 348 74 c 1
 340.666666667 98.9333333333 337 119.266666667 337 135 c 0
 337 211.937075942 388.108849854 283 463.5 283 c 128
 539.081650492 283 597 212.949183513 597 135.5 c 128
 597 56.6194551755 538.728390643 -12 461 -12 c 0
EndSplineSet
EndChar

StartChar: uni0BF6
Encoding: 267 3062 269
Width: 791
GlyphClass: 2
Flags: HW
LayerCount: 2
Back
Fore
SplineSet
232 -12 m 0
 151.317974981 -12 85 54.3202672098 85 135 c 2
 85 492 l 1
 146 492 l 1
 146 135 l 2
 146 81.2999420633 183.445753881 37 237 37 c 128
 292.830047078 37 343 90.4326520235 343 148 c 2
 343 492 l 1
 404 492 l 1
 404 -61 l 1
 638 -61 l 1
 638 492 l 1
 699 492 l 1
 699 -111 l 1
 404 -111 l 1
 404 -184 l 2
 404 -248.970752232 352.514723595 -307 288 -307 c 2
 202 -307 l 2
 135.665330972 -307 79 -251.004616771 79 -184.5 c 128
 79 -117.485921891 134.81535643 -61 202 -61 c 2
 343 -61 l 1
 343 37 l 1
 324.27629156 6.23962184858 281.842138441 -12 232 -12 c 0
140 -184.5 m 128
 140 -222.256542585 165.39409591 -258 202 -258 c 2
 288 -258 l 2
 322.162564501 -258 343 -220.149484357 343 -184 c 2
 343 -111 l 1
 202 -111 l 2
 165.402346334 -111 140 -146.758355069 140 -184.5 c 128
EndSplineSet
EndChar

StartChar: uni0BF7
Encoding: 268 3063 270
Width: 1336
GlyphClass: 2
Flags: HW
LayerCount: 2
Back
Fore
SplineSet
214 132.5 m 128
 214 86.1416074382 243.47620519 37 288 37 c 256
 332.260719769 37 361 87.123693 361 133 c 128
 361 179.065933231 331.499984047 221 287.5 221 c 128
 243.281285132 221 214 178.93096319 214 132.5 c 128
990 113.5 m 128
 990 42.0288684856 930.320251318 -9 857 -9 c 128
 818.333333333 -9 784.333333333 8.66666666667 755 44 c 128
 725.666666667 79.3333333333 711 121.666666667 711 171 c 1
 664.759865659 144.989924433 634.426532326 111.6565911 620 71 c 1
 620 0 l 1
 558 0 l 1
 558 443 l 1
 312 443 l 2
 254.666666667 443 205.5 421.333333333 164.5 378 c 128
 123.5 334.666666667 103 282.333333333 103 221 c 0
 103 140.984408379 147.851913338 79.6054402873 202 49 c 1
 177.333333333 77.7777777778 165 108.805555556 165 142.083333333 c 128
 165 210.12020888 221.617033433 270 291 270 c 128
 364.993456471 270 423 208.475652802 423 133 c 128
 423 51.479778505 346.351341793 -12 263 -12 c 0
 205.666666667 -12 156.5 10.6666666667 115.5 56 c 128
 74.5 101.333333333 54 158.833333333 54 228.5 c 128
 54 298.166666667 79.1666666667 359.5 129.5 412.5 c 128
 179.833333333 465.5 240.666666667 492 312 492 c 2
 742 492 l 1
 742 443 l 1
 620 443 l 1
 620 145 l 1
 644.470588235 174.908496732 676.803921569 199.241830065 717 218 c 1
 736.469801109 298.312929573 812.084205681 368 908 368 c 0
 964.666666667 368 1013.16666667 348.666666667 1053.5 310 c 128
 1093.83333333 271.333333333 1114 225.398148148 1114 172.194444444 c 128
 1114 118.990740741 1102.33333333 73.5925925926 1079 36 c 1
 1329 36 l 1
 1329 0 l 1
 1024 0 l 1
 1024 27 l 1
 1053.33333333 63.3174603175 1068 111.317460317 1068 171 c 0
 1068 258.778725447 996.122557408 332 908 332 c 0
 836.104658742 332 784.231530277 285.432519638 761 232 c 1
 787.666666667 238.666666667 813 242 837 242 c 0
 913.674274501 242 990 187.161186239 990 113.5 c 128
940 114 m 128
 940 164.161000997 889.305579106 202 837 202 c 128
 808.333333333 202 779 197 749 187 c 1
 749 112.715225126 791.91295238 33 862 33 c 0
 906.727507812 33 940 68.6988041557 940 114 c 128
EndSplineSet
EndChar

StartChar: uni0BF8
Encoding: 269 3064 271
Width: 1595
GlyphClass: 2
Flags: HW
LayerCount: 2
Back
Fore
SplineSet
983 219 m 128
 983 299.034519633 926.481031397 369 848 369 c 0
 827.333333333 369 809 367 793 363 c 1
 797 345 799 326.333333333 799 307 c 0
 799 221.666666667 783.5 149.166666667 752.5 89.5 c 128
 721.5 29.8333333333 683.666666667 0 639 0 c 0
 585.070661073 0 553 65.7256865649 553 123 c 0
 553 249.836835004 623.911687005 352.768207322 719 387 c 1
 676.734965129 504.041635028 574.464641365 627 430 627 c 0
 343.333333333 627 269.5 595.833333333 208.5 533.5 c 128
 147.5 471.166666667 117 395.666666667 117 307 c 0
 117 248.160493827 135.333333333 186.827160494 172 123 c 1
 164.146949359 206.765873504 226.673226908 283 307.5 283 c 128
 388.00882516 283 455 216.326354734 455 135.5 c 128
 455 53.8732986043 388.772400042 -12 307 -12 c 0
 239 -12 181 19.1666666667 133 81.5 c 128
 85 143.833333333 61 219 61 307 c 0
 61 408.333333333 97.1666666667 495.166666667 169.5 567.5 c 128
 241.833333333 639.833333333 328.666666667 676 430 676 c 0
 603.220656137 676 730.331544752 542.241846333 781 406 c 1
 803.666666667 414 830.333333333 418 861 418 c 0
 964.070976698 418 1045 325.323490361 1045 221 c 0
 1045 140.777777778 1024.33333333 83.4444444444 983 49 c 1
 1217 49 l 1
 1161.92368052 74.7022824218 1119 133.725966886 1119 211.5 c 128
 1119 286.841783087 1188.96223042 344 1266 344 c 256
 1344.4339724 344 1414 286.483924074 1414 209 c 2
 1414 49 l 1
 1586 49 l 1
 1586 0 l 1
 1414 0 l 1
 1414 -295 l 1
 1352 -295 l 1
 1352 0 l 1
 873 0 l 1
 873 37 l 1
 937.10872013 60.0791392466 983 133.061201064 983 219 c 128
221 135 m 128
 221 83.8396934401 257.805853397 37 307.5 37 c 128
 356.931151055 37 393 84.8130972326 393 135.5 c 128
 393 186.263774167 352.917906388 234 303.5 234 c 128
 253.818885545 234 221 186.026920746 221 135 c 128
615 123 m 0
 615 98.0551940875 620.05684993 49 639 49 c 0
 664.333333333 49 686 74.1666666667 704 124.5 c 128
 722 174.833333333 731 235.666666667 731 307 c 2
 731 344 l 1
 658.320592541 316.573808506 615 225.06663025 615 123 c 0
1266 295 m 256
 1218.36473266 295 1180 256.633983696 1180 209 c 0
 1180 119.162388357 1260.88199743 49 1352 49 c 1
 1352 209 l 2
 1352 256.635267344 1313.6339837 295 1266 295 c 256
EndSplineSet
EndChar

StartChar: uni0BF9
Encoding: 270 3065 272
Width: 1231
GlyphClass: 2
Flags: HW
LayerCount: 2
Back
Fore
SplineSet
789 123 m 0
 789 190.524492254 740.771811762 258 676.739130435 258 c 128
 647.898550725 258 619.985507246 241.666666667 593 209 c 1
 593 0 l 1
 531 0 l 1
 531 443 l 1
 384 443 l 1
 384 0 l 1
 322 0 l 1
 322 492 l 1
 691 492 l 1
 691 443 l 1
 593 443 l 1
 593 270 l 1
 606.789497051 293.442144986 640.887576648 307 679 307 c 0
 775.458054228 307 851 220.73895892 851 123 c 0
 851 14.3333333333 812.666666667 -78.3333333333 736 -155 c 128
 659.333333333 -231.666666667 567.5 -270 460.5 -270 c 128
 353.5 -270 262.666666667 -222.666666667 188 -128 c 128
 113.333333333 -33.3333333333 76 83.5 76 222.5 c 128
 76 361.5 116.833333333 482.166666667 198.5 584.5 c 128
 280.166666667 686.833333333 378.666666667 738 494 738 c 0
 570 738 639.666666667 715.333333333 703 670 c 128
 766.333333333 624.666666667 811.333333333 565.333333333 838 492 c 1
 859.559026902 547.799834336 916.103278895 590 992 590 c 128
 1062.23442122 590 1133 536.443533983 1133 467 c 1
 1232 467 l 1
 1232 418 l 1
 1084 418 l 1
 1084 481.172036137 1043.07379994 541 981 541 c 128
 951 541 923.833333333 526.666666667 899.5 498 c 128
 875.166666667 469.333333333 863 434.333333333 863 393 c 1
 801 393 l 1
 801 474.333333333 771.166666667 543.833333333 711.5 601.5 c 128
 651.833333333 659.166666667 579.333333333 688 494 688 c 0
 394 688 308.666666667 641.833333333 238 549.5 c 128
 167.333333333 457.166666667 132 348.166666667 132 222.5 c 128
 132 96.8333333333 163.666666667 -8.5 227 -93.5 c 128
 290.333333333 -178.5 367.5 -221 458.5 -221 c 128
 549.5 -221 627.333333333 -187.5 692 -120.5 c 128
 756.666666667 -53.5 789 27.6666666667 789 123 c 0
EndSplineSet
EndChar

StartChar: uni0BFA
Encoding: 271 3066 273
Width: 1196
GlyphClass: 2
Flags: HW
LayerCount: 2
Back
Fore
SplineSet
688 348.5 m 128
 688 311.172344714 713.030766301 283 748.5 283 c 128
 784.220797107 283 805 311.386114275 805 349 c 0
 805 391.666666667 801 425 793 449 c 1
 745.629077513 436.905296386 688 400.415861123 688 348.5 c 128
547 155 m 128
 547 210.307050351 501.872557281 246 446.239130435 246 c 128
 417.731884058 246 389.985507246 229.666666667 363 197 c 1
 363 98 l 1
 301 98 l 1
 301 443 l 1
 154 443 l 1
 154 0 l 1
 92 0 l 1
 92 492 l 1
 387 492 l 1
 366.333333333 511.288888889 356 542.277777778 356 584.966666667 c 128
 356 680.330611682 462.255721799 731 563.5 731 c 128
 621.833333333 731 676.333333333 709.833333333 727 667.5 c 128
 777.666666667 625.166666667 812 570.333333333 830 503 c 1
 848 504 l 1
 914.666666667 504 971.333333333 484.666666667 1018 446 c 128
 1064.66666667 407.333333333 1088 362.166666667 1088 310.5 c 128
 1088 186.988064897 1002.55735588 99.8524465782 916 49 c 1
 1186 49 l 1
 1186 0 l 1
 713 0 l 1
 809 35.3333333333 886.333333333 81 945 137 c 128
 1003.66666667 193 1033 249.666666667 1033 307 c 0
 1033 394.783151506 939.591956758 455 848 455 c 1
 858 432.142857143 863 395.142857143 863 344 c 0
 863 283.208828864 810.997917959 234 749.5 234 c 128
 685.38431663 234 633 284.037918172 633 349 c 128
 633 425.277461467 704.731282157 482.508919733 774 495 c 1
 749.782063334 585.266854845 670.123300256 682 565 682 c 128
 494.845374661 682 412 652.21330454 412 590 c 0
 412 543.851851852 424.333333333 511.185185185 449 492 c 1
 535 492 l 1
 535 443 l 1
 363 443 l 1
 363 264 l 1
 384.764705882 288.666666667 415.539215686 301 455.323529412 301 c 128
 495.107843137 301 530.5 287.333333333 561.5 260 c 128
 592.5 232.666666667 608 198.166666667 608 156.5 c 128
 608 114.833333333 591.333333333 78.3333333333 558 47 c 128
 524.666666667 15.6666666667 484 0 436 0 c 2
 301 0 l 1
 301 49 l 1
 436 49 l 2
 493.273969811 49 547 98.8448935894 547 155 c 128
EndSplineSet
EndChar

StartChar: uni0D82
Encoding: 272 3458 274
Width: 481
GlyphClass: 2
Flags: HW
LayerCount: 2
Back
Fore
SplineSet
239 67 m 0
 120.602226289 64.368938362 34 154.469025692 34 272 c 0
 34 356.345722456 78.3451824647 419.71525777 135.5 451 c 128
 189.920195978 480.787896746 266.534436708 487.038131912 326 462 c 128
 397.623346472 431.842801486 448.044240343 360.974008024 447.010092515 270.433978133 c 128
 445.644162599 150.8463022 361.473087243 67 239 67 c 0
109 274 m 128
 109 193.031399323 157.87581884 138 239 138 c 256
 279.666666667 138 312 150.333333333 336 175 c 0
 359.333333333 201.666666667 371 235 371 275 c 128
 371 354.713424342 319.712415761 406 240 406 c 128
 159.767158794 406 109 354.547831079 109 274 c 128
EndSplineSet
EndChar

StartChar: uni0D83
Encoding: 273 3459 275
Width: 325
GlyphClass: 2
Flags: HW
LayerCount: 2
Back
Fore
SplineSet
31 430 m 128
 31 506.738768643 85.729421842 557 163.5 557 c 128
 241.197856707 557 294 510.01371162 294 433 c 128
 294 355.267521486 240.937614315 307 162 307 c 128
 83.5734796767 307 31 353.078354976 31 430 c 128
229 432.5 m 128
 229 471.877388018 202.805756664 495 162.5 495 c 128
 122.187265421 495 96 471.88261436 96 432.5 c 128
 96 393.119441249 121.138561429 369 161.5 369 c 128
 201.782207488 369 229 393.137836162 229 432.5 c 128
162 250 m 256
 239.620151553 250 294 201.454920123 294 124.5 c 128
 294 47.1805013876 240.657292089 0 162 0 c 128
 83.5734796767 0 31 46.0783549763 31 123 c 128
 31 198.829007557 85.2711882097 250 162 250 c 256
229 124.5 m 128
 229 163.354998904 201.954162204 188 162.5 188 c 128
 122.778160461 188 96 164.299790097 96 125 c 128
 96 85.436659419 120.796880106 62 161 62 c 256
 200.820952633 62 229 85.3869739152 229 124.5 c 128
EndSplineSet
EndChar

StartChar: uni0D85
Encoding: 274 3461 276
Width: 911
GlyphClass: 2
Flags: HW
LayerCount: 2
Back
Fore
SplineSet
363 708 m 0
 482.839426701 708 589 642.833693731 589 529 c 2
 589 429 l 1
 621 429 643.666666667 427.333333333 657 424 c 1
 657 534 l 2
 657 612.977349496 702.353566986 660 779 660 c 0
 869.045768635 660 917.005407462 584.108606238 891 499 c 1
 803 525 l 1
 815.885165872 544.327748808 808.104053092 572 785 572 c 0
 763 572 752 559.333333333 752 534 c 2
 752 -230 l 1
 657 -250 l 1
 657 335 l 1
 647.666666667 339.666666667 625 342 589 342 c 1
 589 131 l 2
 589 46.3764469036 537.10248692 -20 443 -20 c 128
 311.007450627 -20 189.163124846 -3.19080633249 114 55 c 0
 68.6666666667 90.0967741935 46 137.430107527 46 197 c 0
 46 231.96969697 60 266.636363636 88 301 c 0
 132.705882353 355.86631016 197.705882353 391.699643494 283 408.5 c 0
 352.384615385 422.166666667 424.384615385 429 499 429 c 1
 499 529 l 2
 499 587.16904736 448.604785953 619.199316292 401 626 c 1
 418.169893771 615.433911525 429 583.42561141 429 555.5 c 128
 429 484.231194951 372.066526901 438 304 438 c 0
 234.170372834 438 173 486.562733099 173 554.257575758 c 128
 173 612.922935414 194.32842221 646.996599992 229 671 c 0
 264.62962963 695.666666667 309.296296296 708 363 708 c 0
438 66 m 0
 478.666666667 66 499 89.3333333333 499 136 c 2
 499 342 l 1
 322.317829457 342 210.651162791 312.5 164 253.5 c 0
 152.666666667 239.166666667 147 221.333333333 147 200 c 128
 147 178.666666667 157.666666667 159.333333333 179 142 c 128
 236.320427341 95.4271527851 345.661052835 66 438 66 c 0
312 606 m 256
 284.20841866 606 262 583.790847826 262 556 c 256
 262 528.20841866 284.209152174 506 312 506 c 256
 339.79158134 506 362 528.209152174 362 556 c 256
 362 583.79158134 339.790847826 606 312 606 c 256
EndSplineSet
EndChar

StartChar: uni0D89
Encoding: 278 3465 280
Width: 996
GlyphClass: 2
Flags: HW
LayerCount: 2
Back
Fore
SplineSet
548 341 m 1
 543.504778659 258.587608749 511.842050032 181.202157929 467 134 c 1
 477 131.333333333 489.666666667 130 505 130 c 128
 567.938340717 130 629 178.625024286 629 233.661764706 c 128
 629 290.574376443 594.398299345 325.920552713 548 341 c 1
298 341 m 1
 305.45424635 269.43923504 332.120913017 214.43923504 378 176 c 1
 425.103198552 215.028364514 450.103198552 270.028364514 453 341 c 1
 298 341 l 1
128 232 m 0
 128 171.068971267 193.682754017 130 258 130 c 2
 272.5 130 l 2
 276.833333333 130 281.666666667 130.666666667 287 132 c 1
 244.989974937 181.423558897 218.989974937 251.090225564 209 341 c 1
 155 323.642857143 128 287.30952381 128 232 c 0
581 -236 m 128
 609.849289412 -236 642 -202.014976273 642 -172.5 c 0
 642 -142.622807018 628 -121.789473684 600 -110 c 1
 560.333333333 -114.666666667 537.666666667 -117 532 -117 c 2
 524 -117 l 1
 504 -26 l 1
 608.087194357 -23.0260801612 696.626325632 17.7291108517 757 71 c 128
 816.941688103 123.889724797 870 208.621853469 870 315 c 128
 870 416.868857732 826.856460273 492.791523289 775 546.5 c 128
 730.504927555 592.584182175 658.558265272 641 578 641 c 128
 505.847965415 641 451.111432247 614.53111397 408 581 c 0
 356.691588785 541.093457944 323.024922118 491.093457944 307 431 c 1
 436 431 l 1
 427.402298851 453.354022989 413.402298851 475.687356322 394 498 c 1
 464 558 l 1
 502.43575419 510.595903166 527.43575419 468.262569832 539 431 c 1
 596.725490196 427.235294118 642.725490196 405.235294118 677 365 c 0
 707.666666667 329 723 286.666666667 723 238 c 0
 723 180.150537634 700.333333333 131.483870968 655 92 c 0
 611.37037037 54 559.37037037 35 499 35 c 0
 458.333333333 35 418 44.6666666667 378 64 c 1
 338.666666667 45.3333333333 301.333333333 36 266 36 c 128
 194.011867525 36 143.14692318 57.9383049943 104.5 92 c 0
 62.1666666667 129.310734463 41 175.644067797 41 231 c 0
 41 276.179487179 53.5 317.679487179 78.5 355.5 c 0
 108.535183737 400.937842064 151.701850404 426.104508731 208 431 c 1
 222.389986356 518.648098713 264.556653022 591.314765379 334.5 649 c 0
 401.591666667 704.333333333 480.425 732 571 732 c 0
 685.444444444 732 779.611111111 694 853.5 618 c 0
 927.833333333 541.542857143 965 442.876190476 965 322 c 0
 965 235.680751174 939.166666667 154.680751174 887.5 79 c 0
 839.502159827 8.69330453564 779.002159827 -43.3066954644 706 -77 c 1
 723.787390451 -97.3284462294 736 -137.179590997 736 -175 c 128
 736 -270.277044557 667.722477999 -331 577 -331 c 0
 515.805493772 -331 463.924235217 -296.166655341 439 -257 c 1
 427 -241 l 1
 507 -190 l 1
 517 -205 l 1
 527.349374751 -223.111405814 552.724822063 -236 581 -236 c 128
EndSplineSet
EndChar

StartChar: uni0D8A
Encoding: 279 3466 281
Width: 1043
GlyphClass: 2
Flags: HW
LayerCount: 2
Back
Fore
SplineSet
731 156 m 0
 628.982369833 156 552 83.1414659439 552 -18 c 0
 552 -65.3333333333 569.333333333 -106.333333333 604 -141 c 128
 638.666666667 -175.666666667 681 -193 731 -193 c 0
 802.16689164 -193 870.419356753 -145.051967125 893 -95.5 c 128
 905 -69.1666666667 911 -43.5 911 -18.5 c 128
 911 36.249174715 884.854265432 78.6216429436 854.5 106 c 0
 817.543478261 139.333333333 776.376811594 156 731 156 c 0
625 224 m 1
 663.745098039 241.333333333 701.764705882 250 739.058823529 250 c 128
 820.754942491 250 885.960806799 215.039193201 929 172 c 0
 980.333333333 120.666666667 1006 58 1006 -16 c 0
 1006 -95.1891891892 979 -160.689189189 925 -212.5 c 0
 873.234741784 -262.166666667 809.901408451 -287 735 -287 c 0
 651 -287 582 -260 528 -206 c 0
 476 -154 450 -90 450 -14 c 2
 450 -6 l 1
 451.373779637 36.5871687587 455.883891213 68.9006276151 463.530334728 90.940376569 c 0
 474.199000465 121.691236634 493.022222222 164.044444444 520 218 c 256
 564.594594595 307.189189189 596.261261261 405.189189189 615 512 c 0
 621.666666667 550 626 588.666666667 628 628 c 1
 212 628 l 1
 174 623.777777778 155 594.444444444 155 540 c 2
 155 0 l 1
 54 -17 l 1
 54 540 l 2
 54 583.714285714 60.1666666667 616.142857143 72.5 637.285714286 c 128
 100.229877268 684.822646746 146.053804255 722 209 722 c 2
 819 722 l 1
 806 627 l 1
 718 627 l 1
 714.966668814 508.700083761 686.22557389 371.141377336 647 277 c 128
 637 253 629.666666667 235.333333333 625 224 c 1
439 429 m 256
 408.567804326 429 384 453.568629529 384 484 c 256
 384 514.406143341 408.568629529 540 439 540 c 256
 469.406143341 540 495 514.405226449 495 484 c 256
 495 453.567804326 469.405226449 429 439 429 c 256
874 429 m 256
 843.567804326 429 819 453.568629529 819 484 c 256
 819 514.406143341 843.568629529 540 874 540 c 256
 904.406143341 540 930 514.405226449 930 484 c 256
 930 453.567804326 904.405226449 429 874 429 c 256
EndSplineSet
EndChar

StartChar: uni0D8B
Encoding: 280 3467 282
Width: 913
GlyphClass: 2
Flags: HW
LayerCount: 2
Back
Fore
SplineSet
160 -1 m 0
 160 -133.716281651 310.85894561 -194 456.392156863 -194 c 0
 640.188689969 -194 796.391304348 -136 925 -20 c 1
 1027 -73 l 1
 1024 -75 l 1
 887.386175248 -197.720893422 690.629854277 -296 450 -296 c 0
 336.160337553 -296 242.160337553 -267.833333333 168 -211.5 c 0
 94.6666666667 -155.794871795 58 -84.6282051282 58 2 c 0
 58 57.0666666667 75.3333333333 105.4 110 147 c 0
 150.808510638 194.609929078 223.808510638 228.276595745 329 248 c 1
 333 248 l 1
 397.507936508 261.439153439 444.007936508 278.605820106 472.5 299.5 c 0
 501.5 320.766666667 516 350.933333333 516 390 c 0
 516 470.19119987 453.991990676 532.888231502 390 553 c 1
 407.169893771 542.433911525 418 510.42561141 418 482.5 c 128
 418 411.231194951 361.066526901 365 293 365 c 0
 223.170372834 365 162 413.562733099 162 481.257575758 c 128
 162 539.922935414 183.32842221 573.996599992 218 598 c 0
 253.62962963 622.666666667 298.296296296 635 352 635 c 0
 424.338308458 635 486.838308458 610.833333333 539.5 562.5 c 0
 591.833333333 514.46803653 618 456.634703196 618 389 c 0
 618 342.333333333 605.166666667 300.666666667 579.5 264 c 0
 545.568041237 215.525773196 488.234707904 181.025773196 407.5 160.5 c 0
 387.833333333 155.5 370 151.333333333 354 148 c 1
 349 148 l 1
 304.925925926 139.185185185 273.925925926 131.518518519 256 125 c 0
 192 101.489795918 160 59.4897959184 160 -1 c 0
301 533 m 256
 273.20841866 533 251 510.790847826 251 483 c 256
 251 455.20841866 273.209152174 433 301 433 c 256
 328.79158134 433 351 455.209152174 351 483 c 256
 351 510.79158134 328.790847826 533 301 533 c 256
EndSplineSet
EndChar

StartChar: uni0D8D
Encoding: 282 3469 284
Width: 1290
GlyphClass: 2
Flags: HW
LayerCount: 2
Back
Fore
SplineSet
272 470 m 5
 269.750193204 520.620652913 243.641784935 551 197 551 c 4
 143.4 551 118.4 524 122 470 c 5
 26 454 l 5
 16.2819895944 496.759245784 29.2727131554 542.442237549 47.5 572 c 4
 77.5111111111 620.666666667 127.011111111 645 196 645 c 4
 315.953284235 645 381 556.063236948 381 432 c 6
 381 385 l 5
 281 382 l 5
 205.00156954 378.545525888 163.697176692 351.867251767 138.5 303 c 132
 127.5 281.666666667 122 255.5 122 224.5 c 132
 122 165.675529298 141.389648438 139.822265625 172.5 114.5 c 4
 199.119140625 92.8330078125 229.619140625 82 264 82 c 6
 295 82 l 6
 348.864257812 82 381 127.627929688 381 189 c 5
 454 189 l 5
 454 121.962890625 490.67578125 81 558.75 81 c 132
 652.413085938 81 712 130.132957066 712 218 c 4
 712 323.435517466 655.862204027 376.324445272 553 381 c 6
 454 385 l 5
 454 432 l 6
 454 556.088147849 519.027831089 645 639 645 c 4
 711.921168924 645 759.853793596 615.210064438 786.5 572 c 132
 804.788405697 542.343125897 817.74787422 496.89064657 808 454 c 5
 712 470 l 5
 715.6 524 690.933333333 551 638 551 c 4
 591.399457686 551 565.24837912 520.588530204 563 470 c 5
 720.325926214 470 813 382.815341537 813 219.5 c 132
 813 64.2271094626 717.571615598 -20 566.998550725 -20 c 132
 491.753140097 -20 441.753623188 0.333333333333 417 41 c 5
 395.868085106 3.61276595745 357.868085106 -16.3872340426 303 -19 c 4
 289 -19.6666666667 270.166666667 -20 246.5 -20 c 132
 187.240052192 -20 122.888463565 10.2295654079 89 42 c 4
 43.6666666667 84.5 21 141.833333333 21 214 c 4
 21 378.150214148 108.352735233 470 272 470 c 5
EndSplineSet
Refer: 343 3544 N 1 0 0 1 830 0 2
EndChar

StartChar: uni0D8F
Encoding: 284 3471 286
Width: 1246
GlyphClass: 2
Flags: HW
LayerCount: 2
Back
Fore
SplineSet
392.5 558 m 128
 348.242896638 558 325 528.036910438 325 487 c 1
 326 477 l 1
 230 461 l 1
 228 469 227 478.333333333 227 489 c 1
 163.666666667 446.31884058 132 367.985507246 132 254 c 0
 132 195.636363636 141.333333333 139.303030303 160 85 c 1
 68 71 l 1
 46.6666666667 125.666666667 36 180.833333333 36 236.5 c 128
 36 357.647740932 71.9362825224 455.060934672 127.5 526.5 c 128
 184.645194798 599.972393311 273.857001453 656 401 656 c 0
 521.655517867 656 585 563.691467704 585 439 c 2
 585 392 l 1
 485 392 l 1
 408.412722113 385.037520192 368.527066674 360.476735369 342.5 310 c 128
 331.5 288.666666667 326 262.5 326 231.5 c 128
 326 172.675529298 345.38997654 137.822112118 376.5 112.5 c 0
 403.119047619 90.8333333333 433.619047619 80 468 80 c 2
 775 80 l 2
 857.350743016 80 916 144.777322352 916 225 c 0
 916 327.750908171 858.82535645 389 757 389 c 2
 657 389 l 1
 657 439 l 2
 657 562.689748443 720.117798247 656 839.189655172 656 c 128
 962.106446837 656 1051.0084258 608.925699071 1109.5 541 c 0
 1173.16666667 467.064516129 1205 372.064516129 1205 256 c 0
 1205 197.266666667 1197 143.1 1181 93.5 c 0
 1177.66666667 83.1666666667 1175.33333333 75.6666666667 1174 71 c 1
 1082 85 l 1
 1100.66666667 139.303030303 1110 196.212121212 1110 255.727272727 c 0
 1110 367.612794613 1078.33333333 445.37037037 1015 489 c 1
 1015 478.333333333 1014 469 1012 461 c 1
 916 477 l 1
 916 487 l 2
 916 527.744513851 892.811916615 558 849 558 c 128
 795.480368357 558 768.440200525 531.90451181 766 477 c 1
 923.824697337 477 1017 389.26477274 1017 225 c 128
 1017 143.000179906 991.460782315 87.8069834205 949 48 c 0
 905.622222222 7.33333333333 847.955555556 -13 776 -13 c 2
 468 -13 l 2
 323.134163377 -13 225 77.4941966282 225 221 c 0
 225 385.150214148 312.352735233 477 476 477 c 1
 473.547761498 532.175366295 446.468269407 558 392.5 558 c 128
EndSplineSet
EndChar

StartChar: uni0D91
Encoding: 286 3473 288
Width: 1198
GlyphClass: 2
Flags: HW
LayerCount: 2
Back
Fore
SplineSet
974.388888889 518.388888889 m 128
 969.580410749 492.296982916 990.164246502 470 1015.5 470 c 128
 1029.16666667 470 1040.33333333 474.333333333 1049 483 c 1
 1051 491 1052 511 1052 543 c 2
 1052 603 l 1
 1039.46286339 590.46286339 1021.98729332 578.656077769 1008 567 c 0
 987.851851852 546.851851852 976.648148148 530.648148148 974.388888889 518.388888889 c 128
335.081521739 143.114130435 m 128
 379.468422194 207.466126575 332.205527892 302.557008121 263.5 301.5 c 128
 223.407105627 300.88318624 201.869607634 292.341176278 182 274 c 0
 155.653197954 249.679875034 147 229.341359893 147 192 c 128
 147 183.333333333 148.666666667 175 152 167 c 0
 166.464820102 119.989334668 217.796154195 83.2457740491 284.042105263 104.205263158 c 128
 304.680701754 110.735087719 321.69384058 123.704710145 335.081521739 143.114130435 c 128
1151 536 m 2
 1151 420.931079321 1141.37544282 329.927890477 1102.5 245 c 128
 1056.95071024 145.492320836 966.713823927 66.6855295707 860 24 c 128
 803.333333333 1.33333333333 742.666666667 -10 678 -10 c 0
 654 -10 630 -8.66666666667 606 -6 c 1
 562 2 l 1
 563 322 l 1
 524.772895224 317.221611903 441.117572924 321.976485415 411 328 c 1
 466.334953434 253.135063001 478.589670452 166.433916016 422 85 c 0
 379.378531073 23.6666666667 321.378531073 -7 248 -7 c 0
 196.666666667 -7 151 10 111 44 c 0
 37.7200501135 109.951954898 18.3128241933 214.258167545 75.5 310.5 c 0
 128.340941749 399.427438553 227.966821676 436.410599015 380 429.5 c 0
 497.84496124 424.143410853 566.972868217 424.054263566 587.38372093 429.23255814 c 128
 653.210969736 445.933128668 711.954508569 496.182777203 709 573 c 1
 809 589 l 1
 811.666666667 552.333333333 806.166666667 516.666666667 792.5 482 c 0
 768.880868888 422.088057666 724.380868888 377.421390999 659 348 c 1
 659 87 l 1
 716.489361702 84.2624113475 769.528368794 92.7446808511 818.117021277 112.446808511 c 0
 946.435520454 164.478452171 1021.06318003 251.996182667 1042 375 c 1
 1036.66666667 373.666666667 1031.5 373 1026.5 373 c 2
 1011 373 l 2
 972.090909091 373 938.090909091 389 909 421 c 0
 845.25276153 494.812591913 880.734489705 579.287219301 942 638 c 0
 953.019519178 649.019519178 962.893589756 655.411324797 975 665.5 c 0
 1017.77377835 701.144815288 1029.98701625 715.727285397 1041.5 760.5 c 0
 1047.83333333 785.12962963 1051 803.62962963 1051 816 c 1
 1149 816 l 1
 1151 536 l 2
EndSplineSet
EndChar

StartChar: uni0D94
Encoding: 289 3476 291
Width: 907
GlyphClass: 2
Flags: HW
LayerCount: 2
Back
Fore
SplineSet
301 282 m 0
 332.095883443 282 361.894606397 319.101431137 359.103773585 353.254716981 c 0
 356.550531833 384.500442282 335.182607304 405.748869955 295 417 c 0
 271 421 247.833333333 416.666666667 225.5 404 c 0
 179.910311035 378.143161483 152.076977702 337.143161483 142 281 c 0
 135.18579235 237.389071038 142.852459016 196.389071038 165 158 c 256
 194.242842181 107.312406886 257.089387285 68.5384861921 329 99.5 c 128
 353 109.833333333 372.333333333 126.666666667 387 150 c 1
 473 151 l 1
 486.786666667 128.44 508.453333333 109.773333333 538 95 c 0
 569.463381246 82.0444900753 598.296714579 88.0444900753 624.5 113 c 0
 637.508874416 125.389404206 648.560412706 135.413883608 658 148 c 1
 589.909144805 189.546962492 535.794200832 264.584630601 533.5 364 c 0
 532.299814643 416.008032129 546.46648131 466.008032129 576 514 c 0
 584.533333333 527.866666667 596.533333333 542.533333333 612 558 c 1
 680 485 l 1
 671.333333333 476.333333333 667 468.166666667 667 460.5 c 0
 667 445.666666667 676 434.5 694 427 c 1
 740.978225231 416.158871101 773.646688783 458.465839388 777 501.5 c 128
 779 527.166666667 774.333333333 551.166666667 763 573.5 c 0
 722.044031074 654.20735053 649.404913861 700.979285592 552.024324324 722.964864865 c 128
 504.674774775 733.654954955 455.833333333 735.333333333 405.5 728 c 0
 287.672783672 710.8331208 193.222031279 640.166265686 146 541 c 1
 56 583 l 1
 114.580704256 706.920720542 231.916218312 802.773803807 389 826.5 c 128
 531.484756625 848.021135115 654.320507309 807.717151225 739 749.5 c 128
 787 716.5 823.666666667 675 849 625 c 0
 867 587.363636364 876 543.363636364 876 493 c 1
 868.949138 403.689081337 801.360376716 323.0887713 702.5 325.5 c 0
 668.595198807 326.326946371 652.708833953 335.880666313 635 346 c 1
 644.541401913 276.824836131 701.412547918 215.045188622 780 209 c 1
 778 110 l 1
 762.676056338 108.084507042 742.676056338 93.4178403756 718 66 c 0
 708.666666667 56.6666666667 698.666666667 46.8333333333 688 36.5 c 0
 656 5.5 615.419354839 -10 566.258064516 -10 c 128
 517.096774194 -10 471.677419355 9 430 47 c 1
 371.5 -2.5 306.833333333 -20.1666666667 236 -6 c 0
 111.66618306 19.9028785291 21.3200978927 145.000611829 45 293 c 0
 58.8839280671 380.931544425 106.502893201 450.858796115 175 490 c 0
 299.460131948 558.731714658 446.224333392 490.756666076 459 363 c 128
 461.666666667 336.333333333 457.333333333 311 446 287 c 0
 422.265044319 226.179176067 346.878759837 177.931134575 264 193 c 0
 213.211557018 202.23426236 175.717481422 235.101168911 160 284 c 1
 240 321 l 1
 247.896505376 292.572580645 268.22983871 279.572580645 301 282 c 0
EndSplineSet
EndChar

StartChar: uni0D9A
Encoding: 292 3482 294
Width: 1076
GlyphClass: 2
Flags: HW
LayerCount: 2
Back
Fore
SplineSet
486 79 m 0
 529.844431585 79 554 107.568956334 554 157 c 2
 554 339 l 1
 542.25 339 542.25 339 530.5 339 c 2
 416 338 l 2
 342.899713311 336.508157415 283.595372714 338.623553973 224 320 c 128
 175.502947643 304.844671138 118 263.094292494 118 207.5 c 128
 118 162.304685899 137.487234843 134.302645976 163.5 114 c 0
 192.541666667 91.3333333333 227.041666667 80 267 80 c 0
 292.375 80 312.875 88.3333333333 328.5 105 c 0
 333.5 110.333333333 336 116.666666667 336 124 c 2
 336 129 l 1
 426 129 l 2
 426.666666667 128.333333333 427 126 427 122 c 0
 436.555555556 93.3333333333 456.222222222 79 486 79 c 0
317 587 m 0
 317 563.496769831 336.905131969 545 361 545 c 0
 383.039215686 545 397.705882353 555.333333333 405 576 c 1
 487 538 l 1
 467.037455038 480.774037777 433.918103117 455 357 455 c 0
 283.837802222 455 225 514.641649598 225 587 c 0
 225 684.83821736 304.699715437 731 408 731 c 2
 739 731 l 1
 713 672 l 1
 691.697583731 612.353234446 648 527.722941714 648 458 c 2
 648 433 l 1
 759 433 l 2
 908.5687441 433 1032.11724651 351.274433491 1046 218 c 1
 1047 197 l 1
 1047 138.195402299 1025.66666667 88.1954022989 983 47 c 0
 941.571428571 7 892.904761905 -13 837 -13 c 0
 765.132413426 -13 707.690395614 24.0157021477 674 67 c 1
 747 124 l 1
 770.746031746 94.6666666667 801.079365079 80 838 80 c 0
 899.321934622 80 954 133.497359714 954 194.548387097 c 128
 954 250.207413968 916.971320933 293.014339533 881 311 c 128
 863.666666667 319.666666667 844.5 326 823.5 330 c 0
 795.5 335.333333333 749.666666667 338 686 338 c 2
 649 338 l 1
 646 157 l 1
 646 59.7377090377 583.727425188 -13 486.785714286 -13 c 128
 443.595238095 -13 408.333333333 0.666666666667 381 28 c 1
 349.939393939 0.666666666667 314.840909091 -13 275.704545455 -13 c 128
 196.079404508 -13 137.964762532 13.1083657406 95.5 51 c 0
 49.1666666667 92.3435897436 26 142.676923077 26 202 c 0
 26 261.656565657 49.3333333333 311.98989899 96 353 c 0
 151.587188612 400.164887307 230.753855279 426.164887307 333.5 431 c 0
 361.833333333 432.333333333 389 433 415 433 c 2
 554 433 l 1
 554 499.848484848 569.333333333 569.515151515 600 642 c 1
 576.666666667 641.333333333 553.5 641 530.5 641 c 2
 425 641 l 2
 364.664419967 641 317 633.254194317 317 587 c 0
EndSplineSet
EndChar

StartChar: uni0D9C
Encoding: 294 3484 296
Width: 1071
GlyphClass: 2
Flags: HW
LayerCount: 2
Back
Fore
SplineSet
903 326 m 0
 903 413 854 533 751 533 c 0
 622 533 604.019998257 447.223358421 583 299 c 0
 558.693525384 127.601922084 503.779887742 -4 319 -4 c 0
 172.49609375 -4 49 99.201864594 49 303 c 0
 49 473.807692308 137.333333333 590.141025641 242 652 c 1
 301 584 l 1
 226.23046875 530.900390625 159 444.590126809 159 304 c 0
 159 214.174292786 200.033203125 99.33203125 319 99 c 256
 417.821289062 98.724609375 475.790039062 197.959960938 481.758789062 300.984375 c 128
 493 495 563 635 751 635 c 128
 923 635 995 450 995 328 c 0
 995 182.19921875 928 -3 719 -3 c 1
 704 82 l 5
 841 102 903 171.541015625 903 326 c 0
EndSplineSet
EndChar

StartChar: uni0D9E
Encoding: 296 3486 298
Width: 912
GlyphClass: 2
Flags: HW
LayerCount: 2
Back
Fore
SplineSet
284 62 m 0
 381.415886325 62 421 110.850160705 421 212 c 2
 421 219 l 1
 490 219 l 1
 490 212 l 2
 490 112 533 62 619 62 c 0
 735 62 793 159 793 353 c 0
 793 640.333333333 672 784 430 784 c 0
 314.03030303 784 210.696969697 756.666666667 120 702 c 1
 86 769 l 1
 190.4 827 306.733333333 856 435 856 c 0
 733.730114896 856 870 665.139011945 870 356 c 0
 870 111.333333333 786.666666667 -11 620 -11 c 0
 537.859842094 -11 493.121730288 25.3473413192 454 79 c 1
 415.322857579 20.3982690591 369.443506733 -11 281 -11 c 0
 217.666666667 -11 167.666666667 6.33333333333 131 41 c 0
 94.3333333333 77.6666666667 76 125 76 183 c 128
 76 241 93.1666666667 287 127.5 321 c 128
 161.833333333 355 218.333333333 383.333333333 297 406 c 1
 332 417 l 2
 380.270904871 431.128069718 430 438.702971243 430 488.75 c 128
 430 513.583333333 415.5 531.5 386.5 542.5 c 128
 357.5 553.5 313.333333333 559 254 559 c 2
 251 559 l 1
 265.666666667 536.333333333 273 509.166666667 273 477.5 c 128
 273 409.988790896 214.087668517 371 144.5 371 c 128
 73.6332144776 371 26 412.820040967 26 482 c 0
 26 527.333333333 46 562.833333333 86 588.5 c 128
 126 614.166666667 184.666666667 627 262 627 c 0
 423.333333333 627 504 581 504 489 c 0
 504 450 489.333333333 420.166666667 460 399.5 c 0
 437.884163629 383.918388011 393.217496962 366.418388011 326 347 c 0
 263.333333333 331 218.5 310.333333333 191.5 285 c 128
 164.5 259.666666667 151 227 151 187 c 0
 151 103.666666667 195.333333333 62 284 62 c 0
183 554 m 1
 138.504347933 547.932411082 98 530.301355955 98 488 c 256
 98 454 115.5 437 150.5 437 c 128
 185.5 437 203 454.333333333 203 489 c 0
 203 516.333333333 196.333333333 538 183 554 c 1
EndSplineSet
EndChar

StartChar: uni0DA0
Encoding: 298 3488 300
Width: 834
GlyphClass: 2
Flags: HW
LayerCount: 2
Back
Fore
SplineSet
401 466 m 1
 397.209677568 522.854836478 364.832361726 559 306 559 c 0
 253.333333333 559 227 540 227 502 c 2
 227 496 l 2
 227 492.666666667 227.333333333 490.333333333 228 489 c 1
 155 485 l 1
 153.666666667 493 153 500.666666667 153 508 c 0
 153 592.990183981 216.806572745 627 308 627 c 128
 417.228438186 627 473 553.555756851 473 440 c 2
 473 398 l 1
 385 398 l 2
 327 398 284.666666667 395.666666667 258 391 c 128
 178.251962892 377.044093506 124 325.454122878 124 238.5 c 128
 124 112.48782676 229.970549614 62 365 62 c 0
 516.654618474 62 620.987951807 118.333333333 678 231 c 0
 706 287 720 352.833333333 720 428.5 c 128
 720 582.317552393 660.088872251 690.803102658 557 743 c 0
 506.333333333 770.333333333 450.333333333 784 389 784 c 128
 251.688950718 784 174.895078091 756.498445814 82 702 c 1
 49 769 l 1
 151 827 262.333333333 856 383 856 c 0
 557.664849089 856 684.998046896 777.043749959 747 658 c 128
 780.333333333 594 797 517.333333333 797 428 c 256
 797 242.803346398 723.510606244 108.573893485 601.5 41.5 c 128
 537.833333333 6.5 460.333333333 -11 369 -11 c 0
 193.098885446 -11 46.838617093 67.608088837 50 232 c 0
 50 309.929078014 82 366.595744681 146 402 c 1
 123.333333333 399.333333333 93.3333333333 398 56 398 c 2
 31 398 l 1
 31 466 l 1
 401 466 l 1
EndSplineSet
EndChar

StartChar: uni0DA1
Encoding: 299 3489 301
Width: 819
GlyphClass: 2
Flags: HW
LayerCount: 2
Back
Fore
SplineSet
315 466 m 1
 311.175430184 523.368547236 279.709042344 559 220 559 c 0
 168 559 142 539 142 499 c 0
 142 489.666666667 143.333333333 479.333333333 146 468 c 1
 74 457 l 1
 69.3333333333 475.666666667 67 492.666666667 67 508 c 0
 67 593.236386246 129.834210128 627 221.5 627 c 128
 331.171342085 627 388 553.858919768 388 440 c 2
 388 398 l 1
 300 398 l 2
 180.297053211 398 112 364.306295649 112 253 c 0
 112 193.666666667 137.166666667 147 187.5 113 c 128
 237.833333333 79 311 62 407 62 c 128
 567.45844327 62 707 112.92682967 707 258 c 0
 707 280 705 298 701 312 c 1
 671.666666667 264.666666667 626 241 564 241 c 0
 468.38799565 241 420 317.676229495 420 430 c 0
 420 514.666666667 450.333333333 592.333333333 511 663 c 0
 573 733.666666667 656.666666667 789 762 829 c 1
 792 765 l 1
 686.666666667 726.333333333 605.333333333 675.333333333 548 612 c 1
 566 622 584.333333333 627 603 627 c 0
 697.37511496 627 740 557.438437305 740 460 c 0
 740 434.666666667 738 412.666666667 734 394 c 1
 766 360 782 314.333333333 782 257 c 0
 782 58.6605236814 619.252307014 -11 404 -11 c 128
 280 -11 187.833333333 12.8333333333 127.5 60.5 c 128
 67.1666666667 108.166666667 37 173.666666667 37 257 c 0
 37 396.333333333 124.333333333 466 299 466 c 2
 315 466 l 1
518 466 m 2
 577.333333333 466 627.333333333 457.333333333 668 440 c 1
 668 444 668.333333333 446.666666667 669 448 c 2
 669 457 l 2
 669 528.333333333 641 564 585 564 c 0
 527.207002544 564 496.092468472 520.375591622 489 466 c 1
 518 466 l 2
489 398 m 1
 493.23784159 344.320673195 511.474092224 309 572 309 c 0
 614 309 642 328.666666667 656 368 c 1
 626 388 577 398 509 398 c 2
 489 398 l 1
EndSplineSet
EndChar

StartChar: uni0DA2
Encoding: 300 3490 302
Width: 869
GlyphClass: 2
Flags: HW
LayerCount: 2
Back
Fore
SplineSet
600 560 m 128
 600 534.610528826 620.963735343 514 646.5 514 c 128
 672.068235663 514 692 534.607110826 692 560 c 128
 692 585.39236419 672.066423043 606 646.5 606 c 128
 620.961773903 606 600 585.389982794 600 560 c 128
700.872093023 121.604651163 m 128
 680.310038099 154.503939041 632.256456447 151.628228224 583 127 c 1
 595.659459459 97.4612612613 615.992792793 79.7945945946 644 74 c 0
 663.848148148 68.8222222222 680.681481481 72.1555555556 694.5 84 c 0
 705.501843356 93.4301514476 709.96477801 107.056355185 700.872093023 121.604651163 c 128
304 469 m 1
 251.206546669 408.28752867 154.876596047 400.229574151 97 461 c 0
 53.2621948545 502.65505252 43.6882299239 568.725909552 75 624.5 c 128
 100.792642687 670.443144786 160.064254019 706.915270026 217.307403936 709.042174321 c 0
 285.860550935 711.589308484 343.758082956 689.241917044 391 642 c 2
 400 633 l 2
 402.666666667 630.333333333 405.333333333 627.333333333 408 624 c 1
 416 635.333333333 424.333333333 644.333333333 433 651 c 0
 477.952380952 690.333333333 528.952380952 710 586 710 c 1
 630.151724138 759.057471264 693.151724138 790.724137931 775 805 c 0
 818.688442211 813.090452261 855.688442211 816.090452261 886 814 c 1
 884 716 l 1
 819.959144132 718.784385038 744.687632719 701.524109925 701 678 c 1
 770.457322181 643.27133891 814.294356228 542.798966905 779 447 c 0
 754.27086642 380.421563437 704.27086642 331.254896771 629 299.5 c 0
 580.802469136 279.166666667 514.802469136 269 431 269 c 2
 410.5 269 l 2
 404.166666667 269 397.333333333 269.666666667 390 271 c 0
 320.316872428 272.699588477 270.729423868 268.95781893 241.237654321 259.774691358 c 128
 211.745884774 250.591563786 188 237 170 219 c 1
 153.407821229 197.882681564 145.741154562 177.882681564 147 159 c 0
 147 133.62745098 159.333333333 112.960784314 184 97 c 1
 224.310655483 64.24759242 284.310655483 65.9142590867 364 102 c 0
 402.095238095 121.80952381 435.428571429 143.142857143 464 166 c 1
 492.333333333 186 516 201 535 211 c 0
 592.791136802 243.229672447 646.957803468 252.06300578 697.5 237.5 c 0
 742.019582245 224.67232376 773.186248912 199.17232376 791 161 c 0
 812.328047572 116.922035018 808.994714239 74.2553683515 781 33 c 0
 760.475065617 6.31758530184 732.975065617 -11.6824146982 698.5 -21 c 0
 686.166666667 -24.3333333333 675 -26 665 -26 c 0
 612.636075705 -26 552.695193656 1.88100793016 527 34 c 0
 512.777777778 51.7777777778 503.777777778 64.4444444444 500 72 c 1
 471.333333333 51.3333333333 440.333333333 32 407 14 c 0
 361 -7.33333333333 313.333333333 -19.6666666667 264 -23 c 0
 199.063867017 -27.3875765529 143.39720035 -5.5542432196 97 42.5 c 0
 56.5321636004 84.413116271 33.8115262013 153.127351268 59.5 223 c 128
 67.8333333333 245.666666667 80.6666666667 266 98 284 c 0
 139.349529208 331.400679824 215.846002576 366.148826143 301 368 c 128
 331.666666667 368.666666667 362 368.666666667 392 368 c 2
 432 367 l 1
 480.133333333 367 514.666666667 369.166666667 535.6 373.5 c 0
 585.257080437 383.779331938 632.559015165 405.353160188 662 439 c 1
 658.666666667 438.333333333 654.666666667 438 650 438 c 2
 640 438 l 1
 590.876680911 442.093609924 534.341330845 488.516580688 528.357923497 541.349726776 c 128
 526.119307832 561.116575592 526 580.333333333 528 599 c 1
 490.746406021 580.373203011 460.014292597 540.185803756 456 488 c 1
 456 473 l 1
 358 475 l 1
 358 489 l 1
 355.179966683 558.090816275 299.434429538 613.785939598 227 611 c 0
 207 609.666666667 189.666666667 604.333333333 175 595 c 1
 150.413333333 570.413333333 147.08 548.413333333 165 529 c 1
 190.337423313 510.901840491 212.337423313 511.901840491 231 532 c 1
 304 469 l 1
EndSplineSet
EndChar

StartChar: uni0DA3
Encoding: 301 3491 303
Width: 1468
GlyphClass: 2
Flags: HW
LayerCount: 2
Back
Fore
SplineSet
998 784 m 0
 874.006152325 784 776.302115595 751.917531316 696 702 c 1
 663 769 l 1
 762.608695652 827 878.510869565 856 1010.70652174 856 c 128
 1297.36984056 856 1427 657.288346712 1427 356 c 0
 1427 111.333333333 1345.66666667 -11 1183 -11 c 0
 1102.62096112 -11 1058.91580603 25.3042821392 1022 79 c 1
 998 45 973.333333333 21.5 948 8.5 c 128
 922.666666667 -4.5 891 -11 853 -11 c 0
 778.659574468 -11 725.992907801 20.6666666667 695 84 c 1
 667.666666667 20.6666666667 622 -11 558 -11 c 256
 494 -11 444 19 408 79 c 1
 377.728732647 23.1145833491 342.335093389 -11 264 -11 c 0
 159.259462451 -11 100 61.2170765827 100 170 c 1
 87 147 l 1
 22 184 l 1
 110.666666667 310 186.333333333 402 249 460 c 1
 235 512 209.333333333 538 172 538 c 0
 132.96273563 538 108 514.407236245 108 475 c 128
 108 455 111.666666667 434.333333333 119 413 c 1
 47 398 l 1
 38.3333333333 424.666666667 34 451.333333333 34 478 c 0
 34 560.676982365 87.5162919979 606 171 606 c 0
 235.861111111 606 279.861111111 573.333333333 303 508 c 1
 353 547.333333333 403.5 577 454.5 597 c 128
 505.5 617 567.666666667 627 641 627 c 0
 756.333333333 627 860.333333333 585.333333333 953 502 c 1
 927 427 l 1
 809.983658969 420.775726541 729 348.05413599 729 229.5 c 128
 729 129.773197546 766.665090616 62 860 62 c 256
 945.333333333 62 988 112 988 212 c 2
 988 219 l 1
 1056 219 l 1
 1056 212 l 2
 1056 112 1097.66666667 62 1181 62 c 0
 1293 62 1349 159 1349 353 c 0
 1349 640.333333333 1232 784 998 784 c 0
864 485 m 1
 794.526315789 533 718.859649123 557 637 557 c 0
 494.795828666 557 407.347640799 512.606644173 325 441 c 1
 357.666666667 453 397.333333333 459 444 459 c 0
 560.666666667 459 640.333333333 419 683 339 c 1
 714.333333333 420.333333333 774.666666667 469 864 485 c 1
656 195 m 0
 656 328.715932395 568.207987092 389 430 389 c 0
 343.835282034 389 298.536969826 381.61888362 248 363 c 1
 211.428571429 321.441558442 174.428571429 273.441558442 137 219 c 1
 168 219 l 1
 166.666666667 212.333333333 166 203 166 191 c 0
 166 107.797246921 191.871677727 62 269.5 62 c 128
 350.37408391 62 374 122.797811004 374 212 c 2
 374 219 l 1
 442 219 l 1
 442 208 l 2
 442 127.631713718 474.506057082 62 550 62 c 256
 625.333666198 62 656 114.619751193 656 195 c 0
EndSplineSet
EndChar

StartChar: uni0DA4
Encoding: 302 3492 304
Width: 1329
GlyphClass: 2
Flags: HW
LayerCount: 2
Back
Fore
SplineSet
451 508 m 1
 546.19339381 584.405223979 640.621865432 627 803.5 627 c 128
 878.5 627 946.666666667 615 1008 591 c 1
 1033.26315789 615 1072.9122807 627 1126.94736842 627 c 128
 1239.72008582 627 1298 555.854334841 1298 440 c 2
 1298 398 l 1
 1141 398 l 2
 1081.66666667 398 1037.5 395.166666667 1008.5 389.5 c 128
 929.255182427 374.015380474 876 326.540334916 876 237.35483871 c 128
 876 114.709967414 973.780774051 62 1104 62 c 128
 1176.66666667 62 1242 76.6666666667 1300 106 c 1
 1321 37 l 1
 1290.33333333 21.6666666667 1258 9.66666666667 1224 1 c 1
 1180 -35 1158 -76 1158 -122 c 0
 1158 -179.333333333 1190.33333333 -208 1255 -208 c 0
 1282.33333333 -208 1306.66666667 -202.666666667 1328 -192 c 1
 1344 -258 l 1
 1314 -271.333333333 1276.5 -278 1231.5 -278 c 128
 1141.61592719 -278 1082 -219.065435982 1082 -129 c 128
 1082 -83.6666666667 1096.33333333 -44.3333333333 1125 -11 c 1
 1101 -11 l 2
 979 -11 895 24.3333333333 849 95 c 1
 823.666666667 24.3333333333 777.333333333 -11 710 -11 c 128
 642.666666667 -11 591 19 555 79 c 1
 524.958108581 23.5380466109 489.385997105 -11 412 -11 c 0
 306.391252344 -11 247 60.6592542449 247 170 c 1
 234 147 l 1
 169 184 l 1
 253.666666667 305.333333333 329.333333333 397.333333333 396 460 c 1
 382 512 356.666666667 538 320 538 c 0
 280.931225391 538 255 515.144623925 255 476.5 c 128
 255 457.5 258.666666667 436.333333333 266 413 c 1
 194 398 l 1
 186 423.6 182 452.266666667 182 484 c 2
 182 488 l 2
 182 490.666666667 182.333333333 492.333333333 183 493 c 1
 135.666666667 453.666666667 112 392.666666667 112 310 c 0
 112 268.666666667 117.5 232.166666667 128.5 200.5 c 128
 139.5 168.833333333 159.333333333 133 188 93 c 1
 122 54 l 1
 65.3333333333 135.851851852 37 219.814814815 37 305.888888889 c 128
 37 473.5164498 132.881859465 594.497156663 289 604 c 0
 291.666666667 605.333333333 294.666666667 606 298 606 c 2
 309 606 l 2
 379.666666667 606 427 573.333333333 451 508 c 1
1128.5 559 m 128
 1081.21750992 559 1046 544.244875346 1046 503 c 2
 1046 497 l 2
 1046 494.333333333 1046.33333333 491.333333333 1047 488 c 1
 974 479 l 1
 972.666666667 484.333333333 972 489 972 493 c 2
 972 504 l 2
 972 516.666666667 972.333333333 524.333333333 973 527 c 1
 919.666666667 547 861 557 797 557 c 0
 667.207650273 557 559.207650273 518.333333333 473 441 c 1
 505.666666667 453 545 459 591 459 c 0
 707 459 787 420.333333333 831 343 c 1
 847.666666667 380.333333333 879 410.166666667 925 432.5 c 128
 971 454.833333333 1042 466 1138 466 c 2
 1225 466 l 1
 1222.39751707 523.254624367 1187.62244838 559 1128.5 559 c 128
803 195 m 0
 803 328.308206257 715.511601472 389 577 389 c 0
 490.835282034 389 445.536969826 381.61888362 395 363 c 1
 361.666666667 325.666666667 324.666666667 277.666666667 284 219 c 1
 315 219 l 1
 313.666666667 212.333333333 313 203 313 191 c 0
 313 107.797246921 338.871677727 62 416.5 62 c 128
 497.37408391 62 521 122.797811004 521 212 c 2
 521 219 l 1
 589 219 l 1
 589 208 l 2
 589 127.631713718 621.506057082 62 697 62 c 256
 772.333666198 62 803 114.619751193 803 195 c 0
EndSplineSet
EndChar

StartChar: uni0DA5
Encoding: 303 3493 305
Width: 1198
GlyphClass: 2
Flags: HW
LayerCount: 2
Back
Fore
SplineSet
478.5 62 m 128
 594.517594236 62 673 116.168008451 673 225 c 128
 673 273.666666667 656.666666667 298 624 298 c 0
 604.606060606 298 587.272727273 292 572 280 c 1
 499 303 l 1
 530.030075639 493.954311627 635.390336075 627 842 627 c 0
 873.333333333 627 903.666666667 625 933 621 c 1
 949 625 968.333333333 627 991 627 c 0
 1108.04341168 627 1168 558.554185852 1168 440 c 2
 1168 398 l 1
 1010 398 l 2
 952 398 908 395.166666667 878 389.5 c 128
 797.63728555 374.320376159 745 326.762160876 745 237.204918033 c 128
 745 114.697219221 842.872004938 62 973 62 c 128
 1045.66666667 62 1111 76.6666666667 1169 106 c 1
 1191 37 l 1
 1161.66666667 22.3333333333 1129 10.3333333333 1093 1 c 1
 1049 -35 1027 -76 1027 -122 c 0
 1027 -179.333333333 1059.66666667 -208 1125 -208 c 0
 1152.33333333 -208 1176.33333333 -202.666666667 1197 -192 c 1
 1214 -258 l 1
 1183.33333333 -271.333333333 1145.66666667 -278 1101 -278 c 128
 1011.81934325 -278 951 -219.913754079 951 -130.5 c 128
 951 -85.5 965.333333333 -45.6666666667 994 -11 c 1
 970 -11 l 2
 841.039548023 -11 754.372881356 28.6666666667 710 108 c 1
 670.333333333 28.6666666667 594.333333333 -11 482 -11 c 0
 302.896306364 -11 200 99.7237323008 200 280 c 0
 200 437.114110944 300.882612333 536.168764781 444 555 c 1
 424 559 395.666666667 561 359 561 c 256
 209.408197628 561 113 460.361223735 113 310.461538462 c 128
 113 234.461538462 130.666666667 170.641025641 166 119 c 1
 99 85 l 1
 58.3333333333 157.666666667 38 234.333333333 38 315 c 0
 38 508.272480363 165.622935804 627 359 627 c 0
 422.507246377 627 481.507246377 611.333333333 536 580 c 1
 509 508 l 1
 369.976428384 502.753827486 277 418.718171571 277 276.040983607 c 128
 277 140.250218694 346.115976853 62 478.5 62 c 128
998.5 559 m 128
 951.333459219 559 915 544.186512957 915 503 c 0
 915 498.333333333 915.666666667 493.333333333 917 488 c 1
 843 479 l 1
 841.666666667 489.666666667 841 502.5 841 517.5 c 128
 841 532.5 845 547 853 561 c 1
 845 561 l 2
 698.333150815 561 614.890593918 477.312392821 580 357 c 1
 594 363 612.5 366 635.5 366 c 128
 658.5 366 679.333333333 356.666666667 698 338 c 1
 721.986767867 394.968573684 779.149340898 433.169393278 847.5 451 c 128
 885.833333333 461 939.333333333 466 1008 466 c 2
 1095 466 l 1
 1091.13083409 522.747766752 1058.13478002 559 998.5 559 c 128
EndSplineSet
EndChar

StartChar: uni0DA6
Encoding: 304 3494 306
Width: 1006
GlyphClass: 2
Flags: HW
LayerCount: 2
Back
Fore
SplineSet
45 253 m 1
 36.3333333333 333.166666667 32 399.208333333 32 451.125 c 128
 32 539.938977972 44.5682983786 592.415037687 81.5 634.5 c 128
 120.508695661 678.951769474 184.889014505 694.027746374 261 675 c 0
 280.657442461 669.383587868 260 633.383446106 260 623 c 1
 238 618 l 2
 199.384425216 609.223733004 166.884425216 591.057066337 140.5 563.5 c 0
 125.5 547.833333333 118 527.666666667 118 503 c 256
 118 438.333333333 118.833333333 372.666666667 120.5 306 c 2
 121 286 l 1
 45 253 l 1
685 560 m 128
 685 534.610528826 705.963735343 514 731.5 514 c 128
 757.068235663 514 777 534.607110826 777 560 c 128
 777 585.39236419 757.066423043 606 731.5 606 c 128
 705.961773903 606 685 585.389982794 685 560 c 128
785.872093023 121.604651163 m 128
 765.310038099 154.503939041 717.256456447 151.628228224 668 127 c 1
 680.659459459 97.4612612613 700.992792793 79.7945945946 729 74 c 0
 748.848148148 68.8222222222 765.681481481 72.1555555556 779.5 84 c 0
 790.501843356 93.4301514476 794.96477801 107.056355185 785.872093023 121.604651163 c 128
389 469 m 1
 336.206546669 408.28752867 239.876596047 400.229574151 182 461 c 0
 138.262194854 502.65505252 128.688229924 568.725909552 160 624.5 c 128
 185.792642687 670.443144786 245.064254019 706.915270026 302.307403936 709.042174321 c 0
 370.860550935 711.589308484 428.758082956 689.241917044 476 642 c 2
 485 633 l 2
 487.666666667 630.333333333 490.333333333 627.333333333 493 624 c 1
 501 635.333333333 509.333333333 644.333333333 518 651 c 0
 562.952380952 690.333333333 613.952380952 710 671 710 c 1
 715.151724138 759.057471264 778.151724138 790.724137931 860 805 c 0
 903.688442211 813.090452261 940.688442211 816.090452261 971 814 c 1
 969 716 l 1
 904.959144132 718.784385038 829.687632719 701.524109925 786 678 c 1
 855.457322181 643.27133891 899.294356228 542.798966905 864 447 c 0
 839.27086642 380.421563437 789.27086642 331.254896771 714 299.5 c 0
 665.802469136 279.166666667 599.802469136 269 516 269 c 2
 495.5 269 l 2
 489.166666667 269 482.333333333 269.666666667 475 271 c 0
 405.316872428 272.699588477 355.729423868 268.95781893 326.237654321 259.774691358 c 128
 296.745884774 250.591563786 273 237 255 219 c 1
 238.407821229 197.882681564 230.741154562 177.882681564 232 159 c 0
 232 133.62745098 244.333333333 112.960784314 269 97 c 1
 309.310655483 64.24759242 369.310655483 65.9142590867 449 102 c 0
 487.095238095 121.80952381 520.428571429 143.142857143 549 166 c 1
 577.333333333 186 601 201 620 211 c 0
 677.791136802 243.229672447 731.957803468 252.06300578 782.5 237.5 c 0
 827.019582245 224.67232376 858.186248912 199.17232376 876 161 c 0
 897.328047572 116.922035018 893.994714239 74.2553683515 866 33 c 0
 845.475065617 6.31758530184 817.975065617 -11.6824146982 783.5 -21 c 0
 771.166666667 -24.3333333333 760 -26 750 -26 c 0
 697.636075705 -26 637.695193656 1.88100793016 612 34 c 0
 597.777777778 51.7777777778 588.777777778 64.4444444444 585 72 c 1
 556.333333333 51.3333333333 525.333333333 32 492 14 c 0
 446 -7.33333333333 398.333333333 -19.6666666667 349 -23 c 0
 284.063867017 -27.3875765529 228.39720035 -5.5542432196 182 42.5 c 0
 141.5321636 84.413116271 118.811526201 153.127351268 144.5 223 c 128
 152.833333333 245.666666667 165.666666667 266 183 284 c 0
 224.349529208 331.400679824 300.846002576 366.148826143 386 368 c 128
 416.666666667 368.666666667 447 368.666666667 477 368 c 2
 517 367 l 1
 565.133333333 367 599.666666667 369.166666667 620.6 373.5 c 0
 670.257080437 383.779331938 717.559015165 405.353160188 747 439 c 1
 743.666666667 438.333333333 739.666666667 438 735 438 c 2
 725 438 l 1
 675.876680911 442.093609924 619.341330845 488.516580688 613.357923497 541.349726776 c 128
 611.119307832 561.116575592 611 580.333333333 613 599 c 1
 575.746406021 580.373203011 545.014292597 540.185803756 541 488 c 1
 541 473 l 1
 443 475 l 1
 443 489 l 1
 440.179966683 558.090816275 384.434429538 613.785939598 312 611 c 0
 292 609.666666667 274.666666667 604.333333333 260 595 c 1
 235.413333333 570.413333333 232.08 548.413333333 250 529 c 1
 275.337423313 510.901840491 297.337423313 511.901840491 316 532 c 1
 389 469 l 1
EndSplineSet
EndChar

StartChar: uni0DA7
Encoding: 305 3495 307
Width: 940
GlyphClass: 2
Flags: HW
LayerCount: 2
Back
Fore
SplineSet
555 837 m 1
 663.126760563 736.882629108 746.126760563 616.549295775 804 476 c 0
 861.354653547 339.44130108 888.021320213 198.107967746 884 52 c 1
 884 -3 l 1
 37 0 l 1
 36 383 l 1
 146 383 l 1
 147 109 l 1
 774 107 l 1
 765.280342836 292.292714738 710.113676169 459.126048072 608.5 607.5 c 0
 570.833333333 662.5 528 712.666666667 480 758 c 1
 555 837 l 1
EndSplineSet
EndChar

StartChar: uni0DA9
Encoding: 307 3497 309
Width: 965
GlyphClass: 2
Flags: HW
LayerCount: 2
Back
Fore
SplineSet
294 488 m 1
 356.354303232 560.330991749 471.931381612 576.068618388 544 504 c 0
 566.484848485 481.515151515 579.151515152 453.181818182 582 419 c 256
 587.317349518 355.191805788 544.738366814 293.508340612 478 279 c 0
 462 273.666666667 438.666666667 271 408 271 c 2
 255 271 l 1
 243 251.666666667 237 234 237 218 c 0
 237 187.333333333 241.666666667 164.833333333 251 150.5 c 0
 283.438228438 100.684149184 326.104895105 80.1841491841 379 89 c 0
 417.666666667 94.5238095238 447 115.857142857 467 153 c 1
 558 157 l 1
 578.917882824 115.164234351 635.878342578 74.2814172012 704 92.5 c 128
 770.864016986 110.382237101 802.267789828 188.84403195 818 272 c 0
 830.04109589 348.260273973 825.707762557 421.593607306 805 492 c 0
 784.169862203 565.518133402 758.177181881 614.350502788 710 655 c 128
 672.695114745 686.475996934 645.125183125 707.27625796 598.5 722 c 0
 562.611111111 733.333333333 524.555555556 739 484.333333333 739 c 128
 402.504498966 739 354.646469524 718.698008449 302 689 c 0
 249.066884176 659.140293638 207.733550843 624.140293638 178 584 c 1
 94 643 l 1
 130.59079602 695.071517413 182.924129353 740.904850746 251 780.5 c 0
 323.783625731 822.833333333 394.116959064 844 462 844 c 0
 561.733333333 844 642.4 825.333333333 704 788 c 0
 792.583512545 734.3130227 853.416845878 664.146356033 886.5 577.5 c 0
 945.583518832 422.757450679 942.798726205 221.277961927 867 100 c 0
 831 42.6666666667 783.666666667 6.33333333333 725 -9 c 0
 641.451827586 -32.8709064041 564.392993179 2.78113096833 515 46 c 1
 468.623188406 3.33333333333 416.623188406 -18 359 -18 c 0
 303.272727273 -18 253.772727273 0.666666666667 210.5 38 c 0
 157.068692736 84.0975984242 112.36489559 167.277134566 142 271 c 1
 30 272 l 1
 31 375 l 1
 405 375 l 2
 457.777777778 375 482.111111111 387.333333333 478 412 c 0
 478 420 474.666666667 426.666666667 468 432 c 0
 460.5 442 446.458333333 447 425.875 447 c 128
 405.291666667 447 388 438.333333333 374 421 c 1
 294 488 l 1
EndSplineSet
EndChar

StartChar: uni0DAD
Encoding: 311 3501 313
Width: 1129
GlyphClass: 2
Flags: HW
LayerCount: 2
Back
Fore
SplineSet
490 74 m 1
 529.248001163 74 557 100.14247563 557 143 c 2
 557 181.5 l 1
 558 276.5 l 1
 558 328 l 1
 423 327 l 2
 343.641025641 327 285.134615385 321.5 247.480769231 310.5 c 128
 209.826923077 299.5 181.166666667 285 161.5 267 c 128
 141.833333333 249 132 224.666666667 132 194 c 0
 132 121.825704117 203.751387751 73 280 73 c 2
 490 73 l 1
 490 74 l 1
648 149 m 2
 648 53.3662111696 589.542489984 -12.7663396434 499 -16 c 1
 499 -17 l 1
 276 -17 l 2
 210.315789474 -17 154.815789474 3.5 109.5 44.5 c 0
 64.5 85.2142857143 42 135.380952381 42 195 c 0
 42 343 168.666666667 417 422 417 c 2
 558 417 l 1
 558 444 l 2
 558 494.222222222 572.666666667 553.555555556 602 622 c 1
 430 621 l 2
 396 621 370.333333333 615.833333333 353 605.5 c 128
 335.666666667 595.166666667 327 583.5 327 570.5 c 128
 327 546.30918329 342.981578391 531 366 531 c 256
 386.703667533 531 403 551.713323896 403 572 c 1
 494 574 l 1
 494 500.540348613 435.065337086 441 363 441 c 0
 293.735216052 441 236 499.444390508 236 569 c 0
 236 655.473618748 321.344483928 710 413 710 c 2
 738 710 l 1
 714.751431034 655.365862931 692.194926397 607.020664756 673.5 555 c 0
 657.166666667 509.550724638 649 472.884057971 649 445 c 2
 649 438.5 l 2
 649 434.833333333 648.666666667 428.333333333 648 419 c 1
 767 417 l 1
 913.070425555 404.407721935 1021.52627035 320.05340406 1030 176 c 1
 1030 97.2280701754 1004 27.3947368421 952 -33.5 c 0
 885.177679434 -111.752454347 782.344346101 -164.919121013 643.5 -193 c 0
 613.833333333 -199 584.5 -204.5 555.5 -209.5 c 0
 471.635135135 -223.959459459 410.585585586 -236.657657658 372.351351351 -247.594594595 c 128
 284.344835037 -272.768937386 192.039998987 -331.544728212 129 -390 c 1
 68 -325 l 1
 174.646271511 -225.124920331 301.646271511 -161.791586998 449 -135 c 0
 524.863607883 -121.206616749 661.824641338 -96.9526075986 705 -84 c 0
 781.666666667 -58.6666666667 840 -24.1666666667 880 19.5 c 128
 920 63.1666666667 940 109.666666667 940 159 c 128
 940 268.104955825 866.527238733 317.424517867 760 327 c 1
 648 328 l 1
 648 149 l 2
EndSplineSet
EndChar

StartChar: uni0DAF
Encoding: 313 3503 315
Width: 590
GlyphClass: 2
Flags: HW
LayerCount: 2
Back
Fore
SplineSet
360 -114.5 m 128
 360 -165.206954855 411.610091279 -197 465 -197 c 0
 508.454545455 -197 544.121212121 -181.666666667 572 -151 c 1
 636 -211 l 1
 599.194977601 -250.035629817 537.435289255 -284 468 -284 c 128
 356.537659314 -284 273 -211.850622339 273 -110 c 0
 273 -82.6666666667 279.666666667 -56.6666666667 293 -32 c 1
 281 -33 281 -33 269 -34 c 128
 261 -34.6666666667 252.333333333 -35 243 -35 c 0
 176.80952381 -35 122.642857143 -15 80.5 25 c 0
 38.8333333333 64.5480225989 18 113.548022599 18 172 c 0
 18 204.666666667 25 235 39 263 c 0
 81.0298507463 348.333333333 166.696517413 391 296 391 c 1
 398 390 l 1
 398 471.341107695 334.102819284 537 254 537 c 256
 211.272727273 537 176.272727273 522 149 492 c 1
 86 551 l 1
 123.655350306 592.185539397 182.510812329 624 256.5 624 c 128
 330.358241037 624 386.451276345 591.253323485 423.5 549.5 c 0
 468.5 498.785714286 491 434.285714286 491 356 c 0
 491 336.666666667 489 319 485 303 c 1
 448 303 l 1
 365 304 l 2
 299.666666667 304 260.333333333 303.333333333 247 302 c 0
 165.72144126 293.872144126 105 250.494463217 105 168 c 128
 105 93.3647240111 167.953988751 52 244 52 c 0
 257.777777778 52 277.555555556 53.5 303.333333333 56.5 c 0
 352.024691358 62.1666666667 387.308641975 65 409.185185185 65 c 128
 461.34880888 65 512.812777588 44.6180755528 544 19 c 1
 564 -2 l 1
 489 -50 l 1
 473.666666667 -38 455.833333333 -32 435.5 -32 c 128
 393.165015018 -32 360 -71.0742991485 360 -114.5 c 128
EndSplineSet
EndChar

StartChar: uni0DB1
Encoding: 315 3505 317
Width: 1040
GlyphClass: 2
Flags: HW
LayerCount: 2
Back
Fore
SplineSet
356 438 m 0
 293.147051998 438 232 492.635109309 232 554.928571429 c 128
 232 616.131295349 257.891349148 648.422813323 297 670 c 0
 332.041666667 689.333333333 377.375 699 433 699 c 2
 708 699 l 1
 690.553119744 657.761919395 670.252226049 614.18979854 655 565.5 c 0
 634.333333333 499.525641026 624 431.358974359 624 361 c 1
 664.62745098 385.666666667 703.784313725 398 741.470588235 398 c 128
 819.035634855 398 872.379084344 371.205384514 910.5 330.5 c 0
 951.5 286.720338983 972 232.553672316 972 168 c 0
 972 108.851851852 953.333333333 53.3518518519 916 1.5 c 0
 863.26746167 -71.7396365701 783.76746167 -122.406303237 677.5 -150.5 c 0
 609.862414126 -168.381200863 472.110334407 -190.101651894 403.5 -208 c 128
 313.041563791 -231.597852924 215.497778382 -288.751851348 148 -345 c 1
 87 -274 l 1
 200.088098918 -179.205564142 331.754765585 -118.705564142 482 -92.5 c 0
 559.179487179 -79.0384615385 612.641025641 -68.5897435897 642.384615385 -61.1538461538 c 0
 728.840917841 -39.5397705398 793.546046046 -1.82182182182 836.5 52 c 0
 864.166666667 86.6666666667 878 125.333333333 878 168 c 0
 878 242.239039595 821.947376223 304 748 304 c 0
 675.394695944 304 624 250.637524219 624 179 c 1
 623 179 l 1
 623 2 l 1
 530 2 l 1
 530 316 l 1
 146 316 l 1
 138.666666667 301.333333333 135 285 135 267 c 128
 135 226.137396813 163.726985272 198.00871069 187.5 177 c 128
 212.681626734 154.746469398 248.816674253 128.789117571 265.5 100.5 c 0
 285.833333333 66.0217391304 296 33.5217391304 296 3 c 1
 202 3 l 1
 202 31.119047619 183 60.7857142857 145 92 c 0
 75.6666666667 145.444444444 41 204.777777778 41 270 c 0
 41 317.020833333 60 363.6875 98 410 c 1
 530 411 l 1
 530 478.684210526 542.333333333 543.684210526 567 606 c 1
 419 606 l 2
 382.925925926 606 355.925925926 598.666666667 338 584 c 0
 330.666666667 578 327 570.666666667 327 562 c 256
 327 544.770875997 338.745098732 532 356 532 c 128
 376.427100076 532 386 550.454468061 386 573 c 1
 481 573 l 1
 481 500.256181259 428.767982381 438 356 438 c 0
EndSplineSet
EndChar

StartChar: uni0DB4
Encoding: 317 3508 319
Width: 960
GlyphClass: 2
Flags: HW
LayerCount: 2
Back
Fore
SplineSet
122 699 m 0
 240.819475988 699 313 611.973370948 313 490 c 2
 311 98 l 1
 646 98 l 2
 663.333333333 98 676.666666667 103.666666667 686 115 c 128
 695.333333333 126.333333333 700 136 700 144 c 2
 700 538 l 2
 700 585.727272727 716 625.227272727 748 656.5 c 0
 779.03875969 686.833333333 815.705426357 702 858 702 c 0
 912.190747848 702 955.676227068 673.589972144 980 640 c 1
 899 581 l 1
 887.266666667 595.666666667 873.333333333 603 857.2 603 c 128
 819.137994286 603 803.336179751 570.922097096 800 532 c 1
 800 144 l 2
 800 108.1 785.666666667 75.1 757 45 c 0
 727.158730159 13.6666666667 690.158730159 -2 646 -2 c 2
 212 -2 l 1
 213 490 l 2
 213 555.959399557 184.827122823 599 124 599 c 0
 103.403508772 599 87.2543859649 594.166666667 75.5526315789 584.5 c 0
 54.5175438596 567.123188406 44 549.862318841 44 532.717391304 c 128
 44 503.140489153 60.2506433384 480 87.2857142857 480 c 128
 98.8095238095 480 108.380952381 485.333333333 116 496 c 1
 197 438 l 1
 175.562997737 406.408628244 134.729755417 381 86 381 c 128
 1.43853415175 381 -55 450.831903303 -55 528 c 0
 -55 621.57835175 29.4811434075 699 122 699 c 0
EndSplineSet
EndChar

StartChar: uni0DB6
Encoding: 319 3510 321
Width: 953
GlyphClass: 2
Flags: HW
LayerCount: 2
Back
Fore
SplineSet
339 598 m 0
 473.693592925 598 606 528.555502759 606 401 c 0
 606 357.66041133 595.222110325 338.190236411 583 312 c 128
 578.333333333 302 573 290 567 276 c 256
 554.822695035 247.586288416 554.656028369 210.086288416 566.5 163.5 c 0
 573.185993534 137.201758768 588.63345427 91 616 91 c 0
 711.709055825 88.1850277698 767.527031397 205.0000154 792.5 293 c 0
 820.547312048 391.833385311 820.271581782 478.002100066 775 561 c 128
 727.378740478 648.305642457 648.149307247 715.506824048 551.5 753.5 c 128
 503.166666667 772.5 451.166666667 782 395.5 782 c 128
 339.833333333 782 288.833333333 770.666666667 242.5 748 c 128
 196.166666667 725.333333333 152 694.333333333 110 655 c 1
 37 751 l 1
 99.957111198 811.989701473 186.123777865 851.323034806 295.5 869 c 0
 328.5 874.333333333 361 877 393 877 c 0
 540.859605945 877 667.324812163 833.97410182 755 767 c 128
 842.35511067 700.270401572 913 590.995942974 913 443.5 c 128
 913 307.993576023 879.644838286 197.637817907 826 116.5 c 128
 782.959716497 51.4015712024 715.433176091 -13 619 -13 c 0
 552.423423423 -13 508.256756757 6.16666666667 486.5 44.5 c 0
 454.095879556 101.592974115 443.595879556 162.926307448 455 228.5 c 0
 459 251.5 466.833333333 278.333333333 478.5 309 c 128
 523.022774235 426.031292275 435.731082561 499 331 499 c 0
 262.907518159 499 220.566130449 445.853333675 195 397.5 c 128
 159.897969434 331.111376973 133.948913723 206.310673408 180.5 133.5 c 128
 193.5 113.166666667 211.5 102.333333333 234.5 101 c 128
 269.941483518 98.9454212453 297.416685607 109.666060582 296.5 139 c 128
 295.727551919 163.718338607 274.887735497 183.422452901 252 188 c 0
 250.666666667 187.333333333 251.833333333 191.166666667 255.5 199.5 c 128
 262.608285655 215.655194671 284.377857504 268.311071248 289 266 c 1
 268.647154122 274.722648234 279.777335502 273.854870961 295 268 c 128
 352.230841834 245.988137756 406.163117505 188.979651342 403.890939597 116.401006711 c 128
 401.3957612 36.6992080139 348.719458561 -11 267 -11 c 128
 183.962980786 -11 133.869762559 17.9516992685 96.5 64.5 c 0
 56.8333333333 113.909356725 37 178.409356725 37 258 c 0
 37 352.253164557 64.5 431.753164557 119.5 496.5 c 0
 176.980286738 564.166666667 250.146953405 598 339 598 c 0
EndSplineSet
EndChar

StartChar: uni0DB8
Encoding: 321 3512 323
Width: 1218
GlyphClass: 2
Flags: HW
LayerCount: 2
Back
Fore
SplineSet
617 249 m 0
 617 275.562457336 592.379082428 293 566 293 c 0
 515.510580572 293 488.588121569 245.037661442 485 196 c 1
 496 195 l 1
 576.666666667 195 617 213 617 249 c 0
397 533 m 1
 470.64841981 610.15548742 584.858032722 672 726 672 c 0
 807.005649718 672 883.172316384 651.166666667 954.5 609.5 c 0
 1023.03973074 569.461939468 1074.42466343 517.561901459 1108.65479806 453.799885973 c 128
 1142.88493269 390.037870488 1160 326.964052288 1160 264.578431373 c 128
 1160 132.341667174 1108.55978619 37.3154657134 1039.5 -30.5 c 128
 977.869475643 -91.0200644583 879.576594002 -148 768 -148 c 128
 668.661369076 -148 594.95258552 -119.769979779 534 -78.5 c 0
 464.986364806 -31.7720178372 419.319698139 25.7279821628 397 94 c 1
 53 98 l 1
 53 510 l 1
 155 510 l 1
 155 199 l 1
 384 196 l 1
 384 249.714285714 401.5 296.214285714 436.5 335.5 c 0
 471.839393939 375.166666667 514.006060606 395 563 395 c 0
 606.487179487 395 643.487179487 380.833333333 674 352.5 c 0
 704 324.642857143 719 292.595238095 719 256.357142857 c 128
 719 186.007817852 689.502063825 147.945591014 645.5 123.5 c 0
 608.9 103.166666667 563.4 93 509 93 c 2
 508 93 l 1
 530.57068925 51.8416843096 564.904022583 18.3416843096 611 -7.5 c 0
 690.969823707 -52.3315678357 790.619262941 -59.5332374173 876 -21.5 c 128
 912.666666667 -5.16666666667 944.5 17 971.5 45 c 0
 1029.16666667 104.802469136 1058 175.135802469 1058 256 c 0
 1058 354.624784934 1013.60739065 430.1410781 959 480 c 0
 893.285714286 540 814.952380952 570 724 570 c 0
 616.169598672 570 525.999982515 521.571409659 470 461 c 1
 397 533 l 1
EndSplineSet
EndChar

StartChar: uni0DB9
Encoding: 322 3513 324
Width: 905
GlyphClass: 2
Flags: HW
LayerCount: 2
Back
Fore
SplineSet
787 377 m 0
 787 627.052552552 674.057592056 784 434 784 c 0
 370.666666667 784 320.166666667 779.5 282.5 770.5 c 0
 220.502070393 755.686335404 159.335403727 731.519668737 99 698 c 1
 67 766 l 1
 177.666666667 826 299.333333333 856 432 856 c 0
 521.333333333 856 598.666666667 837.5 664 800.5 c 0
 796.666666667 725.367346939 863 583.200680272 863 374 c 0
 863 221.781375037 819.505756323 96.7111236361 732 34.5 c 128
 689.333333333 4.16666666667 641.5 -11 588.5 -11 c 128
 535.5 -11 497 -7 473 1 c 1
 466 68 l 1
 495.333333333 76 510 92.3333333333 510 117 c 0
 510 152.333333333 483.5 170 430.5 170 c 128
 377.5 170 351 152.333333333 351 117 c 0
 351 92.3333333333 366 76 396 68 c 1
 389 1 l 1
 363 -7 335.666666667 -11 307 -11 c 0
 132.475700065 -11 41 123.882891425 41 306 c 0
 39.6856114426 391.435256228 57.8522781093 460.435256228 95.5 513 c 0
 132.739067055 564.994169096 178.572400389 590.32750243 233 589 c 0
 286.839878525 589 322 560.031997067 322 509 c 0
 322 490.463004967 311 416.051852811 311 394 c 0
 311 332 348.5 301 423.5 301 c 128
 498.5 301 542.666666667 329.333333333 556 386 c 1
 530.666666667 370.666666667 500.166666667 363 464.5 363 c 128
 394.74609699 363 348 404.958069463 348 474 c 128
 348 547.486226211 403.717904328 589 483 589 c 256
 579.348993795 589 630 522.305645531 630 420.5 c 128
 630 304.393090987 546.243228227 234 427 234 c 0
 314.962670047 234 239 283.218754695 239 391 c 0
 239 405.13323533 249 474.809852374 249 486 c 0
 249 510 239 522 219 522 c 0
 192.915543576 523.372866128 169.248876909 503.872866128 148 463.5 c 0
 125.376478775 420.515309673 114.709812109 369.348643006 116 310 c 0
 116 170.742949976 172.412868844 58 303 58 c 2
 308 58 l 2
 308.666666667 57.3333333333 309.5 57 310.5 57 c 128
 311.5 57 312.333333333 57.3333333333 313 58 c 1
 290.333333333 76.6666666667 279 101.5 279 132.5 c 128
 279 205.214768788 344.420316366 231 425 231 c 2
 438 231 l 2
 515.873454757 231 583 204.022100058 583 133 c 128
 583 102.333333333 571.333333333 77.3333333333 548 58 c 1
 577 58 l 2
 732.727891456 58 787 206.084615253 787 377 c 0
558 447 m 1
 552.070407263 492.064904803 528.673601191 524 481 524 c 0
 440.333333333 524 420 507.666666667 420 475 c 0
 420 438.594203034 446.259216603 426 487 426 c 128
 511 426 534.666666667 433 558 447 c 1
EndSplineSet
EndChar

StartChar: uni0DBA
Encoding: 323 3514 325
Width: 941
GlyphClass: 2
Flags: HW
LayerCount: 2
Back
Fore
SplineSet
705 523.5 m 128
 705 490.363647468 729.466835715 471 761 471 c 2
 764 471 l 1
 817 471 l 5
 817 135 l 2
 817 97.0333333333 803.333333333 63.7 776 35 c 0
 746.158730159 3.66666666667 708.158730159 -12 662 -12 c 2
 434 -12 l 1
 434 40 l 1
 390.512820513 4.66666666667 328.845703125 -13 271 -13 c 0
 133.28515625 -13 31 86.0458984375 31 240 c 0
 31 391.166992188 153.319335938 495 304 495 c 1
 304 400 l 1
 207.251953125 400 131 336.038085938 131 241.5 c 128
 131 133.575195312 186.990234375 81 270 81 c 0
 326.500976562 81 380.65587217 111.367784707 403 149 c 0
 430.663952514 188.519932162 433 213.472325168 433 287 c 1
 533 288 l 1
 533 84 l 1
 662 84 l 2
 681.333333333 84 695.5 90 704.5 102 c 128
 713.5 114 718 125 718 135 c 2
 717 305 l 1
 717 325.5 l 1
 718 360 l 1
 718 382 l 1
 693.1875 387.513888889 673.151041667 397.392361111 657.890625 411.635416667 c 0
 623.296875 443.922916667 606 481.044444444 606 523 c 0
 606 610.183427353 679.700528533 677 767 677 c 0
 820.218390805 677 863.218390805 656.333333333 896 615 c 1
 816 559 l 1
 804.848484848 574.333333333 790.060606061 582 771.636363636 582 c 128
 735.726301391 582 705 559.247347388 705 523.5 c 128
EndSplineSet
EndChar

StartChar: uni0DBB
Encoding: 324 3515 326
Width: 1056
GlyphClass: 2
Flags: HW
LayerCount: 2
Back
Fore
SplineSet
731 156 m 0
 628.982369833 156 552 83.1414659439 552 -18 c 0
 552 -65.3333333333 569.333333333 -106.333333333 604 -141 c 128
 638.666666667 -175.666666667 681 -193 731 -193 c 0
 802.16689164 -193 870.419356753 -145.051967125 893 -95.5 c 128
 905 -69.1666666667 911 -43.5 911 -18.5 c 128
 911 36.249174715 884.854265432 78.6216429436 854.5 106 c 0
 817.543478261 139.333333333 776.376811594 156 731 156 c 0
625 224 m 1
 663.745098039 241.333333333 701.764705882 250 739.058823529 250 c 128
 820.754942491 250 885.960806799 215.039193201 929 172 c 0
 980.333333333 120.666666667 1006 58 1006 -16 c 0
 1006 -95.1891891892 979 -160.689189189 925 -212.5 c 0
 873.234741784 -262.166666667 809.901408451 -287 735 -287 c 0
 651 -287 582 -260 528 -206 c 0
 476 -154 450 -90 450 -14 c 2
 450 -6 l 1
 451.373779637 36.5871687587 455.883891213 68.9006276151 463.530334728 90.940376569 c 0
 474.199000465 121.691236634 493.022222222 164.044444444 520 218 c 256
 564.594594595 307.189189189 596.261261261 405.189189189 615 512 c 0
 621.666666667 550 626 588.666666667 628 628 c 1
 212 628 l 1
 174 623.777777778 155 594.444444444 155 540 c 2
 155 0 l 1
 54 -17 l 1
 54 540 l 2
 54 583.714285714 60.1666666667 616.142857143 72.5 637.285714286 c 128
 100.229877268 684.822646746 146.053804255 722 209 722 c 2
 819 722 l 1
 806 627 l 1
 718 627 l 1
 714.966668814 508.700083761 686.22557389 371.141377336 647 277 c 128
 637 253 629.666666667 235.333333333 625 224 c 1
EndSplineSet
EndChar

StartChar: uni0DBD
Encoding: 325 3517 327
Width: 1383
GlyphClass: 2
Flags: HW
LayerCount: 2
Back
Fore
SplineSet
556 137 m 0
 590.077897442 137 612 167.456616004 612 201 c 128
 612 236.859555753 591.983881631 259.483864233 569 274 c 0
 542.611111111 290.666666667 513.944444444 299 483 299 c 1
 475.497420021 265.988648091 478.164086687 231.655314757 491 196 c 0
 505.16 156.666666667 526.826666667 137 556 137 c 0
1220 305.777777778 m 128
 1220 412.702890743 1162.55347329 509.446526708 1105 567 c 1
 1177 641 l 1
 1241.37442922 576.625570776 1285.37442922 499.45890411 1309 409.5 c 0
 1317.66666667 376.5 1322 341.333333333 1322 304 c 128
 1322 156.154811127 1222.26253729 36 1087 36 c 0
 1010.45679012 36 953.12345679 68.1666666667 915 132.5 c 0
 888.771058315 176.761339093 872.771058315 231.594672426 867 297 c 1
 856.556083086 373.091394659 840.056083086 427.091394659 817.5 459 c 0
 789.224137931 499 746.724137931 519 690 519 c 0
 603.704632143 519 541.26933569 463.313199952 509 401 c 1
 568.024081115 398.376707506 617.357414449 376.876707506 657 336.5 c 0
 695.666666667 297.117283951 715 252.283950617 715 202 c 0
 715 113.076472163 644.161650395 34 556 34 c 0
 436.568573083 34 379 156.360580714 379 287 c 1
 267.277526731 255.079293352 171 147.260012469 171 7 c 0
 171 -73.162601626 200 -140.829268293 258 -196 c 0
 316.170940171 -251.333333333 388.170940171 -279 474 -279 c 2
 476 -279 l 1
 593.655069833 -275.983203338 691.911284164 -217.86823332 750 -147 c 1
 829 -212 l 1
 762.201066667 -293.4112 678.0344 -345.9112 576.5 -369.5 c 0
 543.5 -377.166666667 510 -381 476 -381 c 2
 474 -381 l 2
 348.601617421 -381 249.676044144 -330.461804802 183.5 -265.5 c 128
 120.992037687 -204.138972775 66 -109.416103525 66 5.5 c 128
 66 115.606293804 105.754034699 198.072950099 159 261 c 0
 221.606965174 334.990049751 300.940298507 379.990049751 397 396 c 1
 418.007933847 462.962789138 455.507933847 517.129455805 509.5 558.5 c 0
 563.008474576 599.5 620.13559322 620 680.881355932 620 c 128
 741.627118644 620 789.5 609.666666667 824.5 589 c 128
 916.145551363 534.885483957 956.496945587 445.03665296 968 307 c 0
 974.446601942 257.038834951 983.391585761 221.715210356 994.834951456 201.029126214 c 128
 1014.43458381 165.59902158 1035.95733532 140.549763377 1084 139 c 128
 1129.8396055 137.521303048 1160.80075419 159.912074804 1182 187 c 0
 1207.33333333 219.37037037 1220 258.962962963 1220 305.777777778 c 128
EndSplineSet
EndChar

StartChar: uni0DC0
Encoding: 326 3520 328
Width: 1061
GlyphClass: 2
Flags: HW
LayerCount: 2
Back
Fore
SplineSet
272 351.5 m 128
 272 384.039282774 244.696355982 409 213 409 c 256
 180.551407831 409 159.445148857 389.058021001 152 363 c 1
 151 352 l 1
 153.636947545 320.356629454 177.486567562 291 212 291 c 128
 246.195994925 291 272 317.481072852 272 351.5 c 128
63 364 m 1
 79.5684757614 460.649441941 153.553612719 528 264 528 c 0
 344.382113821 528 413.548780488 498.666666667 471.5 440 c 0
 514.284669335 396.687124871 560 319.370377768 560 242.166666667 c 128
 560 210.944444444 558.333333333 187.555555556 555 172 c 1
 872 172 l 1
 892.666666667 223.666666667 903 275.083333333 903 326.25 c 128
 903 441.579788789 853.504457584 535.00013712 793.5 598.5 c 128
 731.415690748 664.200870956 637.736045682 718 516 718 c 0
 426.4 718 346.066666667 690.666666667 275 636 c 1
 221 706 l 1
 309.375 773.333333333 406.375 807 512 807 c 0
 654.246009158 807 768.831251048 745.830302014 846 671 c 128
 926.17079183 593.258626104 991 476.090693012 991 325 c 0
 991 249 973.666666667 176.333333333 939 107 c 2
 927 83 l 1
 430 83 l 1
 455 146 l 2
 466.333333333 172.666666667 472 200 472 228 c 0
 472 322.637618223 411.488603068 394.326669938 341 423 c 1
 353.666666667 402.733333333 360 380.666666667 360 356.8 c 128
 360 266.26925233 297.517596757 202 214 202 c 256
 133.619936875 202 64 269.49515749 64 349 c 2
 64 364 l 1
 63 364 l 1
EndSplineSet
EndChar

StartChar: uni0DC1
Encoding: 327 3521 329
Width: 1126
GlyphClass: 2
Flags: HW
LayerCount: 2
Back
Fore
SplineSet
667 514 m 1
 636.264513431 515.920967911 479.939101104 503 479 503 c 4
 477.666666667 479 479.333333333 449.833333333 484 415.5 c 128
 497.084872947 319.232720461 518.643503178 182.193191402 481 97 c 128
 452.913311009 33.4353880727 377.731445312 -7 279.5 -7 c 128
 85 -7 43 146.99033839 43 354 c 0
 43 550 149.974609375 666.682617188 220 686 c 1
 276 606 l 1
 205.559886926 563.735932156 159 499 151 425 c 128
 147.98284089 397.091278229 148 366 148 332 c 128
 148 218.227400824 178.11328125 94 280 94 c 0
 364.73046875 94 382 199.705371228 382 287.5 c 128
 382 345 388.139062642 417.92092449 384 480 c 128
 379.877929688 541.82421875 412.248046875 612 497 614 c 128
 608.969253349 616.642281369 579.479492188 619.067382812 710 623 c 128
 744.34375 624.03515625 866.5 628 897.5 628 c 128
 959.285497525 628 997.735736037 608.428227422 1014.5 563.5 c 128
 1032.17734179 516.124724006 1031 436.418459138 1031 369 c 128
 1031 199.979431036 1035.76736523 -2 872 -2 c 0
 785.122784031 -2 739.774016885 7.38864663585 688.5 38 c 128
 666.166666667 51.3333333333 649.333333333 70.6666666667 638 96 c 0
 608.755793226 154.488413547 603.255793226 239.655080214 621.5 351.5 c 0
 629.166666667 398.5 644.333333333 452.666666667 667 514 c 1
920 494 m 0
 919.285539157 503.287990954 897.5 509.98245614 812.5 507 c 0
 793.5 506.333333333 798 506 788 506 c 1
 757.9765625 467.397460938 738.642578125 409.564453125 730 332.5 c 0
 716.654296875 213.502929688 719.989086429 114.504125862 802 83.5 c 128
 829.333333333 73.1666666667 864.333333333 75 907 89 c 1
 936.767566789 93.2525095413 928 390 920 494 c 0
EndSplineSet
EndChar

